<svg xmlns="http://www.w3.org/2000/svg" viewBox="0 0 37.72 39.09">
    <style>
        path{
            fill: white;
        }
    </style>
    <title>Intel</title>
    <g id="Layer_2" data-name="Layer 2">
        <g id="Layer_1-2" data-name="Layer 1">
            <path d="M31.21,21.06a.19.19,0,0,0,.12-.2c0-.86,0-1.72,0-2.58,0,0,0-.08,0-.13h0l-.33.19a26.43,26.43,0,0,1-4,1.78,39.4,39.4,0,0,1-5.54,1.53,32,32,0,0,1-3.49.52c-.7.06-1.41.11-2.12.14a32,32,0,0,1-3.31,0,25.37,25.37,0,0,1-3-.32,16.45,16.45,0,0,1-2.7-.68,10,10,0,0,1-2.67-1.37,6.38,6.38,0,0,1-2-2.31,6.91,6.91,0,0,1-.64-3.83,9.12,9.12,0,0,1,.58-2.38A10.36,10.36,0,0,1,4.06,8.24.3.3,0,0,0,4.14,8c0-.25,0-.5,0-.76,0,0,0-.07,0-.1h0L4,7.22A13.83,13.83,0,0,0,1.65,9.94,9.45,9.45,0,0,0,0,14.48a1.63,1.63,0,0,1,0,.21v.94a1.76,1.76,0,0,1,0,.23,10.09,10.09,0,0,0,.19,1.33,7.43,7.43,0,0,0,1.4,3.08A9.12,9.12,0,0,0,4,22.41,14,14,0,0,0,7.61,24a23.39,23.39,0,0,0,5.35.86c.81,0,1.62.05,2.44,0s1.81-.07,2.7-.16c.57-.06,1.15-.12,1.72-.19.84-.11,1.67-.26,2.5-.43a39.53,39.53,0,0,0,5.18-1.42A26.19,26.19,0,0,0,31.21,21.06Z"/>
            <path d="M37.66,7.67A7,7,0,0,0,37,5.51a7.37,7.37,0,0,0-2.1-2.6,11.2,11.2,0,0,0-3-1.69,17.07,17.07,0,0,0-3-.83A20.09,20.09,0,0,0,26.71.1L25.39,0,25.3,0H23.61L23.5,0l-2,.13c-.86.07-1.71.2-2.55.35A33.26,33.26,0,0,0,14,1.77,29.66,29.66,0,0,0,8.38,4.38l-.14.09v.72l.11,0A36.24,36.24,0,0,1,18.65,1.78q1.53-.26,3.07-.38c.94-.07,1.87-.11,2.81-.08A22.81,22.81,0,0,1,28,1.64a15.38,15.38,0,0,1,2.75.73,9.62,9.62,0,0,1,2.68,1.48,6.19,6.19,0,0,1,2,2.64,5.76,5.76,0,0,1,.34,2.9,6.38,6.38,0,0,1-.87,2.41,8,8,0,0,1-2.68,2.68l-.14.09c0,.37,0,1.95,0,2h0l.28-.11a9,9,0,0,0,4.34-4,7.7,7.7,0,0,0,.94-2.93A8.29,8.29,0,0,0,37.66,7.67Z"/>
            <path d="M18.85,31.33a2.6,2.6,0,0,0-1.42-.1,2,2,0,0,0-1.48,1l-.05.07c0-.14,0-.25,0-.37s0-.24,0-.36a.26.26,0,0,0-.19-.27,1.29,1.29,0,0,0-.45,0v.17q0,3.71,0,7.41c0,.06,0,.11,0,.17h.65c0-.05,0-.1,0-.16q0-1.43,0-2.87v-.14A.13.13,0,0,1,16,36a1.82,1.82,0,0,0,.79.71,2.3,2.3,0,0,0,.8.22,2.5,2.5,0,0,0,1.36-.21A2.29,2.29,0,0,0,20,35.49a3.72,3.72,0,0,0,.28-1.38,3.76,3.76,0,0,0-.23-1.51A2.11,2.11,0,0,0,18.85,31.33ZM19.52,35a2.06,2.06,0,0,1-.36.73,1.55,1.55,0,0,1-1,.58,2.26,2.26,0,0,1-1-.05,1.56,1.56,0,0,1-1-.75,2.34,2.34,0,0,1-.29-.9c0-.17,0-.34,0-.51A3.19,3.19,0,0,1,16.08,33a2.48,2.48,0,0,1,.18-.36,1.68,1.68,0,0,1,1.4-.85,2.27,2.27,0,0,1,.7,0,1.46,1.46,0,0,1,.93.66,2.29,2.29,0,0,1,.33.94A3.92,3.92,0,0,1,19.52,35Z"/>
            <path d="M27.65,13.37a8.64,8.64,0,0,0-.08-1.61A4.11,4.11,0,0,0,27,10.23a2.9,2.9,0,0,0-1.8-1.28,3.65,3.65,0,0,0-1.47,0,3.3,3.3,0,0,0-1.77.87,3.59,3.59,0,0,0-1,1.87,5.56,5.56,0,0,0-.11,1.61,4.84,4.84,0,0,0,.26,1.34,3.07,3.07,0,0,0,2.14,2,4.76,4.76,0,0,0,2.15.08,3.71,3.71,0,0,0,2-1.09l0-.06-1.19-1.13-.23.21a2,2,0,0,1-.82.44,2.73,2.73,0,0,1-1.07.05,1.52,1.52,0,0,1-1.11-.7,1.81,1.81,0,0,1-.26-1h4.9A.26.26,0,0,0,27.65,13.37Zm-4.9-1.28a1.25,1.25,0,0,1,0-.42,1.46,1.46,0,0,1,1.57-1.2,1.85,1.85,0,0,1,.41.06,1.07,1.07,0,0,1,.54.35,2,2,0,0,1,.42,1.2Z"/>
            <path d="M15.47,16.62V16.5q0-2.61,0-5.22a2.74,2.74,0,0,0-.1-.76,2,2,0,0,0-1.2-1.36,2.65,2.65,0,0,0-1-.17h-4v7.65h1.93V10.56H12.8a1.12,1.12,0,0,1,.33.06.54.54,0,0,1,.37.4,1.3,1.3,0,0,1,0,.3q0,2.58,0,5.16v.15C13.69,16.66,15.37,16.65,15.47,16.62Z"/>
            <path d="M16.92,6.92v.16q0,3.67,0,7.33A2.65,2.65,0,0,0,17,15a2,2,0,0,0,1.22,1.51,2.35,2.35,0,0,0,.89.17H20.3a14.85,14.85,0,0,0,0-1.61h-.86a.56.56,0,0,1-.57-.56c0-.05,0-.1,0-.16q0-1.81,0-3.62s0-.07,0-.12H20.3a12.84,12.84,0,0,0,0-1.57H18.86V6.92C18.72,6.89,17,6.9,16.92,6.92Z"/>
            <path d="M30,16.4a4.14,4.14,0,0,0,.49.13l.25,0c0-.21,0-10.65,0-10.75H28.77V6q0,4.21,0,8.42a3.68,3.68,0,0,0,0,.45A1.74,1.74,0,0,0,30,16.4Z"/>
            <path d="M5.55,15.16a1.73,1.73,0,0,0,.48,1,2.24,2.24,0,0,0,1.42.59c0-.13,0-7.63,0-7.73H5.51v.16q0,2.75,0,5.5A3.22,3.22,0,0,0,5.55,15.16Z"/>
            <path d="M31,36a2.18,2.18,0,0,1,0-.23c0-.85,0-1.69,0-2.54a3.74,3.74,0,0,0,0-.53,1.62,1.62,0,0,0-1.37-1.45,3.39,3.39,0,0,0-2.35.38l-.27.17.27.45,0,0a2.83,2.83,0,0,1,1.35-.46,2.49,2.49,0,0,1,.9.07,1,1,0,0,1,.7.63,3,3,0,0,1,.12,1.14h-.38c-.47,0-.94,0-1.41,0a2.29,2.29,0,0,0-.9.23,1.44,1.44,0,0,0-.8.88,1.81,1.81,0,0,0-.06.79,1.45,1.45,0,0,0,1,1.27,2.37,2.37,0,0,0,1.32,0A1.74,1.74,0,0,0,30.29,36l0-.05c0,.06,0,.11,0,.15a2.93,2.93,0,0,0,.09.31.53.53,0,0,0,.23.28,1.12,1.12,0,0,0,.81.07v-.49h-.23A.29.29,0,0,1,31,36Zm-.76-.69a1.53,1.53,0,0,1-1.39,1,2.3,2.3,0,0,1-.54,0,.93.93,0,0,1-.87-1,1.59,1.59,0,0,1,0-.39.88.88,0,0,1,.49-.64,1.78,1.78,0,0,1,.66-.18l.55,0h1.19A3,3,0,0,1,30.2,35.29Z"/>
            <path d="M8.46,35.77l-.1.06a2.75,2.75,0,0,1-1.09.45,3.7,3.7,0,0,1-1.15,0,2.4,2.4,0,0,1-1.59-.89,3,3,0,0,1-.5-.94,4.75,4.75,0,0,1-.22-1.68,4.29,4.29,0,0,1,.27-1.44,2.51,2.51,0,0,1,1.38-1.48,2.94,2.94,0,0,1,1.12-.22,2.92,2.92,0,0,1,1.78.49h0l.31-.47-.12-.09a2.89,2.89,0,0,0-.92-.43A4.09,4.09,0,0,0,6,29.08a3.1,3.1,0,0,0-2.22,1.44A4,4,0,0,0,3.18,32a5.94,5.94,0,0,0,0,1.65A4.56,4.56,0,0,0,3.47,35a3.06,3.06,0,0,0,2.21,1.86,4.31,4.31,0,0,0,1.39.07,3.34,3.34,0,0,0,1.49-.5l.26-.19-.32-.48Z"/>
            <path d="M14,36.27a.3.3,0,0,1-.31-.3,1.49,1.49,0,0,1,0-.17q0-1.29,0-2.58a3,3,0,0,0-.08-.71,1.58,1.58,0,0,0-1.25-1.27,3.37,3.37,0,0,0-1.85.1,3.14,3.14,0,0,0-.86.44l.28.45.13-.08a2.9,2.9,0,0,1,2.07-.36,1,1,0,0,1,.86.82,2.57,2.57,0,0,1,.07.63c0,.11,0,.22,0,.34H11.73a3.64,3.64,0,0,0-.92.1l-.32.11a1.49,1.49,0,0,0-1,1.53,1.51,1.51,0,0,0,1.22,1.51,2.53,2.53,0,0,0,1.16,0A1.75,1.75,0,0,0,13.06,36l0,0c0,.15.06.29.11.43a.55.55,0,0,0,.32.34,1.22,1.22,0,0,0,.73,0c0-.17,0-.32,0-.49Zm-.95-1.67a2.16,2.16,0,0,1-.1.64,1.56,1.56,0,0,1-1.41,1.08,2.06,2.06,0,0,1-.68,0,.91.91,0,0,1-.71-.87,2,2,0,0,1,0-.48.83.83,0,0,1,.42-.58,1.7,1.7,0,0,1,.72-.21l.55,0h1.2C13.07,34.29,13.08,34.45,13.07,34.61Z"/>
            <path d="M24.73,29.91h-.66v1.41h-1v.54h1V32c0,1,0,2,0,3a3.93,3.93,0,0,0,.05.66,1.17,1.17,0,0,0,1,1,3,3,0,0,0,.92,0l.15,0v-.53h-.4a1.7,1.7,0,0,1-.55-.09.64.64,0,0,1-.43-.44,1.82,1.82,0,0,1-.07-.54q0-1.59,0-3.18s0-.08,0-.14h1.44v-.54H24.73Z"/>
            <path d="M33.54,36.25a.42.42,0,0,1-.37-.36,2.28,2.28,0,0,1,0-.39q0-3.21,0-6.42v-.17h-.64s0,.09,0,.13q0,3.26,0,6.53a2.23,2.23,0,0,0,.05.46.93.93,0,0,0,.45.67,1.62,1.62,0,0,0,1,.12v-.54h-.15Z"/>
            <path d="M7.46,6.08H5.52V7.92H7.46Z"/>
            <path d="M21.53,36.77a2.31,2.31,0,0,0,.64,0V31.33h-.64Z"/>
            <path d="M21.47,29.18V30h.74a4.26,4.26,0,0,0,0-.84Z"/>
            <path d="M32.83,7.37a.78.78,0,1,0-.77-.79A.78.78,0,0,0,32.83,7.37Zm0-1.43a.66.66,0,0,1,.64.65.65.65,0,0,1-.66.63.64.64,0,0,1-.63-.64A.64.64,0,0,1,32.84,5.94Z"/>
            <path d="M32.51,7h.19V6.71c.07,0,.11,0,.14,0l.12.2c.08.13.1.14.26.09A3.76,3.76,0,0,0,33,6.66a.29.29,0,0,0,.15-.37c0-.12-.13-.19-.3-.19h-.23c-.13,0-.13,0-.13.14s0,.48,0,.72A.94.94,0,0,0,32.51,7Zm.18-.77a.36.36,0,0,1,.2,0,.11.11,0,0,1,.09.11.12.12,0,0,1-.08.13.34.34,0,0,1-.22,0Z"/>
        </g>
    </g>
</svg>