<svg fill="#fff" xmlns="http://www.w3.org/2000/svg" viewBox="0 0 67.97 39.53"><title>MGM</title><g id="Layer_2" data-name="Layer 2"><g id="Layer_1-2" data-name="Layer 1"><path d="M67.45,28.55a2.87,2.87,0,0,0-1.58-.49c-1.12,0-1.9.55-1.68,1.87a4.24,4.24,0,0,1,0,.49c0,.1,0,.2,0,.31l-.27,0a13.2,13.2,0,0,1-4-1.32,2,2,0,0,1-.91-.77,3.36,3.36,0,0,0-.55-.63,16.42,16.42,0,0,0-6.38-3.83,9,9,0,0,0-4.1-.48.81.81,0,0,0-.74.62q-.39,1.09-.81,2.16a.73.73,0,0,0,0,.66,3.61,3.61,0,0,0,1.64,1.45l1.07.54-.18.33a12.72,12.72,0,0,0-3.59-1.56c0-.1.07-.15.1-.2a13.94,13.94,0,0,0,2-6.32A13.59,13.59,0,0,0,46.07,14a13,13,0,0,0-3.65-4.39,1.26,1.26,0,0,0-1.23-.27,6.28,6.28,0,0,0-.7.38.38.38,0,0,1-.3,0c-.06,0-.08-.17-.07-.26a2.06,2.06,0,0,1,.08-.31,1,1,0,0,0-.63-1.28A22.16,22.16,0,0,0,36.92,7a13.2,13.2,0,0,0-4.48-.21,12.57,12.57,0,0,0-3.85,1.06,1.12,1.12,0,0,0-.72,1.25,2.33,2.33,0,0,0,.19.6c.08.18.07.32-.1.42s-.26-.05-.35-.16l-.13-.19a1,1,0,0,0-.87-.43,1.74,1.74,0,0,0-1.2.5A23.24,23.24,0,0,0,23.35,12a13.28,13.28,0,0,0-2.91,7.42,13.73,13.73,0,0,0,1.19,6.79c.23.51.5,1,.75,1.52,0,0,0,0-.07.06a11.79,11.79,0,0,0-3.15,1.68c-.14.1-.22.08-.27-.09s-.06-.17-.09-.26a8.08,8.08,0,0,0,2.32-1.64,1.08,1.08,0,0,0,.23-1.27c-.21-.5-.39-1-.57-1.54a1.16,1.16,0,0,0-.84-.8,6.37,6.37,0,0,0-2.69,0,11.7,11.7,0,0,0-2.86.89,12.78,12.78,0,0,0-5.82,4.48.55.55,0,0,1-.24.2,19.58,19.58,0,0,1-3.88,1.21c-.29,0-.58.06-.9.09,0-.41,0-.74.05-1.08a1.23,1.23,0,0,0-.83-1.29,3.13,3.13,0,0,0-1.15-.19A1.51,1.51,0,0,0,0,29.6c-.06,1,0,1.93,0,2.89A1.69,1.69,0,0,0,1.09,34a5.2,5.2,0,0,0,2.33.45,12.17,12.17,0,0,0,4.83-1l.61-.24c.11.28.2.53.29.78a2.55,2.55,0,0,0,1.9,1.76,1.7,1.7,0,0,0,1.77-.65,1.41,1.41,0,0,0,0-1.63,2.28,2.28,0,0,1-.16-.43c0-.17,0-.29.2-.33s.49-.12.73-.18a9,9,0,0,1,3.81-.08.46.46,0,0,1,.43.35.86.86,0,0,0,.83.68,3.07,3.07,0,0,0,1.16-.11,23.16,23.16,0,0,0,2.42-1.15A10.38,10.38,0,0,1,24.91,31a.68.68,0,0,1,.65.17,8.94,8.94,0,0,0,2.19,1.38c.48.21.71.1.86-.4a9.88,9.88,0,0,1,1.3-3.07.68.68,0,0,0,.05-.49,1.64,1.64,0,0,0-.86-1,4.6,4.6,0,0,0-2-.6.54.54,0,0,1-.34-.17,14.53,14.53,0,0,1-1-1.39A9.79,9.79,0,0,1,28,12.88c.21-.17.33-.18.47,0a.64.64,0,0,0,.75.34,1,1,0,0,0,.77-.71.57.57,0,0,0-.09-.45c-.21-.23-.12-.37.1-.46.55-.23,1.11-.44,1.67-.66l.1.1c-.11.24-.24.48-.33.73a.76.76,0,0,0,0,.39,1.32,1.32,0,0,0,.17.4c.12.21.06.3-.16.38a1.7,1.7,0,0,0-.49.28c-.3.23-.39.75-.93.65a.06.06,0,0,0,0,0,2.16,2.16,0,0,0-.4.67.61.61,0,0,1-.39.45c-.46.14-.3.67-.62.87,0,0,0,0,0,0a2.17,2.17,0,0,1-.37.84,1.25,1.25,0,0,0-.33.83c0,.2,0,.48-.31.57s-.16.22-.06.36a.4.4,0,0,1,0,.56,1,1,0,0,0-.27.65,1,1,0,0,1-.26.87.84.84,0,0,0-.08.35c0,.09,0,.18,0,.27a1.26,1.26,0,0,0,0,.31c0,.11.13.22.11.32s-.1.56-.18.57a.67.67,0,0,0-.56.47l-.14-.05c-.34-.16-.35-.15-.48.21-.06.17-.14.34-.19.47a4.75,4.75,0,0,0,.88,1.82l.17-.26L26.12,25l0-.08c.08,0,.2,0,.23,0,.22.27-.1.42-.19.65.35.24.38.76.88,1-.31-.29.06-.2.12-.32l-.24-.34c.24,0,0-.17.05-.23.2-.25.1-.56.17-.83,0-.11-.23-.47-.35-.5-.18-.21-.14.15-.28.08l.17-.28c.15-.25.11-.34-.17-.39a1.59,1.59,0,0,1-.23-.09l.35,0a.72.72,0,0,0-.94.07l.33.05c-.5.14-.57.07-.46-.43h.18L25.63,23l.58.27.35-.46-.07-.1a3.31,3.31,0,0,1,.63-.21,3.43,3.43,0,0,1,.66,0v0l-.32.05v.07h.62v.08h-.65v.09l.76,0v.11h-.36a.47.47,0,0,0-.24.05,3,3,0,0,0-.31.33l.22.07,0,.24h.34v.05l-.36.16.48.1a.33.33,0,0,1-.22.06c-.25,0-.37.13-.47.3s0,.13,0,.15a.32.32,0,0,0,.2.07s.11-.08.12-.13a.68.68,0,0,0,0-.23l.27,0c0,.28,0,.52-.05.76s0,.49,0,.8c.33-.28.37-.66.67-.82l.07,0-.46.78.08.05.51-.74.05,0-.47.71c.23.22.3.2.45-.05s.3-.48.48-.77l.35.66.18,0,.06.06-.31.43-.25-.5a3.51,3.51,0,0,1-.2.71,3.32,3.32,0,0,1-.45.54l.34.23.28-.78.07,0-.25.77.09,0,.28-.82.06,0-.25.93.37-.34,0,0-.18.24,0,0,.41-.34-.38.54.05,0,.17-.08.08.26.94-.73-.18.8.07,0a1.26,1.26,0,0,1,.16-.26.77.77,0,0,0,.17-1c-.06-.14,0-.35.06-.53,0,0,.12,0,.18,0V26l-.19.14,0,.07.51,0,0,0-.33.19.08.1.36-.19,0,.06-.49.4,0,.06.47-.25.05.06a1.81,1.81,0,0,1-.38.4c-.21.12-.16.24-.11.43l.09-.21.6-.12v-.07l-.23,0c.08-.44.11-.46.48-.41l-.08.39.07,0,.22-.44.07,0-.12.37a1.71,1.71,0,0,0,.53-.2c.15-.13.25-.16.37,0,.42-.2.21-.62.33-1,.09.24.17.43.24.62a.44.44,0,0,1,0,.15h-.12s-.1,0-.13,0a.14.14,0,0,0,0,.13.14.14,0,0,0,.12.06l.38-.05c-.08-.27-.16-.49-.23-.72-.14-.5-.14-.52,0-.65l.42,1,.07,0L34,25l.13,0,.18.76.1,0a8.56,8.56,0,0,1-.14-.91,7.87,7.87,0,0,1,0-.89,1.29,1.29,0,0,1-.83.74c-.25.08-.51.27-.8.1l-.49-.31c-.09-.05-.21-.08-.3-.13s-.19-.19-.27-.18a.41.41,0,0,1-.48-.28c0-.09-.15-.14-.23-.21s-.17-.13-.16-.18c0-.25-.14-.38-.24-.56a1.18,1.18,0,0,1-.1-.35c0-.13,0-.29-.07-.39s-.31-.36-.28-.65a6.84,6.84,0,0,0,0-.8l-.49.29,0-.07.58-.37L30,20.44l.87-1-.44-.14.1.27-.31-.25-.34.25a.69.69,0,0,1-.35.85l.19-.37h-.17l0-.26-.17.1-.05,0L30,18.8l-.06,0-.49.56-.06,0,.07-.5-.2.31c-.12-.5.42-.45.57-.7l-.07-.08-.63.43a1,1,0,0,1,.23-.38c.18-.16.16-.26-.05-.34l.15-.25-.06,0-.58.64H29a2.21,2.21,0,0,0,.17.84.56.56,0,0,1,0,.64.73.73,0,0,0,0,.34,2.56,2.56,0,0,1,.1.8c0,.14-.31.22-.48.33l-.05-.05.36-.42,0,0-.39.17.15-.85-.38.2a.48.48,0,0,1,0-.12c.31-.12.17-.45.31-.65s.07-.37,0-.42c-.24-.17-.11-.4-.15-.6l-.76-.22,0-.11.73.24c0-.36.22-.72-.22-.93l.19-.17L28.5,17a1,1,0,0,1-.2.14.5.5,0,0,1-.19,0c0-.06,0-.16.07-.17.3-.11.3-.38.35-.62.15.1.52-.05.68-.27L28.69,16l0-.11a3,3,0,0,0,.6.12,3.11,3.11,0,0,0,.61-.12v-.09l-.19-.11,0-.05h.4v-.09a2.41,2.41,0,0,0-.58,0,2,2,0,0,0-.47.28,1,1,0,0,0,0-.29.7.7,0,0,0-.15-.17,2.42,2.42,0,0,0,.65-.41,5.19,5.19,0,0,0,.46-.88.48.48,0,0,0,.61-.17c.15-.16.37-.24.32-.48.14-.19.53.14.52-.28l.7-.11c-.1-.07-.22-.06-.3-.11a1.11,1.11,0,0,1-.3-1,3.1,3.1,0,0,1,.13-.44c.11-.21.2-.53.38-.59a3.92,3.92,0,0,1,1.32-.2,3.13,3.13,0,0,1,.93.3,1.05,1.05,0,0,1,.57.79c0,.18,0,.35.05.53.47-.06.45.41.73.63l0-.27h0l.17.42c.27-.51-.35-.75-.25-1.24l.33.44c.12-.24.19-.11.27,0s.1.16.16.17a.61.61,0,0,1,.5.38,2.8,2.8,0,0,0,.54.57l.06-.63.23.27.12-.18.19.72c0-.33,0-.33.4-.39l.13.76.13-.28.09.31.14-.19L39,14l.7,0v.05l-.62.36.32.1a2,2,0,0,0-.14.23c0,.1-.07.2-.1.3l.26,0,.34.07-.33.35.45,0v.07l-.33.11.12.26-.39.22,0,.09c.21-.09.41-.15.59,0l-.25,0,.2.74.79.06c.43,0,.85,0,1,.52,0,.05.07.09.1.14s.4.33.19.63c0,0,0,.09,0,.14a1.52,1.52,0,0,1-.27,1.3c-.07.1-.26.13-.31.23s-.35.27-.57.33l-.27.07-.35,0c.21.18.64.16.61.61L40.61,21c-.25.46.24.57.4.84l-.33-.1c0,.26.55.42.05.71l.45.32,0,.05-.31-.15,0,0,.4.7-.26,0,.13.3-.07,0-.67-.55v1.17h.05l.11-.82a.69.69,0,0,1,.17,1l.28.29-.27,0,.17.34.18.41-.39-.22a1,1,0,0,0,.29,1.15l-.19-.74,0,0,.2.3,0,0,0-.29c.28,0,.22-.2.15-.37a2,2,0,0,1,0-1.33c.09-.34.4-.6.34-1,0-.18,0-.32-.16-.45-.3-.26-.27-.42.15-.57l-.47-.61a.77.77,0,0,0,.46-.71,1,1,0,0,1,.43-.74,1.66,1.66,0,0,0,.29-.44c.27-.43,0-.91.11-1.36,0,0,0-.08-.07-.12s-.19-.29-.27-.44A1.27,1.27,0,0,0,40.57,17c-.21,0-.4,0-.44-.31a4.61,4.61,0,0,0-.3-.86l.24-.12c-.35-.66-.35-.66-.64-.79a1.41,1.41,0,0,1,.2-.49c.36-.36.35-.53-.14-.7a1.83,1.83,0,0,0-.31,0,.33.33,0,0,1-.18-.05,2.61,2.61,0,0,1-.42-.48c-.13-.23-.27-.3-.49-.12-.37-.47-.4-.49-.86-.51v.33l-.08.05c-.08-.54-.53-.6-.9-.76a1.72,1.72,0,0,1-.41-.27.34.34,0,0,0-.47,0l-.2.11c-.23-.49-.29-1-.86-1.38a13.58,13.58,0,0,1,3.7,1c-.16.56-.06.91.31,1.15s.61.19,1.18-.28l.24.15.21.16A9.28,9.28,0,0,1,43,17,9.55,9.55,0,0,1,41.4,26.6a1.16,1.16,0,0,1-.73.45,4.08,4.08,0,0,0-1.91,1.09.75.75,0,0,0-.28.88,12.63,12.63,0,0,1,1.1,3,.49.49,0,0,0,.63.44,1.66,1.66,0,0,0,.66-.25c.59-.4,1.17-.81,1.73-1.25a.57.57,0,0,1,.7-.11c.8.43,1.62.84,2.42,1.29a8.42,8.42,0,0,0,2.55,1.13c1,.18,1.43.2,2-.72a.5.5,0,0,1,.35-.21,23.6,23.6,0,0,1,2.48-.12,11.09,11.09,0,0,1,1.78.32c.21,0,.31.16.2.4a4.35,4.35,0,0,0-.22.63,1.54,1.54,0,0,0,.91,2,2,2,0,0,0,2.74-1c.08-.17.14-.36.22-.53l.34-.74.27.11a13,13,0,0,0,3.06,1,6.46,6.46,0,0,0,3.75-.28,2.21,2.21,0,0,0,1.62-1.69c.14-1,.18-2,.23-3.08A1,1,0,0,0,67.45,28.55ZM26.81,24.33l-.07.54A.32.32,0,0,1,26.81,24.33Zm5.37,2.17a1.15,1.15,0,0,1-.29-.07l0-.11h.45C32.28,26.42,32.23,26.5,32.18,26.51Zm-.1-.78a.39.39,0,0,1,.19.26l.31.07v.08h-.71l-.09-.41A.79.79,0,0,1,32.08,25.73Zm-1.6.34.08.05-.35.55-.09-.06Zm-1.25-4.54a.22.22,0,0,1,.22,0,.39.39,0,0,1,.12.24c0,.17,0,.35,0,.57-.12,0-.28.09-.28-.21,0-.11-.12-.22-.14-.34A.38.38,0,0,1,29.23,21.52Zm-.29,3.59.06,0-.51.76-.06,0Zm-2-3.72.23-.12A1.18,1.18,0,0,1,27,21a.47.47,0,0,1,.17-.51,1.07,1.07,0,0,0,.31-.71c0-.12.06-.27,0-.43l.2.09v-.33l.36.34-.18.12.22.26-.41.19,0,.06h.3l-.33.21.21,0c-.06.21-.13.43-.18.65,0,0,.06.11.09.16l-.24.14.2,0v.08l-.79,0Zm.12.4v-.12h1.06v.06Zm1.17-3.12-.07.11-.59-.36.06-.1Zm.06-1.23.05.38c-.3-.11-.39-.25-.28-.5ZM57.12,27.82a.94.94,0,0,1-.71.26H55.05a1.83,1.83,0,0,0-1.36.32c-.06.05-.19,0-.3,0-.06-.31.13-.4.33-.43.46-.06.92-.1,1.38-.13.64,0,1.29-.07,1.93-.09C57.05,27.77,57.08,27.8,57.12,27.82Zm-7.91-3.94-.85,2.62A5.4,5.4,0,0,1,49.21,23.88Zm-1.13.36a6.39,6.39,0,0,1-.14.9c-.08.27-.07.61-.33.8l-.1,0L48,24.22Zm-.91,2.52c-.11,0-.26.06-.31.15s0,.21.07.31a1.6,1.6,0,0,0,.19.26.76.76,0,0,1-.34-1c.27-.68.51-1.37.76-2.05a4.33,4.33,0,0,1,.24-.47l.12.06L47,26.54c.31.23.28-.29.53-.24v.28c.31.05.62.12.94.15.06,0,.16-.12.18-.2.17-.56.31-1.13.48-1.69a3.63,3.63,0,0,1,.35-.79c.06-.11.24-.15.41-.25l-1,3c.17.12.28.1.34-.11.14-.55.28-1.1.44-1.64.08-.27.2-.52.3-.78a.43.43,0,0,1,.57-.28,15.13,15.13,0,0,1,4.25,1.59c.71.4,1.37.88,2.06,1.32.22.14.11.34.11.51s-.2.16-.31.17c-.68,0-1.37,0-2,.07-.43,0-.85.14-1.27.2a2,2,0,0,1-.35-.06,1.1,1.1,0,0,0-.24,0,1.61,1.61,0,0,0,.12.22s.1,0,.12.07a.29.29,0,0,1,.06.2.19.19,0,0,1-.17.08,2.78,2.78,0,0,1-.46-.18,15.3,15.3,0,0,0-5.11-1.45A.36.36,0,0,0,47.18,26.76Zm.4,1.07,0,.09-.27-.2a.69.69,0,0,1,.62-.46,3.25,3.25,0,0,1,.89,0c.59.11,1.17.27,1.75.42l0,.07c-.36-.06-.71-.15-1.07-.19a6,6,0,0,0-1.21,0A2.59,2.59,0,0,0,47.58,27.82Zm.71.37c.33-.54.84-.46,1.32-.35s1.24.34,1.86.52a.63.63,0,0,1,.14.08v0l-.91-.23c-.17,0-.31,0-.3.21a.32.32,0,0,1-.12.19c-.2-.08-.31.12-.46.15a1.06,1.06,0,0,1-.52,0A1.59,1.59,0,0,1,48.29,28.2ZM28.38,11.78l-.08.06L26.91,9.77A9.75,9.75,0,0,1,28.38,11.78Zm-10.15,17c-.59-.16-1.2-.27-1.8-.4a.25.25,0,0,1-.13-.06A3.8,3.8,0,0,1,18.91,28a.43.43,0,0,1,.17.15c.08.1.14.2.22.32A1,1,0,0,1,18.23,28.77Zm2-.91,0-.06a.7.7,0,0,0,.12-.1s.07-.11.06-.14a.26.26,0,0,0-.15-.09,5.35,5.35,0,0,0-2.73.23c.89-.52,2.89-.66,3.27-.23ZM20,24.07a14.87,14.87,0,0,1,.86,2.23l-.09,0-.9-2.22ZM1.77,33.93a3.7,3.7,0,0,1,.1-2.34ZM7,33a.26.26,0,0,0,0,.25c.21.28,0,.37-.2.42-.72.16-1.45.31-2.18.43a8.4,8.4,0,0,1-1.3.06,1.93,1.93,0,0,1-.49-.13l0-.12a1.2,1.2,0,0,0,.32,0c.07,0,.13-.11.19-.16s-.12-.14-.19-.15c-.39-.06-.38-.06-.36-.46s0-.75,0-1.12c0-.16.05-.22.21-.24s.24,0,.19-.3h-.4l.11-.33-.38,0L2.43,34c-.27.09-.4-.05-.41-.25a7.77,7.77,0,0,1,0-.92c0-.33,0-.65.05-1s.06-.5.1-.78L1,30.82V33.6a3.12,3.12,0,0,1-.33-.31,1.84,1.84,0,0,1-.41-1.18c0-.82,0-1.64.07-2.46a1.21,1.21,0,0,1,.94-1.2,1.83,1.83,0,0,1,1.49.09,1,1,0,0,1,.57.84c0,.37,0,.75,0,1.13a.2.2,0,0,1-.11.17l0-.57-1.08.41a.83.83,0,0,0-.16-.22,1.33,1.33,0,0,0-.33-.14l-.1.28a.45.45,0,0,1,0-.59.31.31,0,0,0,.06-.18c0-.2,0-.38.19-.49,0,0,0-.23,0-.33s-.17-.16-.3-.28l-.23.07c-.14,0-.18.12-.16.28.05.43.07.87.1,1.36-.27-.12-.43-.29-.34-.46A.9.9,0,0,0,.73,29a.74.74,0,0,0-.31.76,1.14,1.14,0,0,0,.59.81,4.22,4.22,0,0,0,2.36.4,13.46,13.46,0,0,0,3.76-.85l.48-.17a4,4,0,0,0-.77,1.7,1.49,1.49,0,0,0,.2,1C7.12,32.79,7.21,32.92,7,33Zm.41-.15a2.33,2.33,0,0,1,.78-3.18.58.58,0,0,1-.07.11,3,3,0,0,0-.84,1.48,1.41,1.41,0,0,0,.07,1.06,2.61,2.61,0,0,1,.13.5Zm.86.26a1.46,1.46,0,0,1,0-1.4l.49,1.18ZM9.7,34.55,9,32.62l.1,0a7.13,7.13,0,0,1,.75,1.93Zm-.13-1.82a15,15,0,0,1,1.1,2.61A11.87,11.87,0,0,1,9.57,32.73Zm3.16,1.35a4.2,4.2,0,0,1,.08.44l-.14,0-.65-2a1.68,1.68,0,0,1-.13-.41.74.74,0,0,1,.1-.29c.17.47.36.94.52,1.41.05.15,0,.32.09.47S12.71,34,12.74,34.08Zm-.12-2.21s-.2,0-.22-.05a2.3,2.3,0,0,0-.86-1.1.35.35,0,0,1,0-.56c-.06.34,0,.41.3.33s1.06.37,1.06.68A1.94,1.94,0,0,1,12.61,31.87Zm4.63-.81a4.18,4.18,0,0,1-.59-.7c-.14-.27.18-.31.29-.41L17.27,31Zm.8,1.17-.3-1.07.1,0,.3,1.07Zm1.17.19c-.13-.51-.25-1-.37-1.54l.06,0s.12.06.14.11q.32.67.62,1.35c.09.21-.07.23-.21.29S19.24,32.55,19.21,32.43Zm.31.62c.16-.19.32-.31.46.05Zm3.32-1.45c-.73.39-1.45.8-2.18,1.19-.35.18-.49.12-.66-.24s-.37-.91-.56-1.36-.33-.71-.54-1.14l-.2.54h-.08l-.11-.22-.53.17c.48.87.41,1.9.92,2.79-.1-.09-.24-.16-.28-.27-.23-.64-.44-1.29-.66-1.93-.07-.2-.14-.4-.22-.59,0,0-.09,0-.17-.09l0,.23s-.08,0-.08,0a2,2,0,0,1-.16-.65c0-.3.27-.41.56-.3.07,0,.14.09.21.09s.32,0,.4-.09,0-.25,0-.39h-.1l-.13.14L17.69,29l-.11.48-.36-.55-.12,0c.31.45,0,.65-.28.88l-.2.16a.38.38,0,0,0-.09.56c.13.18.27.35.38.54s.26.26.09.47c0,0,.07.18.12.27l.09.17c-.06,0-.13.09-.19.09-.32,0-.64-.07-1-.06-.66,0-1.32.08-2,.12a1.08,1.08,0,0,1-.26,0,1,1,0,0,0,.09-.22.6.6,0,0,0,0-.24,2,2,0,0,1-.12-.38,1,1,0,0,0-.56-1,1.62,1.62,0,0,1-.41-.32c-.14-.15-.15-.29.09-.36s.26,0,.21-.24-.18-.13-.3-.09a.22.22,0,0,1-.15,0c-.2-.12-.33-.06-.36.17s.21.6.45.83a1.73,1.73,0,0,0,.26.18,1,1,0,0,1,.43,1.17c0-.07,0-.14,0-.21a1.1,1.1,0,0,0-.67-.9,1.06,1.06,0,0,1-.64-1c-.4,0-1,.58-1,.94a1.34,1.34,0,0,0,.18.46l0,0c.71.62.71.62.14,1.3.11.29.2.56.3.82l.5,1.29.06.16c.34.76-.07.89-.72,1-.18,0-.28-.07-.32-.25a3.61,3.61,0,0,0-.16-.45l-.56-1.56c0-.05,0-.13-.07-.16-.2-.15-.16-.3,0-.49a4.88,4.88,0,0,0-.9-.13c-.32,0-.4-.34-.69-.36l0,.27c-.16-.37-.34-.69-.46-1A2.23,2.23,0,0,1,8.48,30a4.1,4.1,0,0,1,.88-1.48,13.25,13.25,0,0,1,3.94-3,14,14,0,0,1,3.93-1.41c.19,0,.41-.15.56.05l-.25.27.38.18.74,1.64a.63.63,0,0,0-.16.06c-.05,0-.11.09-.12.14s0,.12.07.18c.24-.14.32.35.55.15a.39.39,0,0,0,0-.34,4.39,4.39,0,0,0-.32-.74,2.94,2.94,0,0,1-.43-1.29c0-.12-.16-.24-.25-.37.2-.11.26,0,.31.17.14.36.27.72.41,1.08s.37.89.56,1.33c0,0,.08.05.12.08s.1-.13.09-.17c-.09-.28-.18-.57-.3-.84-.23-.55-.47-1.09-.74-1.69h.56c-.13.25-.13.42.14.5.05,0,.08.14.11.22l.41,1.14a.66.66,0,0,1,.05.19.58.58,0,0,0,.58.54,3.09,3.09,0,0,1,.6,0c.34.07.39.24.17.52,0-.31-.16-.45-.54-.41A8.87,8.87,0,0,0,18.9,27c-.92.29-1.82.68-2.73,1l-.19.07A2,2,0,0,0,13.22,27a10.08,10.08,0,0,0-2,1.36,6.81,6.81,0,0,1-.73.46.52.52,0,0,1-.3,0,.23.23,0,0,1-.16-.14.26.26,0,0,1,.08-.19,1.6,1.6,0,0,1,.21-.15c.22-.17.22-.29,0-.47l.16-.26a3.14,3.14,0,0,0-1.25,1.74l.2,0c.37.51.72.55,1.32.11s.94-.74,1.43-1.07A2.12,2.12,0,0,1,14,27.92a3.15,3.15,0,0,1,.57.29l0,.09-1.12.18a4.57,4.57,0,0,0-2.3,1.07,4,4,0,0,0-.5.65,3.42,3.42,0,0,0-.28.4,7.32,7.32,0,0,0-.49,1c-.08.22-.16.25-.35.18a1.37,1.37,0,0,1-.63-1.65,5.47,5.47,0,0,0,.2-.84H9a2.29,2.29,0,0,0-.14,2.4,1.93,1.93,0,0,0,2.69.25.43.43,0,0,0,0-.66c-.12-.11-.25-.21-.38-.32L11,30.9l.3.69-.06,0a6.5,6.5,0,0,1-.32-.73.91.91,0,0,1,.24-1,4.41,4.41,0,0,1,2.53-1.23,9.41,9.41,0,0,1,4.09.19,4,4,0,0,1,.74.31.33.33,0,0,1,.18.46.37.37,0,0,1-.47.24l-.36-.1c-.18,0-.39,0-.42.18s.16.32.33.31a1.55,1.55,0,0,0,.66-.15c.5-.27,1-.59,1.46-.88l1.37-.81a5.06,5.06,0,0,0,1.19,2c.19.26.34.53.5.81A.21.21,0,0,1,22.84,31.6ZM15.5,28.32c-.09-.16-.16-.33-.27-.49a1.12,1.12,0,0,0-1-.54,4.55,4.55,0,0,0-2.41,1c-.27.19-.52.4-.79.58a1.62,1.62,0,0,1-.57.26,1.42,1.42,0,0,1-.49-.08,2.93,2.93,0,0,0,.8-.22,15,15,0,0,0,1.4-1,4.35,4.35,0,0,1,1.5-.78,1.65,1.65,0,0,1,2,.93C15.71,28.14,15.73,28.28,15.5,28.32Zm7.41,2.43c-.45-.57-.9-1.15-1.33-1.74a2.41,2.41,0,0,1-.22-.59l.12,0c.26,1,1.21,1.5,1.79,2.38C23.11,30.76,22.95,30.8,22.91,30.75Zm.4.69c-.19-.19-.18-.31,0-.38s.13,0,.19,0Zm1.35-.65c-.19.06-.38.12-.57.17a.21.21,0,0,1-.16-.07l-1.27-1.49c-.09-.1-.18-.2-.26-.31s-.28-.26-.08-.46c0,0,0-.14,0-.23l-.38.07c0-.14,0-.3.11-.34s.28-.16.43,0c.55.7,1.11,1.4,1.66,2.08,0,.13-.06.26,0,.34s.19,0,.29.05l.3.07Zm1.86.72c-.47-.23-.51-.29-.35-.8h0a.89.89,0,0,1,.09-.24l1.25-1.59.42.26c.24-.23.24-.23-.11-.56.14-.28.24-.26.64.11C27.72,29.58,27.48,30.78,26.52,31.51Zm.65.13c.37.13.4.17.38.48C27.16,32,27.08,31.91,27.17,31.65Zm.29-.65c.27-.63.58-1.25.88-1.86a.87.87,0,0,1,.28-.28,5.73,5.73,0,0,0-.84,2.59C27.39,31.37,27.32,31.31,27.45,31Zm1.82-1.78c-.05.21-.1.43-.17.63-.25.74-.51,1.49-.78,2.23,0,.1-.16.18-.25.27,0-.11-.11-.22-.1-.33a1.42,1.42,0,0,1,.16-.54,3.88,3.88,0,0,0,.46-1.29c.05-.28.06-.59.42-.72.09,0,.13-.18.2-.27ZM29.19,28l-.63.26v.09c-.19-.09-.37-.16-.43-.43,0-.11-.24-.19-.37-.27a1.64,1.64,0,0,1-.39-.26A2.66,2.66,0,0,1,29.19,28Zm-1.73,0,.09.07a2,2,0,0,1-.2.35c-.23.27-.48.53-.72.79a2.8,2.8,0,0,0-.9,1.67c-.35-.2-.35-.28-.05-.51.06,0,.07-.19.09-.29s0-.24,0-.31A12.36,12.36,0,0,1,27,28.5c.14-.13.31-.19.35-.41C27.31,28.05,27.41,28,27.46,28Zm-.14-14.91a9.77,9.77,0,0,0-3.18,7.82,9.7,9.7,0,0,0,2.91,6.64c.18.18.18.18.07.4,0,0-.09-.07-.14-.06a.42.42,0,0,0-.22.07s-.06.15,0,.17c.19.17,0,.29-.06.41s-.42.42-.62.64-.37.43-.56.66l-.29-.2c-.19.13-.26.26,0,.41,0,0,.08,0,.08.08a2.59,2.59,0,0,1,0,.28c-.08,0-.19,0-.24,0-.22-.2-.44-.4-.65-.62a12.91,12.91,0,0,1-3.55-7.19,13.51,13.51,0,0,1,4.63-12.43c.53-.45.8-.43,1.23.11s.81,1.07,1.22,1.61c.14.18.26.37.53.18,0,0,.08,0,.14,0C28.13,12.43,27.7,12.73,27.32,13.09Zm2-.19s-.18-.1-.27-.15l.09,0,.23-.34-.27-.1-.62-1.2c0-.06,0-.13-.05-.19a.82.82,0,0,0-.15-.28c-.14-.13-.14-.23,0-.37.07.13.14.23.19.35a6.32,6.32,0,0,0,.4.86c.19.28.46.5.67.77.08.1.16.28.12.36A.93.93,0,0,1,29.28,12.9ZM40.62,27.29a1.65,1.65,0,0,1-.92.75c-.19,0-.45.2-.5.36s-.23.25-.42.24A3.18,3.18,0,0,1,40.62,27.29Zm-1,3.73-.85-1.89.08,0,.86,1.9Zm.63,1.2a.26.26,0,0,1-.21,0s0-.13,0-.18c.15-.26.13-.32-.2-.37.29-.52,0-.91-.25-1.33s-.42-.82-.63-1.23l.5-.34c.15-.11.32-.11.38.07.23.62.47,1.23.65,1.87.06.22-.09.49,0,.72a2,2,0,0,0,.34.57C40.62,32,40.44,32.14,40.26,32.22Zm.69-.7.28-.22c-.07-.28-.24-.28-.44-.16a.4.4,0,0,1,0-.12,5.16,5.16,0,0,0-.65-2.34c-.14-.35-.14-.38.29-.57l-.15.55c.1.22.1.22.53-.07-.08,1.07.64,1.82.9,2.76C41.34,31.69,41.18,31.74,40.94,31.52Zm1.84-1c-.15.13-.31.28-.47.11v-.52c-.41.21-.56.15-.69-.23s-.18-.67-.29-1a1.07,1.07,0,0,0-.26-.43.66.66,0,0,1,0-1,9.82,9.82,0,0,0,2.7-5.26A9.93,9.93,0,0,0,42,14.48a9.31,9.31,0,0,0-2.16-2.15c-.31-.23-.52-.27-.65.15-.07.22-.26.2-.44.18a.48.48,0,0,1-.49-.41,3.41,3.41,0,0,1,.14-.77,9.71,9.71,0,0,0-4.47-1.05,9.52,9.52,0,0,0-4.56,1.24,14.42,14.42,0,0,1-1.23-2.58c-.05-.12,0-.29,0-.46.25.6.46,1.15.71,1.7a6.05,6.05,0,0,0,.42.76c0,.05.14.08.22.08.32,0,.56-.22.44-.49l-.47.18a4,4,0,0,1-.84-1.59c-.05-.27,0-.43.27-.5s.28-.19.11-.38l-.34.06a.48.48,0,0,1,.41-.51c.77-.24,1.53-.52,2.32-.69a12.54,12.54,0,0,1,6,.16,14.56,14.56,0,0,1,2,.73c.44.19.48.31.56.7l-.33-.54-.1.1a6.7,6.7,0,0,1-.86,2.84c.3.18.17.32,0,.48a.47.47,0,0,0-.22.61,12,12,0,0,0,.9-1.12,12.38,12.38,0,0,0,.62-1.3l.19.13c-.21.47-.39.92-.62,1.34a2.89,2.89,0,0,1-.46.52l-.26.27.05.1c.11,0,.25,0,.31-.1a7,7,0,0,0,.54-.73c.32-.48.6-1,.94-1.45a2.09,2.09,0,0,1,.53-.38l.07.1a.64.64,0,0,0-.16.11c-.07.09-.12.2-.18.3a1.38,1.38,0,0,1-.15.21,5.08,5.08,0,0,0-.51.54c-.21.3-.37.63-.57,1l.36.24c.06-.1.16-.19.16-.29a1.29,1.29,0,0,1,.47-.9c.31-.29.64-.57,1-.86a.28.28,0,0,0,.05-.22c0-.19,0-.26.21-.21a1.26,1.26,0,0,1,.41.21A13.12,13.12,0,0,1,47.15,18a13.36,13.36,0,0,1-2.08,9.88A12.81,12.81,0,0,1,42.78,30.52Zm-3-21-.44,1-.11,0,.43-1ZM44,30.64a1.31,1.31,0,0,0,.18.2l-.06.08a2.22,2.22,0,0,1-.41-.21.3.3,0,0,1,0-.47c.43-.51.85-1,1.29-1.55.05-.06.2,0,.31-.06l.34-.05-.24-.26,0,0a.7.7,0,0,1,.81.08L45,29.73c-.15.17-.31.34-.47.51s-.22.2-.4.09a.21.21,0,0,0-.19.08A.34.34,0,0,0,44,30.64Zm.61.16c.28-.39.58-.77.87-1.15.15-.19.3-.38.44-.57a1.38,1.38,0,0,0,.12-.26l.15.13L44.6,31.19C44.44,31.06,44.54,30.92,44.62,30.8ZM50,32.47l-.12-.06.66-1.32.09,0Zm1.12-1.09.63-1A1.13,1.13,0,0,1,51.13,31.38Zm3.81.89s-.1-.1-.09-.12.09-.08.13-.11l.22-.16c-.06-.06-.1-.14-.17-.18-.25-.12-.15-.35-.16-.53a.38.38,0,0,1,.2-.29,6,6,0,0,1,.78-.16,2.83,2.83,0,0,0-.52,1.39C55.26,32.36,55.14,32.4,54.93,32.28Zm2.33,3.19-.05-.05a7.07,7.07,0,0,0,.42-.72c.17-.39.29-.81.46-1.21s.3-.57.45-.85l.05,0c-.34.83-.67,1.66-1,2.48C57.51,35.27,57.36,35.36,57.26,35.46Zm.68-.43L57.85,35l.84-1.88.12.05A8.37,8.37,0,0,1,57.94,35ZM59,32.49l0-.25-1.52.39a1.46,1.46,0,0,1,0,.46c-.15.51-.33,1-.52,1.5-.06.15-.18.27-.25.41a.42.42,0,0,0-.05.29c.07.18,0,.23-.16.22a1.61,1.61,0,0,1-1.1-.41l.19-.19a3,3,0,0,0,.42.18.2.2,0,0,0,.17-.09.19.19,0,0,0-.06-.18c-.38-.15-.4-.42-.27-.75s.17-.47.28-.69.26-.46.59-.27c0,0,.16-.06.25-.1l-.16-.22-.2-.25-.34-.43-.48,1.25c0-.55.58-1.06,0-1.63A6.68,6.68,0,0,1,55.06,34c.12-.41.24-.82.35-1.24s.23-.85.34-1.28a.72.72,0,0,1,.41-.52,5.25,5.25,0,0,0,.65-.32c.38-.24.38-.5,0-.77l-.28-.18c0,.17.05.34,0,.43a.8.8,0,0,1-.41.3,8.7,8.7,0,0,1-1,.19c-.66.1-.83.34-.72,1a.83.83,0,0,1,0,.37c0,.09-.14.15-.21.22a5.71,5.71,0,0,0-.07-.76.67.67,0,0,1,.61-.93,7.09,7.09,0,0,0,.77-.08,2.35,2.35,0,0,0,.71-.32c.08-.05.09-.26.06-.39s-.14-.16-.26-.29c0,.59-.1.73-.61.79l-.6.06a.94.94,0,0,0-.9,1.17c-.15.05-.41.08-.42.15-.06.36.33.13.46.35a1.24,1.24,0,0,1-.34.1L51.68,32a.56.56,0,0,1-.17-.07.9.9,0,0,0,.09-.18c0-.11,0-.23.06-.35a.4.4,0,0,1,0-.14c.06-.09.13-.16.2-.25a.46.46,0,0,0-.14-.77c-.17-.11-.36-.18-.54-.27l-.55-.31c.13-.17.44-.31,0-.46,0,0,0-.11-.07-.23-.31.11-.61.2-.89.33a.35.35,0,0,0-.16.3c0,.08.17.16.28.19s.46.06.68.12a.84.84,0,0,1,.39.23.29.29,0,0,1-.17.51c-.26,0-.33.21-.42.43-.22.5-.52,1-.78,1.46-.07.12-.1.27-.18.39a1.82,1.82,0,0,1-.25.26L49,33.08l1.43-2.52c-.31-.07-.55-.28-.82-.1-.07,0-.1.17-.11.26s0,.24,0,.33c-.14.26-.32.5-.48.75a3.53,3.53,0,0,0-.41.74.89.89,0,0,0-.3.13s0,.17.05.32a1.49,1.49,0,0,1-.48,0c-.48-.19-1-.4-1.42-.64s-.78-.46-1.16-.7a1.35,1.35,0,0,1-.21-.21l.39-.17-.13-.28c.27-.48.53-1,.82-1.45.1-.17.14-.44.45-.39,0,0,.11-.09.12-.14.09-.32.15-.36.45-.2.6.33,1.19.67,1.79,1,.41.22.82.42,1.24.62a.51.51,0,0,0,.25.07,2.18,2.18,0,0,0,.37-.1c-.1-.11-.18-.27-.3-.33a2,2,0,0,0-.54-.08h-.14c-.23-.06-.49-.12-.52-.39s.21-.4.43-.47a7.25,7.25,0,0,1,1.12-.27A10.67,10.67,0,0,1,55.3,29a10.2,10.2,0,0,1,1.66.72.59.59,0,0,1,.28.79c-.16.43-.34.84-.51,1.26l-.1,0,.31-1,0,0-.31.33c-.09,0-.19-.1-.26-.08a.42.42,0,0,0-.28.63,1.16,1.16,0,0,0,.72.62A2.72,2.72,0,0,0,59,32a1.53,1.53,0,0,1-1.07-1c-.18-.44-.37-.87-.55-1.3l.08-.07.51.61a8.56,8.56,0,0,0,.8.9,1.78,1.78,0,0,0,.63.21,3.26,3.26,0,0,0,.17-.62,2.48,2.48,0,0,0-.63-1.66c-.32.36-.3.44.09.71a.19.19,0,0,1,.07.13,1.11,1.11,0,0,1,0,.43,1.92,1.92,0,0,1-.28.4c-.12-.12-.32-.23-.35-.36A1.7,1.7,0,0,0,57.06,29c-.87-.24-1.76-.37-2.65-.55a1.69,1.69,0,0,1,.44-.1c.69,0,1.38.06,2.07.09a3.18,3.18,0,0,0,.63,0c.43-.07.53-.38.25-.71a.48.48,0,0,1-.11-.18l.18.14a5.82,5.82,0,0,1,1.68,2.21,1.92,1.92,0,0,1-.24,1.89c-.05.07,0,.19-.06.27A1,1,0,0,1,59,32.49Zm-1.6-1.55c.39.06.71.78.48,1.07a.2.2,0,0,1-.16.08.23.23,0,0,1-.14-.14c0-.17,0-.34-.07-.51S57.45,31.11,57.41,30.93Zm1.89,2.21a.18.18,0,0,1-.06-.14.16.16,0,0,1,.11-.1c.11,0,.28.17.32-.06s-.1-.23-.19-.42a7.23,7.23,0,0,0,.42-1.29,7.25,7.25,0,0,0,0-1.38,2.7,2.7,0,0,1,.37,1.55,12,12,0,0,0-.36,1.64C59.83,33.28,59.54,33.36,59.3,33.14Zm1.16.19a.29.29,0,0,1-.43.08c.48-.29.53-.45.29-1-.16-.36-.1-.53.26-.67a.27.27,0,0,0,.19-.38c-.07-.25-.14-.5-.21-.76l.15,0,.4,1.28c-.58.22-.58.25-.54.83A1.34,1.34,0,0,1,60.46,33.34Zm4.37.68.07-.11.37.25C65,34.29,64.87,34.22,64.83,34Zm.39-.68c0,.11-.17.2-.26.3l-.09-.06c0-.15,0-.29.05-.44,0-.33.06-.67.1-1,0-.06.08-.12.13-.18s.18.11.18.16A11.4,11.4,0,0,1,65.22,33.34Zm2.2-.69a2.37,2.37,0,0,1-.33.67l-.15,0c.2-.8-.13-1.69.59-2.4l-.12,0-.23.11v-.33l-.06,0a1.88,1.88,0,0,0-.21.4,3.17,3.17,0,0,0-.06.57c0,.45-.06.9-.08,1.35a4.15,4.15,0,0,0,0,.49c0,.24-.16.26-.32.28s-.11-.05-.1-.07a.74.74,0,0,1,.09-.19l.21-.31L66.55,33l-.23.06a2.32,2.32,0,0,1,0-.31c0-.29,0-.58.07-.86,0-.1.12-.19.18-.29l.17-.24-.27-.15.08-.37c-.33.08-.64.14-.94.25-.1,0-.16.18-.25.27s-.16.14-.24.21L65,31.52l.15-.33c-.21-.08-.31,0-.36.19a1.58,1.58,0,0,0-.05.37c-.05.5-.11,1-.15,1.49s0,.7-.07,1.08a9.2,9.2,0,0,1-3.87-.64c0-.19.11-.27.3-.21s.14,0,.22-.07-.07-.19-.13-.21c-.37-.14-.22-.47-.26-.72s.12-.27.32-.3.14-.19.13-.28a3.38,3.38,0,0,0-.51-1.52l-.28-.44c.69.24,1.35.49,2,.7a6.88,6.88,0,0,0,3.59.24A1.85,1.85,0,0,0,67.46,30a.81.81,0,0,0-.4-1.14c-.29.37-.08.82-.24,1.23,0-.26-.05-.53-.06-.79s0-.29,0-.43a.74.74,0,0,0-.08-.23c-.07,0-.19.08-.21.14-.07.26-.1.53-.15.81l-.82.38c0-.32,0-.56,0-.8s0-.31,0-.46-.06-.1-.1-.15-.11.11-.11.16c0,.36-.07.72-.1,1.07h-.07V28.67c-.42.07-.62.4-.69,1a1.69,1.69,0,0,1,0-.44.93.93,0,0,1,.69-.78,2.52,2.52,0,0,1,2.17.37.91.91,0,0,1,.42.84C67.64,30.64,67.55,31.64,67.42,32.64Zm-3-2.67a1.76,1.76,0,0,0,2-.18l0,.12a2.83,2.83,0,0,0-.43.22,3.07,3.07,0,0,0-.34.35l-1-.26-.07.5h-.11Z"/><path d="M31.28,22.07a2.21,2.21,0,0,0,.45.1,2,2,0,0,1,1.15.56c.21.21.4.44.61.66a.8.8,0,0,0,1.34-.28,1.8,1.8,0,0,1,.39-.6c.32-.3.69-.54,1-.82a2.1,2.1,0,0,0,.26-.31c-.35.11-.58,0-.66-.31a1.15,1.15,0,0,1,0-.31,2.6,2.6,0,0,0-.35-1.32.41.41,0,0,1,0-.48,1,1,0,0,1,1.22-.36,10.05,10.05,0,0,0,1,.23,1.49,1.49,0,0,0,.37,0l-.3-1.4a.44.44,0,0,0,.28-.72l0,.44-.13-.32h0l-.05.42-.93-1,0-.05.74.71a6.28,6.28,0,0,0-.29-.64c-.17-.28-.41-.34-.87-.22l-.72.21c-.48.25-.22.59-.08.93a.41.41,0,0,1,0,.08,1.52,1.52,0,0,1-.31,1.41c-.15.16-.35.22-.5,0a1.71,1.71,0,0,0-1.42-.49,1,1,0,0,0-.83.42A5.27,5.27,0,0,1,31.27,20a.8.8,0,0,0-.4.72,5,5,0,0,1,0,.58C30.77,21.77,30.85,21.92,31.28,22.07Zm5-5.57c.29.23.56.48.84.73h0c.14.14.3.27.43.42a1.08,1.08,0,0,1,.18.74s0,.09-.07.15c-.28-.56-.6-.63-1.15-.31-.09.05-.24,0-.36,0a1,1,0,0,1,.09-.29,1.42,1.42,0,0,0,0-1.21c-.07-.1-.2-.15-.32-.29C36.1,16.46,36.24,16.44,36.32,16.5ZM34.8,22.64l.06.1-.75.48C34.37,23.07,34.37,22.57,34.8,22.64Zm-.68-4.17-.45.61C33.63,18.53,33.77,18.35,34.12,18.47ZM33,22l.43.22,1-.61c0,.38-.57.93-.8.86a3,3,0,0,1-.65-.37Zm-1.07-1.09c.06-.32.37-.48.72-.63l-.54,1.1.79.57c-.34,0-.54-.24-.77-.36S31.84,21.1,31.88,20.88Z"/><path d="M35.51,36.58a3.21,3.21,0,0,0,1.09-3.85c0-.09,0-.24.08-.35s.21-.41.29-.62a.25.25,0,0,0,0-.23c-.29-.2-.25-.53-.28-.79a.73.73,0,0,0-.35-.58,4.06,4.06,0,0,0-1.89-.52c-.63.11-1.27.19-1.89.34a.93.93,0,0,0-.79.91,1.14,1.14,0,0,1-.12.53.88.88,0,0,0,.08,1,.47.47,0,0,1,0,.36A2.93,2.93,0,0,0,32.24,36c.5.54,1.1,1,1.64,1.49a.36.36,0,0,0,.55,0C34.79,37.2,35.16,36.9,35.51,36.58Zm-3.25-6.19A5.26,5.26,0,0,1,33.37,30a4.7,4.7,0,0,1,2.34.08,1.65,1.65,0,0,1,.41.21c.27.19.26.44-.05.56a3.68,3.68,0,0,1-.67.14c-.16,0-.32,0-.48.08s-.24.13,0,.26c-.51.4-.67.72-.54,1l.79-.55-.21-.1.41-.14,1-.32a.79.79,0,0,1,.24,0,1.08,1.08,0,0,1-.09.24.93.93,0,0,1-.18.16l0,.08.36-.13a.79.79,0,0,1-.65.86,3.81,3.81,0,0,1-.85,0l-.59,0c.14.28.26.48.34.7s0,.22-.07.24a1,1,0,0,1-.94.09l-.08,0c-.5-.13-.5-.13-.15-.55a1.83,1.83,0,0,0,.31-.55.81.81,0,0,0-.62-1.15L32.57,31a1.15,1.15,0,0,1-.32-.12C32,30.72,32,30.5,32.25,30.39Zm-.57,1.38s.1-.1.16-.11a.81.81,0,0,1,.24,0l0-.06-.31-.33.07-.07,1.56.48v.08l-.53,0v.08c.17,0,.34,0,.51.08a.72.72,0,0,1,.2.13c-.05.06-.09.16-.15.19a5.61,5.61,0,0,1-1,.31A.75.75,0,0,1,31.69,31.77ZM34,37.19a6.13,6.13,0,0,1-1.75-1.89.74.74,0,0,1,.49-1.13L33.3,34c-.38-.19-.69,0-1.07.14l.17-.28-.49.09a.78.78,0,0,1,.61-1.09l.87-.2c-.11.18-.19.32-.28.45s-.12.42.18.51.41.14.63.2a.89.89,0,0,0,.34,0c.21,0,.41-.09.62-.12a.43.43,0,0,0,.32-.7L35,32.77h1a.24.24,0,0,1,.19.09c.12.27.22.55.33.85l-.23,0c-.14.2.2.53-.22.7.19.84-.38,1.38-.93,1.92-.28.27-.56.52-.84.8A.23.23,0,0,1,34,37.19Z"/><path d="M45.42,3h.09l.3,1.7,1.52-1,.08.07L46.26,6.37l.64.24,1.73-4.15-.06-.06L46.3,3.9,45.77,1.3h-.09L43.93,5.4l.45.17Z"/><path d="M14.38,10.22,13,7.83l0-.06,1.69.69.09-1.78.08,0,1.33,2.5.55-.36c-.12-.18-.21-.31-.29-.45L14.77,5.26c0-.08-.11-.16-.16-.24l-.06,0-.17,2.58-2.43-1-.05.06,2.05,3.75Z"/><path d="M26.61,4.63a1,1,0,0,0,1.31-.36c.07.18.13.31.17.45.29,1,0,1.45-1,1.56-.06,0-.12.08-.17.13s.12.13.17.13a1.48,1.48,0,0,0,1.56-1.82c-.2-.7-.44-1.39-.67-2.08-.07-.21-.3-.31-.42-.21a3.26,3.26,0,0,0-.27.29l.36.8a.54.54,0,0,1-.09.69.49.49,0,0,1-.68-.09,3.08,3.08,0,0,1-1-2.4A.79.79,0,0,1,27,.93l.35.12c0-.35,0-.45-.21-.49A1.58,1.58,0,0,0,25.26,2a3,3,0,0,0,.44,1.77A2.1,2.1,0,0,0,26.61,4.63Z"/><path d="M38,6.47a1.1,1.1,0,0,1-1.13-.89l-.06-.17-.5.34a2,2,0,0,0,1.82,1,1.63,1.63,0,0,0,1.49-1.1c.27-1.05.44-2.12.65-3.19a.6.6,0,0,0-.06-.28c0-.13-.07-.31-.29-.2s-.37.11-.23.38a.52.52,0,0,1,0,.3c-.06.38-.13.76-.22,1.13a.43.43,0,0,1-.24.26c-.39.12-.63-.08-.6-.49a1.77,1.77,0,0,1,0-.2c.07-.38.17-.75.2-1.14a1.47,1.47,0,0,0-.14-.5l-.41.14s-.06,0,0,0a6.08,6.08,0,0,1,0,.68c0,.31-.12.62-.16.94a.74.74,0,0,0,.79.9,3.77,3.77,0,0,0,.55-.1c-.12.49-.2.94-.35,1.37A1.05,1.05,0,0,1,38,6.47Z"/><path d="M33.84,4a.31.31,0,0,1,.28,0,.33.33,0,0,0,.53,0,1.54,1.54,0,0,1-.11-.39c0-1,0-2,0-2.94a1.2,1.2,0,0,0-.21-.53C34.27,0,34.14-.07,34,.09s-.23.25,0,.42a.37.37,0,0,1,.1.26c0,.27,0,.53,0,.84l-.2-.09a1.12,1.12,0,0,0-1.64.81,2.31,2.31,0,0,0-.07.66A1.17,1.17,0,0,0,33.84,4Zm-.77-2.16a.53.53,0,0,1,.6,0,.46.46,0,0,1,.32.48c0,.17,0,.35,0,.52s0,.33,0,.49,0,.38-.22.45a.76.76,0,0,1-.71,0A.92.92,0,0,1,32.68,3,1.19,1.19,0,0,1,33.07,1.83Z"/><path d="M33.24,13c-.1-.62.2-1.27-.27-1.85l.13,0,.23.64h0v-.35l.07,0c.09.23.28.49.24.7s.08.41.3.51.11.41.38.42v0h-.14l0,.58-.05,0-.3-.34-.09.07a2.24,2.24,0,0,0,.25.3c.28.24.55.05.78-.09a.43.43,0,0,0,.15-.35c0-.29-.29-.38-.51-.49a.77.77,0,0,1-.33-.3c-.08-.17-.16-.24-.31-.12l0-.49.18-.27.7.91a1,1,0,0,0,.07-.3,1.19,1.19,0,0,0-.68-1l-.37-.2a1.48,1.48,0,0,0-1.65.62l.42-.06-.54.31,0,.07.37-.14.15.22-.5.13.11.37-.13.09A2,2,0,0,0,33.24,13Z"/><path d="M35.16,2.16c0,.45,0,.91,0,1.36s.36.73.85.53a.58.58,0,0,1,.36,0c.21.07.41.15.63,0a2.13,2.13,0,0,0,.65-2.29.26.26,0,0,0-.48,0,.66.66,0,0,0-.07.16c.1.18.23.32.22.44a6.73,6.73,0,0,1-.14,1.06.67.67,0,0,1-.22.33c-.07.06-.19.06-.28.09a.94.94,0,0,1-.06-.26c0-.52.09-1,.1-1.56a1.53,1.53,0,0,0-.21-.53L36,1.75s0,0,0,0,.13.15.13.23c0,.54-.08,1.07-.14,1.6,0,.06-.16.15-.24.14s-.14-.12-.18-.21,0-.13,0-.2c0-.52.06-1,.06-1.56,0-.15-.07-.37-.28-.31s-.4.12-.25.41A.56.56,0,0,1,35.16,2.16Z"/><path d="M50.6,8.15c-.08.16-.13.29-.2.42-.44.83-.65.93-1.56.72,0,0-.14,0-.14,0s0,.15,0,.16a2.41,2.41,0,0,0,.6.25A1.28,1.28,0,0,0,50.68,9c.44-.68.84-1.38,1.24-2.08A.91.91,0,0,0,52,6.05l-.46.1c0,.12.06.23,0,.3a12.28,12.28,0,0,1-.79,1.34c-.07.1-.4.1-.55,0s0-.28,0-.41c.19-.42.41-.83.6-1.25a1.14,1.14,0,0,0,.07-.42c0-.13,0-.3-.21-.25s-.32,0-.32.28a1.08,1.08,0,0,1-.14.48c-.12.24-.28.46-.42.69A.76.76,0,0,0,50.6,8.15Z"/><path d="M21.7,5.89A1.07,1.07,0,0,0,22.89,6a1.06,1.06,0,0,0,.47-.94,1.91,1.91,0,0,0-.61-1.46,1.13,1.13,0,0,0-1.1-.26,1,1,0,0,0-.65.82A1.87,1.87,0,0,0,21.7,5.89Zm.1-2.18a.6.6,0,0,1,.5.15,2.24,2.24,0,0,1,.58,1.5.49.49,0,0,1-.24.4.62.62,0,0,1-.51-.14,2.22,2.22,0,0,1-.63-1.56C21.56,4,21.65,3.75,21.8,3.7Z"/><path d="M29.25,4.34a.94.94,0,0,0,1.13-.22,1.54,1.54,0,0,0,.36-1l.07,0a5.75,5.75,0,0,0-.42-1,1,1,0,0,0-1.47-.16A1.53,1.53,0,0,0,29.25,4.34Zm-.18-2A.66.66,0,0,1,29.46,2a.37.37,0,0,1,.46.26c.13.35.22.71.3,1a4.57,4.57,0,0,1-.12.53.41.41,0,0,1-.72.13A1.63,1.63,0,0,1,29.07,2.36Z"/><path d="M41,4.77c.12-.62.22-1.2.34-1.77a.43.43,0,0,1,.12-.25.45.45,0,0,1,.32-.09c.07,0,.15.16.17.25a1.64,1.64,0,0,1,0,.49c-.07.37-.16.73-.23,1.1,0,.12,0,.29,0,.36a1.19,1.19,0,0,0,.41.17c0-.09.06-.19.07-.28s0-.19,0-.28c.1-.52.21-1,.29-1.56s-.16-.68-.61-.65c-.1,0-.2.06-.31.07s-.18,0-.19,0c-.1-.22-.23-.17-.4-.1s-.23.19-.13.36a.23.23,0,0,1,0,.14l-.41,2Z"/><path d="M49.46,5.19a.44.44,0,0,1-.22.53.83.83,0,0,0-.86-.29,1,1,0,0,0-.74.89.9.9,0,0,0,.63.9,2.67,2.67,0,0,1,.45.18c.21.1.42.2.65-.07-.29-.07-.16-.22-.1-.37.2-.46.4-.92.58-1.38.09-.23.18-.54-.07-.69a2.54,2.54,0,0,0-.89-.24c-.07,0-.18.16-.29.28C48.94,5,49.31,4.84,49.46,5.19Zm-.44,1a2.61,2.61,0,0,1-.31.64.42.42,0,0,1-.36.12c-.1,0-.17-.18-.2-.22a.87.87,0,0,1,.48-.86.47.47,0,0,1,.35,0A.31.31,0,0,1,49,6.15Z"/><path d="M16.31,34a1.52,1.52,0,0,0-1.49,1.56A1.48,1.48,0,0,0,16.27,37a1.53,1.53,0,0,0,1.51-1.59A1.43,1.43,0,0,0,16.31,34Zm0,2.65a1.15,1.15,0,0,1,.08-2.3,1.08,1.08,0,0,1,1,1.15A1.13,1.13,0,0,1,16.28,36.64Z"/><path d="M52,9.34a1.05,1.05,0,0,0,1.12.08s.1,0,.13-.06a1.78,1.78,0,0,0,.13-.25c-.42.09-.84.35-1.12,0s0-.71.17-1l.1,0,.71.39c.48.27.54.25.74-.27l0-.14A.85.85,0,0,0,53,6.91a1.65,1.65,0,0,0-1.18,1.3A1.06,1.06,0,0,0,52,9.34ZM53.23,7.2a.38.38,0,0,1,.31.13c.18.3,0,.56-.12.86l-.79-.41C52.76,7.48,52.91,7.24,53.23,7.2Z"/><path d="M39.37,20a2.24,2.24,0,0,1-.26,1.21l.13.55-.07,0-.26-.24,0,0,.73,1.52.06,0,0-.27h0s.12,0,.12,0a1.75,1.75,0,0,1,0,.25h.09a.84.84,0,0,0-.22-.9v.63l-.19-.86-.05.06v-.6l.37.18-.24-.78,0,0,.22.31.07-.07-.2-.49.46.23c0-.11-.06-.2-.09-.2-.27,0-.36-.19-.39-.46s0-.27.22-.28l-.23-.7a3.13,3.13,0,0,1,0-.35.87.87,0,0,1,.11-.28s.13,0,.18,0c.35.21.4.36.29.76-.06.23-.05.42.21.5l.24-.2.07.1-.58.34.43-.07-.06.17.57-.16-.08-.24.06,0,.2.16.09,0c-.39-.28,0-.62-.12-1l-.22.4-.08,0,.08-.28H41l-.08-.32c-.57.16-.77-.3-1-.76a5.81,5.81,0,0,0-.42.74.69.69,0,0,0,0,.49.73.73,0,0,1,0,.6A1,1,0,0,0,39.37,20Z"/><path d="M17.79,8.19a1,1,0,0,0,.63-.9c0-.1-.07-.21-.1-.32l-.11,0,0,.22c0,.25-.06.53-.37.63s-.5-.13-.69-.3A1.08,1.08,0,0,1,17,7.4c-.12-.16-.12-.29.08-.39s.52-.28.78-.44c.07,0,.16-.16.15-.23a1.07,1.07,0,0,0-1-.76.9.9,0,0,0-.84.81,1.84,1.84,0,0,0,.61,1.55A.92.92,0,0,0,17.79,8.19ZM16.55,6.28a.48.48,0,0,1,.23-.36c.09,0,.27,0,.37.13a2.62,2.62,0,0,1,.34.42,3,3,0,0,1-.34.21c-.14.06-.29.1-.44.14A1.91,1.91,0,0,1,16.55,6.28Z"/><path d="M33.05,27.2a.47.47,0,0,0,0,.43,3.12,3.12,0,0,0,.46.51c-.06.23-.14.46-.19.7s0,.32.23.33.18-.15.2-.29,0-.38.07-.56a4.38,4.38,0,0,1,.14.6c0,.09.15.21.23.2s.18-.12.23-.22a.85.85,0,0,0,0-.34c0-.13,0-.26,0-.46a.84.84,0,0,1,.22.69,1.54,1.54,0,0,0,.12.42.33.33,0,0,0,.17,0,1.26,1.26,0,0,0,0-.46,3.2,3.2,0,0,0-.21-.52,4,4,0,0,0,.46-.62c0-.1,0-.27-.07-.41a2.15,2.15,0,0,0-.38.21,1.14,1.14,0,0,0-.19.28.17.17,0,0,1,0-.14c0-.21,0-.41-.26-.43s-.31.19-.33.38a4.36,4.36,0,0,0,0,.52,6.5,6.5,0,0,0-.4-.75A.28.28,0,0,0,33.05,27.2Zm1.11,0c.15.15.15.15-.06.59Zm-.71.53a3,3,0,0,1-.31-.33s.06-.09.1-.14l.37.32Z"/><path d="M55.62,21.49V19.34c-.4-.12-.51-.07-.69.29s-.24.46-.39.75c-.15-.32-.28-.55-.38-.8a.43.43,0,0,0-.6-.26,6.32,6.32,0,0,1,0,2.17h.38V20.17l.53,1,.65-1.29.09,0-.07,1.61Z"/><path d="M31.13,3.62a.57.57,0,0,0,.33.56c.11,0,.28,0,.41-.09s0-.16,0-.18c-.19-.14-.18-.34-.19-.55,0-1-.09-1.94-.13-2.91A.49.49,0,0,0,31.22,0c-.18,0-.38.3-.34.43a2.36,2.36,0,0,1,.16.62C31.09,1.91,31.1,2.76,31.13,3.62Z"/><path d="M58.84,20.79c0-.22.16-.27.32-.17a1.48,1.48,0,0,1,.35.37c.1.13.16.29.27.41a.37.37,0,0,0,.5.08l-.6-.95a.75.75,0,0,1,.11-.09.52.52,0,0,0,.24-.62.51.51,0,0,0-.45-.43c-.38-.05-.77-.05-1.16-.07v2.21h.43C58.84,21.25,58.83,21,58.84,20.79Zm0-1c0-.11.07-.32.1-.32a.89.89,0,0,1,.48.11.44.44,0,0,1,.13.37c0,.28-.26.36-.71.31A4.14,4.14,0,0,1,58.87,19.84Z"/><path d="M30.52,16.58l.06-.05.48.39L31,17l-.23-.06,0,.06.55.63H31v.06l1.14.3c.21-.51-.34-.56-.51-.85a.93.93,0,0,1,.32.13,3.21,3.21,0,0,1,.3.26l-.09-.27h.49l0,.32c.5-.19.5-.19,1.46-.1l-.6-.28.13-.16-.46-.18.26-.08,0-.07c-.16.05-.38.06-.47.17a.49.49,0,0,1-.62.19,2.23,2.23,0,0,0-.5-.11.76.76,0,0,0-.41,0c-.17.09-.22,0-.31-.1a3,3,0,0,0-.39-.46.3.3,0,0,0-.5,0l.18.31-.05,0-.22-.17c-.06.19-.13.35-.16.51s.06.34.29.36l-.14-.37.47-.21Z"/><path d="M11.93,21.26a1.06,1.06,0,0,0,.57-1,.93.93,0,0,0-.52-.9,2.9,2.9,0,0,0-1.42-.14v2.22A2.33,2.33,0,0,0,11.93,21.26Zm-.93-1h0c0-.21,0-.42,0-.63s.06-.26.25-.25a.86.86,0,0,1,.84.89.94.94,0,0,1-.9.94A.29.29,0,0,1,11,21,7.46,7.46,0,0,1,11,20.3Z"/><path d="M6.76,20.86a1.45,1.45,0,0,1,.12-.36,1.33,1.33,0,0,1,.33.24c.15.2.24.44.39.64s.35.22.51,0l-.62-.93.07-.08a.69.69,0,0,0,.31-.74.61.61,0,0,0-.63-.46c-.28,0-.55,0-.84,0v2.21h.39A4.19,4.19,0,0,1,6.76,20.86Zm0-1.46a2.45,2.45,0,0,1,.46.06.36.36,0,0,1,.21.56.47.47,0,0,1-.58.21.23.23,0,0,1-.09-.16C6.77,19.86,6.78,19.66,6.78,19.4Z"/><path d="M18.26,5.63,18.89,7a.43.43,0,0,0,.48.29.47.47,0,0,0,.39-.39c-.16-.06-.36-.07-.41-.16-.29-.57-.55-1.16-.79-1.68l.26-.35-.49-.12L18,4l-.37,1.42.41-.15Z"/><path d="M20.83,6.63a5.41,5.41,0,0,1-.75-2.07l.05,0c.15.19.35.19.46,0a.55.55,0,0,0,0-.47c-.1-.19-.32-.16-.48-.05s-.15.19-.24.28-.15.14-.19.12c-.38-.15-.38.15-.44.32a5.58,5.58,0,0,1,1,2.07Z"/><path d="M53.93,10.47c.34-.57.65-1.09,1-1.61a.62.62,0,0,1,.23-.17c.14.21.21.41.35.48s.35,0,.42-.24a.34.34,0,0,0-.19-.45,3.83,3.83,0,0,0-.61-.15c0-.16-.12-.3-.36-.25s-.17.23-.2.38a.72.72,0,0,1-.1.23l-1,1.52Z"/><path d="M61.07,21a1.18,1.18,0,0,1,.18-.33,1.65,1.65,0,0,1,.26.24c.12.17.2.37.33.53a.31.31,0,0,0,.46.09c-.14-.27-.27-.51-.4-.75a1.16,1.16,0,0,0-.25-.35.24.24,0,0,1-.05-.37l.45-.67c-.19-.08-.29,0-.38.15s-.34.54-.51.81l-.08,0v-.91h-.41v2.17l.4,0A3.26,3.26,0,0,1,61.07,21Z"/><path d="M34.61,14.1c-.28,0-.57-.09-.72.26l.18.2a.53.53,0,0,1,.05.12s.07-.09.11-.1a.93.93,0,0,1,.23,0c.06.33.36.44.57.62l.54.43a1.1,1.1,0,0,1-1.11-.38c.11.2.22.44.4.5.44.14.91.47,1.34-.05.17.18.32.36.65.18l-.55-.61c-.3.12.07.18,0,.28l-.25.09c-.26.1-.34,0-.32-.23a.52.52,0,0,0-.25-.51L35,14.52C34.61,14.6,34.48,14.5,34.61,14.1Z"/><path d="M32,14.64l1,.53c-.5-.11-.9-.49-1.43-.47.42.26,1,.25,1.22.81a2.86,2.86,0,0,0-1.09-.59l.84.62c.08.06.19.17.26.15s.14-.15.23-.27l.53.39-.39.2a2.59,2.59,0,0,1,1.67,1c.13-.14.12-.14-.27-.51-.17-.16-.32-.35-.48-.53l.08-.09.8.53,0,0L34.56,16c.19-.36-.24-.44-.27-.7l-.07,0,.14.38-.19-.14L34,15.43c0,.06-.08.12-.13.14s-.13,0-.19,0a.35.35,0,0,1-.52-.28.34.34,0,0,0-.14-.2c-.34-.19-.68-.37-1-.55Z"/><path d="M56.52,21.17c.14-.48.16-.48.56-.49a.28.28,0,0,1,.32.22l.19.61h.49l-.89-2.39h-.12l-1,2.4h.32C56.47,21.39,56.49,21.28,56.52,21.17ZM57,19.91H57l.21.54h-.44Z"/><path d="M30.23,29.18c-.11,0-.17.22-.25.34.12,0,.26.15.37.13a5.67,5.67,0,0,0,.73-.23c0,.23.08.48.14.71,0,.07.13.13.19.19a1.15,1.15,0,0,0,.19-.24.82.82,0,0,0,0-.26l.1-1.27c-.33-.09-.7-.31-1.11-.08-.1.05-.16.18-.24.27.1.07.2.17.3.19a5.06,5.06,0,0,0,.67,0V29l-.54.07A2.38,2.38,0,0,0,30.23,29.18Zm.05.32,0-.14.52-.11,0,.12Zm.4-.79v-.09h.7v.09Z"/><path d="M9,20.69c.16,0,.42-.06.5,0a3.17,3.17,0,0,1,.35.73h.44l-1-2.33H9.16L8.3,21.43h.29C8.72,21.16,8.59,20.79,9,20.69Zm.15-.81h.07l.2.56H8.93Z"/><path d="M41.5,32.71a.85.85,0,0,0-.41.25c-.26.35-.47.73-.7,1.09.32.22.59.44.89.61a2,2,0,0,0,.65.2c.1,0,.22-.07.34-.11,0-.11,0-.26-.13-.33-.29-.24-.6-.46-.91-.69.14-.19.34-.42.51-.68.05-.07.09-.23.05-.27A.32.32,0,0,0,41.5,32.71Zm.14,1.62c-.26.12-.53,0-.79-.26C41.27,34,41.49,34,41.64,34.33Zm-.69-.67-.07-.06a1.23,1.23,0,0,1,.65-.73l.08.07Z"/><path d="M14.55,19.48l0-.07c-.07-.06-.13-.17-.2-.17-.42,0-.84,0-1.27,0v2.24c.42,0,.87,0,1.32,0,.07,0,.14-.13.21-.2l-.07-.06c-.28,0-.57.06-.85.07-.07,0-.2-.08-.2-.13,0-.26,0-.52,0-.8l.59.05c0-.29-.12-.31-.3-.28s-.33-.07-.31-.3,0-.24,0-.4Z"/><path d="M42.48,32.61c-.35.36-.67.74-1,1.1.31.22.55.41.81.57a3.39,3.39,0,0,0,.71.3c.07,0,.18-.07.28-.11a.77.77,0,0,0-.11-.24c-.23-.23-.48-.44-.74-.68.19-.22.38-.43.56-.66.06-.07.12-.22.09-.26a.4.4,0,0,0-.28-.13A.47.47,0,0,0,42.48,32.61ZM42.73,34c-.39.18-.56-.15-.78-.28A.74.74,0,0,1,42.73,34Zm-.61-.67c.16-.5.43-.71.8-.68Z"/><path d="M27.27,33c-.11-.08-.33,0-.51,0a1.55,1.55,0,0,0,.06.53,2.79,2.79,0,0,0,.43.52l-.83.63c-.05,0-.11.14-.1.18s.12.16.18.15a1.47,1.47,0,0,0,.58-.09c.37-.18.71-.41,1-.61a6.24,6.24,0,0,0-.35-.7A2.25,2.25,0,0,0,27.27,33Zm-.37.28s0-.13.07-.21l.11,0a3.33,3.33,0,0,1,.51.53c.09.14-.08.25-.2.17A2.64,2.64,0,0,1,26.9,33.25Zm-.19,1.54,0-.08c.33-.26.63-.58,1.11-.55l0,.1Z"/><path d="M40.2,33.1a1.25,1.25,0,0,0-.54.91c0,.2-.21.45-.14.59s.35.24.55.32a3.73,3.73,0,0,0,.73.22c.1,0,.22-.08.33-.13,0-.12-.07-.28-.15-.34-.27-.18-.57-.33-.86-.5.13-.24.29-.52.42-.81,0-.08,0-.21,0-.32A.87.87,0,0,0,40.2,33.1Zm.34,1.5c-.26.21-.48.18-.74-.1A.71.71,0,0,1,40.54,34.59ZM40,34l-.08-.05c.06-.29.15-.57.51-.67Z"/><path d="M45.25,36.74c-.22-.13-.45-.24-.71-.37a6.57,6.57,0,0,0,.48-.64.38.38,0,0,0,0-.34c0-.06-.21-.06-.3,0a.69.69,0,0,0-.32.23,9.49,9.49,0,0,0-.52.87.25.25,0,0,0,.05.22,3.08,3.08,0,0,0,.43.38.94.94,0,0,0,.86.12c.1,0,.17-.13.26-.2A1.11,1.11,0,0,0,45.25,36.74Zm-.37-1.19c-.06.29-.27.43-.54.56C44.42,35.72,44.57,35.56,44.88,35.55Zm-.69,1.11,0-.1.55.14C44.47,36.91,44.32,36.84,44.19,36.66Z"/><path d="M44.06,32.56a.66.66,0,0,0-.65.22c-.23.23-.44.48-.67.74a1.94,1.94,0,0,0,1.42.94.92.92,0,0,0,.33-.12,1,1,0,0,0-.15-.26c-.24-.22-.49-.42-.76-.64.2-.17.39-.34.58-.52s.12-.16.1-.21A.34.34,0,0,0,44.06,32.56Zm.12,1.73-1.06-.52C43.44,33.59,43.79,33.76,44.18,34.29Zm-.88-1A.83.83,0,0,1,44,32.7l0,.07Z"/><path d="M24.08,35.87a1.9,1.9,0,0,0-.47-.45.3.3,0,0,0-.29,0,.32.32,0,0,0-.06.28,2.18,2.18,0,0,0,.22.43c.06.1.13.2.19.28a3,3,0,0,0-.56.35.55.55,0,0,0-.18.43c.07.22.31.18.47.1.38-.19.75-.42,1.09-.62A7.27,7.27,0,0,0,24.08,35.87Zm-.59-.23.08-.05.46.58C23.66,36.17,23.44,35.92,23.5,35.63ZM23.32,37a.63.63,0,0,1,.88-.35Z"/><path d="M39.43,33.66c-.12,0-.26,0-.34.07a.91.91,0,0,0-.28.36c-.14.34-.26.69-.39,1.06a8.77,8.77,0,0,0,.86.32,1.28,1.28,0,0,0,.54,0c.09,0,.22-.12.22-.19a.35.35,0,0,0-.17-.26c-.24-.11-.49-.19-.73-.27.11-.24.25-.5.35-.76C39.51,33.89,39.45,33.77,39.43,33.66Zm0,1.62-.7-.15A.39.39,0,0,1,39.44,35.29Zm-.51-.71-.1-.05.32-.66.15.07Z"/><path d="M42.56,36.66a3.94,3.94,0,0,0,.33-.45A1.75,1.75,0,0,0,43,35.8a3.73,3.73,0,0,0-.45.1c-.06,0-.12.1-.16.16l-.43.71a5.69,5.69,0,0,0,.54.62,1.85,1.85,0,0,0,.56.29c.06,0,.19,0,.23-.11s0-.16-.08-.22C43,37.14,42.8,36.92,42.56,36.66Z"/><path d="M28.94,32.19a.39.39,0,0,0,.1.35c.05,0,.24,0,.33-.06a5,5,0,0,0,.48-.4,8.34,8.34,0,0,0,.47.7c.11.13.31.2.42,0a.48.48,0,0,0,0-.43c-.23-.33-.5-.63-.77-1a4.93,4.93,0,0,0-.64.35A1.09,1.09,0,0,0,28.94,32.19Zm.89-.46-.66.73A.74.74,0,0,1,29.83,31.74Z"/><path d="M39.34,24l.15.47.07,0-.14-.6a.5.5,0,0,0-.35-.44.28.28,0,0,1-.17-.45s0-.1,0-.15l0,0-.2.29,0,0,.24-.75h-.1l-.05.1c-.18.29-.09.81-.66.78,0,0,0,.06,0,.06-.19.08-.31.3-.57.26s-.32,0-.19.21c0,0,0,.08-.12.2l.41-.09-.07-.19.07,0c.49.33.46,1,.76,1.42a7.25,7.25,0,0,0-.2-.78c-.07-.26-.28-.49-.2-.77l.1,0,.41,1,.07,0c-.07-.24-.13-.48-.22-.71s-.08-.33.07-.44.33,0,.44.11.32.49.48.75Z"/><path d="M5,19.47v1.94h.43v-2H6l0-.08c-.08-.05-.15-.15-.23-.16-.37,0-.75,0-1.12,0-.08,0-.15.12-.22.18l.05.06Z"/><path d="M31.58,27.8a1,1,0,0,0-.35.1c0,.11,0,.26.12.31a5.22,5.22,0,0,0,.65.3,5.11,5.11,0,0,0-.2.69c-.06.37.06.61.25.62s.35-.23.39-.56l.12-.88L31.9,28C31.79,27.92,31.7,27.81,31.58,27.8Zm.81.77-.22.7C32,28.95,32,28.76,32.39,28.57Z"/><path d="M25.77,32.83c-.22,0-.32.11-.22.3a2,2,0,0,0,.35.41,2.54,2.54,0,0,0,.28.22c-.24.17-.47.32-.68.48a.81.81,0,0,0-.14.25c.1,0,.21.1.3.09A2.86,2.86,0,0,0,26.91,34l-.46-.75A.85.85,0,0,0,25.77,32.83Zm0,.24c.27-.05.46.07.66.43A.64.64,0,0,1,25.75,33.07Zm0,1.34-.07-.11.72-.41,0,.08Z"/><path d="M29.8,36a.49.49,0,0,0,.28,0l1-.18c0-.28-.07-.59-.13-.89a1.16,1.16,0,0,0-.22-.45.32.32,0,0,0-.3-.09.34.34,0,0,0-.13.28,5,5,0,0,0,.13.63c-.22.07-.46.13-.67.23s-.19.17-.17.22A.53.53,0,0,0,29.8,36Zm.77-1.43.24.52-.11.06c-.23-.09-.24-.3-.26-.5Zm-.54,1h.58v.09H30Z"/><path d="M25.12,36a.83.83,0,0,0-.32-.32,1.17,1.17,0,0,0-.45,0,1.22,1.22,0,0,0,.06.42,3.65,3.65,0,0,0,.4.51,3.08,3.08,0,0,0-.27.2,1.25,1.25,0,0,0-.3.34.39.39,0,0,0,0,.36.44.44,0,0,0,.37,0,.83.83,0,0,0,.29-.23l.6-.64C25.39,36.49,25.26,36.26,25.12,36Zm-.55.05a.19.19,0,0,1,0-.18.18.18,0,0,1,.17,0c.12.13.22.27.37.46A.47.47,0,0,1,24.57,36.1Zm0,1.17-.11-.15.62-.41.08.12Z"/><path d="M43.48,36.54c.11-.14.24-.27.34-.42s.26-.34.07-.47-.32.06-.48.11a.18.18,0,0,0-.08.08c-.16.25-.32.5-.47.76a.21.21,0,0,0,0,.2c.25.23.5.45.77.66a.65.65,0,0,0,.35.1.28.28,0,0,0,.2-.12s0-.14-.08-.19C43.94,37,43.72,36.79,43.48,36.54Zm.24-.72.07.08-.44.42-.06-.06A.48.48,0,0,1,43.72,35.82ZM43.63,37c-.23.06-.27,0-.42-.31l.45.22Z"/><path d="M29.15,31.32a.25.25,0,0,0,.2.12,1.23,1.23,0,0,0,.39-.15,3.35,3.35,0,0,0,.36-.27c.09.27.15.51.25.73s.19.38.42.3.18-.33.14-.52a.79.79,0,0,0-.08-.19l-.41-.83a6.91,6.91,0,0,0-.66.23,3.1,3.1,0,0,0-.56.34A.24.24,0,0,0,29.15,31.32Zm1.31-.39.08.48-.14,0-.06-.49Zm-.56-.08,0,.07-.5.34-.07-.11Z"/><path d="M28.62,33.44a.57.57,0,0,0-.46-.12c-.2.08-.14.3-.06.46a6.32,6.32,0,0,0,.36.57c-.27.15-.54.28-.8.45s-.17.31,0,.35a1.26,1.26,0,0,0,.63-.06,6.13,6.13,0,0,0,.75-.38c-.07-.27-.14-.56-.23-.84A.88.88,0,0,0,28.62,33.44Zm-.35,0c.27,0,.43.23.46.59A.48.48,0,0,1,28.27,33.48ZM27.81,35a.81.81,0,0,1,1-.32Z"/><path d="M24.86,32.77c-.1-.07-.3,0-.45,0a1.15,1.15,0,0,0,.1.41,3.15,3.15,0,0,0,.43.42l-.76.64c.73.39,1.09-.18,1.57-.47-.12-.17-.21-.31-.31-.43A3.77,3.77,0,0,0,24.86,32.77Zm-.23.15.07-.08.54.46C24.83,33.37,24.63,33.22,24.63,32.92Zm0,1.3-.06-.14.77-.36.06.12Z"/><path d="M39.41,37.46c-.14-.13-.37-.25-.39-.39s.22-.28.32-.43.11-.23.07-.28-.21-.16-.28-.13a1,1,0,0,0-.41.32,5.22,5.22,0,0,0-.34.72c.23.2.45.4.69.58a1.11,1.11,0,0,0,.38.2.3.3,0,0,0,.27-.08.32.32,0,0,0,0-.27A1.41,1.41,0,0,0,39.41,37.46Zm-.62-.76.32-.33.1.1-.32.32Z"/><path d="M28.56,35.37c.11.05.24.17.34.15.42-.08.83-.2,1.26-.3-.12-.34-.22-.64-.35-.92a1.22,1.22,0,0,0-.28-.39.3.3,0,0,0-.28,0,.3.3,0,0,0-.11.26c.06.24.15.47.24.72a3.65,3.65,0,0,0-.58.22C28.7,35.12,28.64,35.27,28.56,35.37Zm.73-1.31.12-.05a.58.58,0,0,1,.24.6l-.11,0Zm.46.94,0,.14-.77.13,0-.14Z"/><path d="M22.93,35.32c-.12-.27-.39-.43-.53-.32s-.1.4,0,.6.23.37.36.58a2.86,2.86,0,0,0-.51.2.33.33,0,0,0-.14.27c0,.08.17.14.27.16a.53.53,0,0,0,.3-.06c.24-.12.46-.26.67-.38C23.2,36,23.08,35.66,22.93,35.32Zm-.24.47-.25-.57C22.77,35.26,22.87,35.46,22.69,35.79Z"/><path d="M40,37c0-.16.21-.31.31-.48a.85.85,0,0,0,.06-.27c-.1,0-.21-.08-.29,0a1.12,1.12,0,0,0-.4.27,5.2,5.2,0,0,0-.38.53c.25.28.46.53.7.75s.34.27.5.09,0-.31-.12-.44S40,37.12,40,37Z"/><path d="M45.61,36c.11-.23.22-.43.31-.64s0-.17,0-.26-.19,0-.24,0a2.7,2.7,0,0,0-.39.48c-.14.23-.24.47-.38.74a1.34,1.34,0,0,0,1.17.3c.09,0,.16-.12.23-.19a.93.93,0,0,0-.18-.21C46,36.15,45.79,36.07,45.61,36Zm0,.41-.5-.06,0-.14.5.07Z"/><path d="M36.4,25.29l0,0-.6-1.14-.08.29-.22-.53h-.09a1.27,1.27,0,0,0,0,.22c0,.23,0,.46,0,.69a.25.25,0,0,0,.05.16,1.19,1.19,0,0,1,.24,1.16c0,.25-.09.5-.14.75h.08c.07-.36.17-.72.22-1.09a1.07,1.07,0,0,0-.26-.94c-.07-.07,0-.23-.05-.35.28.55.67,1.07.41,1.74H36l.14-.71h.08l-.06.71c.31-.48.29-.67,0-1.06a2.94,2.94,0,0,1-.27-.47l.06,0Z"/><path d="M30.71,33.75c0-.15,0-.33-.1-.43-.25-.32-.54-.62-.85-1a6.55,6.55,0,0,0-.51.49,1.05,1.05,0,0,0-.22.43c0,.09.06.21.1.31a.86.86,0,0,0,.27-.11,5.26,5.26,0,0,0,.38-.43,4.33,4.33,0,0,0,.49.6C30.37,33.73,30.56,33.72,30.71,33.75Zm-1.38-.38-.12-.09.35-.48.12.08Z"/><path d="M23.28,32.65c-.13.24,0,.4.2.55s.28.22.44.36a5,5,0,0,0-.64.29c-.09.05-.11.2-.17.3s.19.13.29.13a1.23,1.23,0,0,0,.49-.14c.26-.15.49-.33.76-.51-.27-.3-.51-.59-.77-.86S23.36,32.5,23.28,32.65Zm.92,1.15-.74.31L23.39,34l.75-.29Zm-.38-.54-.47-.43c.31-.07.45,0,.54.35Z"/><path d="M42,36.3a1.08,1.08,0,0,0,0-.39,1.33,1.33,0,0,0-.4.07.78.78,0,0,0-.24.28c-.13.2-.25.41-.37.62a7.4,7.4,0,0,0,.67.69,1.31,1.31,0,0,0,.49.13,1.27,1.27,0,0,0-.13-.48C41.75,36.79,41.75,36.81,42,36.3Zm-.41.21-.11-.09.33-.39.11.09Z"/><path d="M27,36.33a1.86,1.86,0,0,0-.36-.46c-.07-.06-.23,0-.34,0a1,1,0,0,0,.06.34c.13.22.29.42.43.63-.16.14-.3.24-.43.36s-.32.51-.19.63.39,0,.61-.24.34-.43.51-.65C27.19,36.72,27.11,36.52,27,36.33Zm-.51-.25c.29.07.33.13.35.49Zm0,1.36-.09-.1.44-.37.08.08Z"/><path d="M26.19,36.26a1.91,1.91,0,0,0-.42-.42c-.1-.06-.26,0-.39,0a.89.89,0,0,0,0,.34,6.28,6.28,0,0,0,.42.56,5.51,5.51,0,0,0-.48.59c-.05.08,0,.24,0,.36a3.56,3.56,0,0,0,.4-.07s.07-.09.1-.13l.64-.74C26.41,36.58,26.31,36.41,26.19,36.26Zm-.54-.34.62.61A.54.54,0,0,1,25.64,35.91Zm0,1.41-.09-.09.48-.4.07.08Z"/><path d="M27.78,36.38a.81.81,0,0,0-.23-.29.93.93,0,0,0-.35-.05c0,.11-.05.25,0,.34a5.11,5.11,0,0,0,.44.56,3.09,3.09,0,0,0-.43.41,1.06,1.06,0,0,0-.09.39,3,3,0,0,0,.45,0c.06,0,.11-.1.16-.16l.41-.53C28,36.81,27.91,36.59,27.78,36.38Z"/><path d="M40.82,36.86a3.1,3.1,0,0,0,.32-.43,1.15,1.15,0,0,0,.06-.37c-.12,0-.29,0-.36.09-.22.25-.41.54-.63.83.24.24.44.44.65.63a.93.93,0,0,0,.32.19.25.25,0,0,0,.23,0,.24.24,0,0,0,0-.23C41.22,37.31,41,37.1,40.82,36.86Z"/><path d="M37.67,34.85c-.08.29-.12.59-.17.88.25.06.46.13.68.16a2.57,2.57,0,0,0,.65,0c.09,0,.17-.14.25-.22a1.1,1.1,0,0,0-.25-.2c-.23-.09-.47-.16-.7-.24a3.8,3.8,0,0,0,.13-.49,1,1,0,0,0,0-.31.87.87,0,0,0-.31.08A.64.64,0,0,0,37.67,34.85Zm1.09.84,0,.1-.86-.14v-.1C38.21,35.4,38.49,35.57,38.76,35.69Zm-.78-1,.09,0-.21.58-.12-.05Z"/><path d="M38.77,30.76,38,30.44c-.15.38-.3.73-.41,1.09,0,.11.07.25.1.38.12-.07.29-.11.36-.22a3.21,3.21,0,0,0,.25-.59,1.81,1.81,0,0,0,.41.26,1.49,1.49,0,0,0,.45,0A3.12,3.12,0,0,0,39,30.9.4.4,0,0,0,38.77,30.76Zm-.86.82-.12,0c-.07-.25.1-.43.17-.64l.12,0Zm.42-.75,0-.07.6.41A.54.54,0,0,1,38.33,30.82Z"/><path d="M44.69,32.64c-.1,0-.18.14-.25.23l-.49.6a8,8,0,0,0,.65.52,1.53,1.53,0,0,0,.5.18.25.25,0,0,0,.21-.09s0-.16-.08-.21-.35-.32-.57-.51c.13-.11.26-.21.37-.33s.32-.26.14-.42S44.85,32.59,44.69,32.64ZM45,33.92c-.4,0-.53-.26-.75-.4l.07-.1Zm-.5-.73-.06-.08c.13-.18.22-.4.49-.41l.06.08Z"/><path d="M38.34,29.84l-.92-.14c-.07.35-.15.68-.19,1,0,.1.13.21.2.31.07-.08.18-.15.21-.24a6.58,6.58,0,0,0,.15-.66,4.53,4.53,0,0,0,.67.26c.11,0,.25-.06.38-.1a1.68,1.68,0,0,0-.22-.33A.57.57,0,0,0,38.34,29.84Zm.24.4L38,30l0-.11.58.19Z"/><path d="M32.32,27.53a.33.33,0,0,0-.28.18.36.36,0,0,0,.17.28,3.73,3.73,0,0,0,.56.21,7.47,7.47,0,0,0-.11.87c0,.09.14.19.22.29.08-.09.21-.17.23-.28.08-.29.12-.6.15-.79a3.43,3.43,0,0,0-.43-.55A1.07,1.07,0,0,0,32.32,27.53Zm.43.48-.51-.21.08-.15.49.23Z"/><path d="M36.83,29.05a5.84,5.84,0,0,0-.09.75c0,.13.07.34.15.37s.29-.13.33-.3a2.59,2.59,0,0,0,0-.44c1,.27,1,.27,1.24,0C38,28.9,37.39,29.17,36.83,29.05Zm.77.2.61.1,0,.12-.6-.11Z"/><path d="M39.12,33.43a1,1,0,0,0,.12-.33.48.48,0,0,0-.12-.31,6,6,0,0,0-.48-.43l-.51.48a1.88,1.88,0,0,0-.31.37c0,.07,0,.19,0,.29s.21,0,.28,0a6.33,6.33,0,0,0,.48-.44,1.93,1.93,0,0,0,.24.27A1.42,1.42,0,0,0,39.12,33.43Z"/><path d="M29.43,30.43c.11,0,.24.12.34.1.27-.06.54-.16.81-.25a4.48,4.48,0,0,0,.15.53c0,.09.13.14.2.22.07-.08.17-.16.2-.25a.76.76,0,0,0,0-.37c-.05-.24-.13-.48-.19-.7l-.8.19a1.63,1.63,0,0,0-.51.17C29.53,30.13,29.49,30.3,29.43,30.43ZM30.87,30l.13.63-.14,0-.11-.63Zm-.46,0,0,.09-.68.3,0-.11C29.88,30,30.17,30.06,30.41,30Z"/><path d="M28.72,36.51a1.62,1.62,0,0,0-.45-.37.18.18,0,0,0-.25.25c.13.22.29.43.45.67a1.18,1.18,0,0,0-.31.24c-.08.12-.18.32-.13.41s.3.09.42,0,.41-.34.63-.52A4.83,4.83,0,0,0,28.72,36.51Zm-.14.36-.4-.41.09-.09c.23,0,.29.25.38.43Z"/><path d="M39.1,31.8l-.73-.4a3.66,3.66,0,0,1-.21.44c-.13.19-.29.36-.41.56s0,.23,0,.34.26,0,.33-.07a5.91,5.91,0,0,0,.48-.55,1.72,1.72,0,0,0,.37.26,1.17,1.17,0,0,0,.4,0,2.22,2.22,0,0,0-.06-.41A.39.39,0,0,0,39.1,31.8Zm-1.19.69.38-.61C38.34,32.2,38.26,32.35,37.9,32.49ZM39,32.32l-.38-.41.11-.12.42.37Z"/><path d="M37.19,21.9h0Z"/><path d="M37.47,22.21l-.28.12,0,.08.42-.16-.35-1.38.27-.14.51,1,.08,0c-.12-.28-.23-.57-.35-.85s-.09-.28-.14-.45c-.16,0-.42-.32-.47-.61a.79.79,0,0,0-.42-.66l.3.57,0,0-.51-.37-.07.09.22.2c.24.25.48.49.71.74s0,.25-.1.34l-.48.31,0,.06.35-.1-.12.23c.28.06.33.39.12.64C37.48,21.81,37.44,22,37.47,22.21Z"/><path d="M35.21,29.11c0,.07.11.16.16.16s.18-.1.17-.15a2.6,2.6,0,0,0-.11-.62,1.74,1.74,0,0,0-.24-.37c.39-.15.82-.18,1-.63a.52.52,0,0,0-.79.14c-.15.18-.28.36-.41.53C35,28.51,35.12,28.81,35.21,29.11Z"/><path d="M37.85,28.89c.08,0,.15-.11.23-.17s-.12-.2-.19-.22a2.37,2.37,0,0,0-.73,0,8,8,0,0,0-.94.25,4.27,4.27,0,0,0,0,.66,1.24,1.24,0,0,0,.21.35,1.18,1.18,0,0,0,.18-.37,2.2,2.2,0,0,0-.07-.53,1.71,1.71,0,0,0,.28.06C37.19,28.89,37.52,28.9,37.85,28.89Zm0-.15h-.93C37.31,28.51,37.56,28.51,37.85,28.74Z"/><path d="M29.78,36.89a1.41,1.41,0,0,0-.23-.36c-.13-.13-.31-.26-.48-.1s-.08.35.06.49a2.89,2.89,0,0,0,.35.28,2,2,0,0,0-.47.3,1.25,1.25,0,0,0-.14.42c.14,0,.32.08.42,0a6.68,6.68,0,0,0,.71-.52C29.92,37.22,29.86,37,29.78,36.89Zm-.3.27a2.44,2.44,0,0,1-.14-.28,1.68,1.68,0,0,1-.05-.27.83.83,0,0,1,.24.15.88.88,0,0,1,.09.28Zm-.3.62-.07-.13.54-.3.06.1Z"/><path d="M38.45,37.57c-.3-.17-.34-.37-.1-.63a.28.28,0,0,0,.09-.21,1.81,1.81,0,0,0-.17-.36c-.13.11-.23.16-.26.24-.1.24-.19.5-.27.75a.12.12,0,0,0,0,.11c.25.22.51.44.78.63,0,0,.18,0,.28-.07a.78.78,0,0,0-.09-.25A.94.94,0,0,0,38.45,37.57Z"/><path d="M37,28.1a1.08,1.08,0,0,0-.29-.2c-.46-.12-.82.15-1.25.31a2.18,2.18,0,0,1,.11.25c.07.25.13.5.21.74,0,.06.12.09.19.14s.09-.13.09-.19,0-.38,0-.56c.25-.09.5-.17.73-.27S36.93,28.18,37,28.1Zm-1.06.24,0-.08a.56.56,0,0,1,.8-.07Z"/><path d="M22.24,35.63a5.27,5.27,0,0,0-.16-.61c-.05-.12-.21-.19-.31-.28a1.15,1.15,0,0,0-.06.38,3.71,3.71,0,0,0,.2.56l-.23.07c-.17.06-.37.1-.3.34s.26.25.45.19.39-.14.6-.22A3.67,3.67,0,0,1,22.24,35.63Z"/><path d="M38.79,26.22l-.32.76.09,0,.16-.23c.07.54-.1.76-.76,1,0,0-.08,0-.11,0l.16-.23c-.53.11-.19-.35-.43-.49l0,.39-.46.12v.05l.41.09c0,.17,0,.31.28.21.09,0,.21,0,.31,0V28l-.27.08.34.26.18-.66h.05l.07.22A1.66,1.66,0,0,0,38.79,26.22Z"/><path d="M22.65,32.78a1.17,1.17,0,0,0-.35,0,1.36,1.36,0,0,0,.1.33,1.22,1.22,0,0,0,.25.23.51.51,0,0,0-.1.09l-.17.3c.12,0,.26.13.36.1a5.81,5.81,0,0,0,.69-.32c-.17-.22-.32-.42-.48-.6A.57.57,0,0,0,22.65,32.78Z"/><path d="M46.27,35.69a1.81,1.81,0,0,0,.28-.4,2.07,2.07,0,0,0,.07-.55s-.13-.06-.14,0a1.67,1.67,0,0,0-.34.42,6.91,6.91,0,0,0-.24.84,7.53,7.53,0,0,0,.75.29c.07,0,.19-.09.28-.14s-.08-.21-.16-.25A3.13,3.13,0,0,0,46.27,35.69Z"/><path d="M45.4,32.86c-.16.15-.29.33-.46.54a2.17,2.17,0,0,0,.46.34,1.42,1.42,0,0,0,.6.09c.17,0,.22-.14.06-.28l-.38-.31a1.31,1.31,0,0,0,.26-.21,1.17,1.17,0,0,0,.12-.29c-.11,0-.22-.1-.31-.07A.76.76,0,0,0,45.4,32.86Zm.41.7-.05.12-.46-.19.05-.12Z"/><path d="M33,16.24c.33.14.68.25,1,.38l0-.1a1.8,1.8,0,0,0-.27-.11,3.65,3.65,0,0,1-1.59-.84,3.07,3.07,0,0,0-.6-.4A2,2,0,0,0,31.2,15l0,.11c.24.44.7.58,1.08.85l-.51-.2a.88.88,0,0,0,.81.36A.65.65,0,0,1,33,16.24ZM32,15.67l-.6-.38.06-.09.59.39Z"/><path d="M30.92,19.06l-.17-.33a.73.73,0,0,1,.29.17l.2.17c.07-.1.19-.19.2-.29a.31.31,0,0,1,.29-.34h0L31.9,18l-.52-.09v.05l.2.18,0,.07L31,17.94l.29.47L31,18.26l0,.15-.51.31.43.37Z"/><path d="M36.64,38.21c-.14-.08-.37-.12-.41-.23s.1-.31.14-.47a.84.84,0,0,0,0-.26c-.1,0-.24,0-.29.05a4.37,4.37,0,0,0-.31.53c0,.17,0,.32.08.35a5.16,5.16,0,0,0,.87.43c.18.06.21-.09.13-.23A.53.53,0,0,0,36.64,38.21Z"/><path d="M38.45,17.44l-.5.3c.42.28.65.74,1,.93.05-.23.1-.42.13-.61a.87.87,0,0,0,0-.25C38.74,17.93,38.62,17.64,38.45,17.44Z"/><path d="M35.41,22.89c-.24.24-.16.49,0,.8l.1-.61a.19.19,0,0,1,.09.12l.06.14c.11-.81.26-1,1-1.15a2,2,0,0,0,.49-.27l-.11,0,.2-.21-.56.2,0-.07.41-.17a.4.4,0,0,0-.53.12c-.17.19-.39.33-.57.52S35.61,22.68,35.41,22.89Z"/><polygon points="37.18 21.9 37.17 21.91 37.18 21.91 37.18 21.9"/><path d="M32.39,37.83a.94.94,0,0,0,0-.34c0-.08-.14-.13-.22-.19s-.17.15-.17.23a3.61,3.61,0,0,0,0,.55l-.65.37a.81.81,0,0,0,1-.08C32.39,38.17,32.4,38,32.39,37.83Z"/><path d="M37.29,38c-.32-.12-.5-.28-.28-.64,0,0-.06-.17-.1-.26s-.2.06-.23.12a2,2,0,0,0-.23.67c0,.08.23.19.36.28l.28.2.24.12c.06,0,.14-.06.16-.11a.27.27,0,0,0,0-.21A.4.4,0,0,0,37.29,38Z"/><path d="M47.37,35.25a1.16,1.16,0,0,0-.32-.08c0-.23.1-.43.12-.64s-.06-.12-.09-.19a.79.79,0,0,0-.19.11.37.37,0,0,0-.08.18c-.06.31-.11.61-.17,1a4,4,0,0,0,.66.11c.08,0,.19-.14.23-.24S47.45,35.3,47.37,35.25Z"/><path d="M30.47,36.81c-.09-.24-.32-.34-.44-.23s-.06.32,0,.46a4.32,4.32,0,0,0,.3.37,2.33,2.33,0,0,0-.39.27.87.87,0,0,0-.12.3c.11,0,.26,0,.34,0a4.24,4.24,0,0,0,.49-.42A7.34,7.34,0,0,0,30.47,36.81Z"/><path d="M37.78,37.73c-.28-.17-.34-.36-.14-.63a.14.14,0,0,0,0-.08c0-.11,0-.23,0-.34-.11.05-.3.08-.33.17a4.1,4.1,0,0,0-.18.75s0,.09.07.11.35.27.54.38a1,1,0,0,0,.3.08l.06-.09A1.63,1.63,0,0,0,37.78,37.73Z"/><path d="M31.79,37.91c0-.15,0-.3,0-.46l.06,0a2.29,2.29,0,0,0-.26-.31s-.21.11-.2.16a.7.7,0,0,1-.46.81c-.1,0-.15.31.05.28a3.21,3.21,0,0,0,.8-.36S31.79,37.94,31.79,37.91Z"/><path d="M41.61,18.41c0-.28-.09-.58-.44-.69s-.5-.21-.76-.28a.51.51,0,0,0-.66.29l.46-.15a.63.63,0,0,1,.19,0,1.4,1.4,0,0,1,0,.18.41.41,0,0,1-.06.1c.35.05.71-.17,1,.15s.16.7.09,1.12A.74.74,0,0,0,41.61,18.41Z"/><path d="M29.68,16.06l-.5.31.09,0c0,.22-.05.44-.07.66s-.26.5,0,.78l.38-.44,0,0-.26.11,0-.06.48-.43-.26.06,0,0,.33-.27-.05,0,.06-.28-.29.07.29-.39Z"/><path d="M21.46,34.67c0-.08-.1-.14-.16-.2s-.15.16-.15.24a2.37,2.37,0,0,0,.1.47c-.07,0-.12,0-.14,0l-.3.24c.12.08.22.21.35.22a1.56,1.56,0,0,0,.47-.09C21.56,35.23,21.52,34.95,21.46,34.67Z"/><path d="M31.16,37.68a1.25,1.25,0,0,0,0-.7c0-.09-.21-.15-.32-.22-.05.1-.15.21-.14.3a3,3,0,0,0,.18.55,4.68,4.68,0,0,0-.39.29s0,.12,0,.18a.17.17,0,0,0,.15,0C30.82,38,31.07,37.86,31.16,37.68Z"/><path d="M37.1,24l.11.35c-.11,0-.19-.1-.19-.17a3.45,3.45,0,0,1,0-.62c0-.19.15-.39,0-.52l-.45.34s0,.05,0,.08h0l.34,1,.08-.15c.08.21.21.29.36.14S37.18,24.12,37.1,24Z"/><path d="M33.94,14.69a5.21,5.21,0,0,0-.57-.56.14.14,0,0,0-.12,0l-.42.16,1.28.91A1.84,1.84,0,0,0,33.94,14.69Z"/><path d="M21.5,33a.21.21,0,0,0-.12.35.71.71,0,0,0,1,.05A.77.77,0,0,0,21.5,33Z"/><path d="M21,34.35c0-.15,0-.33-.19-.31s-.11.21-.16.33-.06.2-.1.29a2.55,2.55,0,0,1-.16.26,1.17,1.17,0,0,0,.3.17A.91.91,0,0,0,21,35C21,34.78,21,34.56,21,34.35Z"/><path d="M31.8,16.37a2.44,2.44,0,0,0-.29.26,1.77,1.77,0,0,0,.28.17.7.7,0,0,0,.31.05,2.38,2.38,0,0,0,.39-.1c-.07-.15-.08-.27-.14-.31a3.85,3.85,0,0,0-.48-.25l0,.06.19.11,0,0C31.93,16.38,31.85,16.35,31.8,16.37Z"/><path d="M38,19.7l-.06.25-.49-.66v.29l-.19-.22,0,0,.15.41a.45.45,0,0,1,.59.41c0,.2-.12.46.2.59a1.61,1.61,0,0,0,.17-.56,1.46,1.46,0,0,0-.26-.51Z"/><path d="M38.27,33.58a1.92,1.92,0,0,0-.1.56s.2.1.26.06a.67.67,0,0,0,.13-1A1.46,1.46,0,0,0,38.27,33.58Z"/><path d="M33,13.43c-.09.1,0,.42-.27.27a2.81,2.81,0,0,1-.37-.27c0,.17,0,.45.12.45s.41.28.55,0l.58.12,0-.08-.39-.49,0,0,.09.3,0,0Z"/><path d="M47.67,34.52a1.37,1.37,0,0,0-.06-.31s-.13,0-.14,0a.69.69,0,0,0-.15.29,4.74,4.74,0,0,0,0,.58c.23,0,.46.14.6-.1,0,0-.14-.19-.25-.33C47.65,34.63,47.67,34.57,47.67,34.52Z"/><path d="M20.53,34.36c0-.32-.2-.58-.39-.58s-.24.09-.24.25.21.55.4.51S20.48,34.4,20.53,34.36Z"/><path d="M36.16,24.3,36,24.14a1.16,1.16,0,0,0,.52.87,3.2,3.2,0,0,0,0-1.59c0,.18,0,.35,0,.52Zm.15.33.19-.67v.87Z"/><path d="M32.6,38.53c-.08,0-.21.16-.31.25l.42.47c.14-.2.32-.38.29-.43A.71.71,0,0,0,32.6,38.53Z"/><path d="M33.22,14.83l0,0-.82-.34,0,.05,1,.58.17-.18a2.29,2.29,0,0,0-1.14-.71l0,.09c.16.07.32.13.47.21S33.07,14.74,33.22,14.83Z"/><path d="M46.81,33.11c0-.07-.16-.17-.29-.3l-.5.42c.11.06.22.16.33.16S46.78,33.36,46.81,33.11Z"/><path d="M39.9,23.6h0L40.1,23l0,.53h.08A2,2,0,0,0,40,22.18Z"/><path d="M48.21,33.76c-.16,0-.41.23-.39.44a.34.34,0,0,0,.18.24c.14.05.37-.25.38-.54C48.35,33.88,48.29,33.78,48.21,33.76Z"/><path d="M37.26,15.3c.29.16.6.29.71.67a.57.57,0,0,0,0-.74l0,.31L37.13,15A.35.35,0,0,0,37.26,15.3Z"/><path d="M35.38,25.78l0,.55h.07v-.94l-.08,0c-.35.33-.16.86-.46,1.21l.12,0Z"/><path d="M34.67,38.42c-.11,0-.24.15-.31.26s.13.17.25.31l.37-.33C34.88,38.57,34.77,38.41,34.67,38.42Z"/><path d="M33.78,38.53c-.09,0-.18.13-.27.2l.41.42c.11-.16.21-.24.21-.32S34,38.52,33.78,38.53Z"/><path d="M30,34.15l.2-.22-.4-.46c-.05.06-.16.16-.15.18C29.78,33.82,29.91,34,30,34.15Z"/><path d="M34.87,39.25c0,.08.11.14.17.21l.39-.46c-.12-.1-.17-.19-.24-.2S34.83,39.06,34.87,39.25Z"/><path d="M33.38,38.6a1,1,0,0,0,.18-.36c0-.08-.13-.18-.2-.26a1.52,1.52,0,0,0-.27.36c0,.06.11.17.17.26Z"/><path d="M31.25,13.95l-.09-.06-.12,0,.1.58.51-.33-.37-.41Z"/><path d="M39.54,23.71l.24,1.56A2.19,2.19,0,0,0,39.54,23.71Z"/><path d="M33.09,39.1a1.47,1.47,0,0,0,.23.43c.13-.15.26-.26.24-.3a1.81,1.81,0,0,0-.25-.37C33.22,38.94,33.08,39,33.09,39.1Z"/><path d="M32.49,38l.37.35c.06-.07.18-.17.16-.21a2.3,2.3,0,0,0-.23-.41Z"/><path d="M34.7,38.07a1.36,1.36,0,0,0,.28.36c.11-.1.23-.18.21-.21a3.22,3.22,0,0,0-.24-.38C34.87,37.92,34.69,38,34.7,38.07Z"/><path d="M35.45,38.9c0,.18.05.36.27.36s.15-.09.29-.18l-.41-.37C35.55,38.78,35.45,38.84,35.45,38.9Z"/><path d="M33.6,16.58l1.13,1C34.71,17.25,34,16.64,33.6,16.58Z"/><path d="M35.51,38.27l.23-.33-.23-.29c-.06.09-.18.18-.17.27A1,1,0,0,0,35.51,38.27Z"/><path d="M35.06,23.76c-.06.39-.26.76-.1,1.16h.1Z"/><path d="M35.79,38.6c.14.12.27.24.42.35a.82.82,0,0,0,.14-.15c-.11-.13-.23-.25-.38-.4Z"/><path d="M32.16,18.39l1.26-.46,0-.08c-.06,0-.14-.07-.19,0l-1.11.51Z"/><path d="M37.28,26.15l.11,0,.26-1.08-.11,0Z"/><path d="M27.67,25.71l-.61.94C27.26,26.74,27.67,26.15,27.67,25.71Z"/><path d="M38.44,20.09a1.12,1.12,0,0,0-.06.13l-.15.54.06,0,.17-.37h0v.39A.52.52,0,0,0,38.44,20.09Z"/><path d="M37.22,25.73l.31-1A1,1,0,0,0,37.22,25.73Z"/><path d="M38.36,25.66l-.27,1,.1,0,.3-1Z"/><path d="M38.24,21.92l0,.68h.1c.27-.25,0-.47-.05-.7Z"/><path d="M28.12,26.62l0-.27-.27.41.26.1.38-.62-.1-.06Z"/><path d="M38.75,19.9v.85A.74.74,0,0,0,38.75,19.9Z"/><path d="M36.47,21.08c.2-.47.2-.47-.21-.69Z"/><path d="M27.32,24.24l-.09-.48-.18,0,.07-.25C26.82,23.91,26.82,23.92,27.32,24.24Z"/><path d="M28.69,26.52s-.1-.11-.15-.17l-.32.55.11.08C28.46,26.83,28.58,26.68,28.69,26.52Z"/><path d="M30.17,15.11l.68-.15-.64-.24.1.25-.16.05Z"/><path d="M32.4,17.94a1.12,1.12,0,0,0,1-.49Z"/><path d="M37.19,15.43l.44.7.09-.05C37.62,15.84,37.57,15.55,37.19,15.43Z"/><path d="M36.26,19.91l.5.72A.81.81,0,0,0,36.26,19.91Z"/><path d="M31.68,19a1.11,1.11,0,0,0,.19-.11.43.43,0,0,0,.08-.12l-.23-.27a2,2,0,0,0-.08.3A.68.68,0,0,0,31.68,19Z"/><path d="M30.48,15.7l.87.18A.77.77,0,0,0,30.48,15.7Z"/><path d="M40.41,18.17c.1,0,.21,0,.24,0,.22.28.23,0,.32-.1C40.64,18,40.5,18,40.41,18.17Z"/><path d="M36.55,15h-.39l.14.21.41.13Z"/><polygon points="36.3 15.24 36.3 15.24 36.3 15.24 36.3 15.25 36.3 15.25 36.3 15.24"/><path d="M35.46,14.62l-.22-.77C35.08,14.25,35.08,14.25,35.46,14.62Z"/><path d="M38,14.81l.12,0,.18-.7-.1,0Z"/><path d="M31.57,13.8v.09l.43.2-.09-.38Z"/><path d="M37.68,26.71v-1h-.06v1Z"/><path d="M39.28,19.1l0-.07-.58-.17C38.84,19.13,39.07,19.09,39.28,19.1Z"/><path d="M37.84,14.74H38l.08-.64h-.1Z"/><path d="M33.46,13.4c0,.27.17.38.42.37Z"/><path d="M38.21,17.22h.1l.08-.59h-.11Z"/><path d="M35.18,25h.07l.07-.81h-.1Z"/><path d="M31.11,16.59l.05-.06L30.59,16l-.06.09Z"/><path d="M37.42,17.62l-.26-.39L36.88,17Z"/><path d="M37.52,17.72l-.1-.1.08.12Z"/><path d="M36.68,16.92l.2.12-.15-.16Z"/><path d="M31.93,8.85a.38.38,0,0,0,.24-.47.43.43,0,0,0-.48-.29c-.29,0-.58.08-.87.12l.34,1.6c.17,0,.27,0,.21-.19a1.2,1.2,0,0,1-.05-.28c0-.08,0-.22,0-.22a.46.46,0,0,1,.32,0,2.82,2.82,0,0,1,.3.34,4.47,4.47,0,0,0,.35.29l.07-.08-.57-.77Zm-.53.08c-.3,0-.25-.31-.24-.45s.24-.2.37-.31c.23.07.39.09.38.34A.45.45,0,0,1,31.41,8.93Z"/><path d="M43.06,13.12c.18-.05.42-.06.54-.18s.07-.4-.06-.58-.25-.31-.37-.47L41.87,13l.15.18c.15-.13.25-.24.36-.32s.19-.12.23-.1a.35.35,0,0,1,.15.25,2.42,2.42,0,0,1-.15.55.4.4,0,0,0,.08.51l.29-1A.14.14,0,0,0,43.06,13.12Zm-.33-.44a.36.36,0,0,1,.07-.14l.46-.4a2.21,2.21,0,0,1,.22.41.28.28,0,0,1-.27.38C43,12.92,42.89,12.77,42.73,12.67Z"/><path d="M38.43,8.58,37.05,10l0,.06a1.31,1.31,0,0,0,.26-.21c.22-.3.46-.1.7,0s.22.23.2.38a.26.26,0,0,0,.2.33ZM38.18,9.7l-.47-.18L38.18,9Z"/><path d="M41.4,11.87c.19.14.13.31,0,.46s0,.26.15.32L42.16,11l-.07-.07-1.67.7v.12a1,1,0,0,0,.33-.08C41.06,11.48,41.21,11.72,41.4,11.87Zm.46-.66-.24.65-.4-.35Z"/><path d="M30.37,9.28l-.25.08c.06.11.11.19.16.27.16.33,0,.52-.32.58a.74.74,0,0,1-.74-.7c0-.47.15-.73.57-.76a.61.61,0,0,0,.2-.09c-.07,0-.15-.08-.21-.07A.91.91,0,0,0,29.17,10a.75.75,0,0,0,1,.24c.41-.22.45-.36.24-.87Z"/><path d="M33.49,7.86h-.08l-.56,1.67.09.05.18-.28c.06-.09.1-.23.18-.26.34-.14.53,0,.67.31,0,.08.13.14.2.21l.09-.09Zm-.24,1,.18-.55a1.4,1.4,0,0,1,.12.16l.16.36Z"/><path d="M45.22,16.92c0-.08,0-.17.06-.25a1,1,0,0,1,.14-.34,1,1,0,0,1,.31-.16,1.89,1.89,0,0,1,.11.33,1.32,1.32,0,0,1,0,.31h.1a.53.53,0,0,0,0-.56.44.44,0,0,0-.31-.23.73.73,0,0,0-.45.22,1.25,1.25,0,0,0-.16.46.93.93,0,0,1-.11.32c-.08.1-.26.23-.32.2a.55.55,0,0,1-.24-.35,1,1,0,0,1,.08-.39l0,0c-.05.06-.13.11-.15.17a.61.61,0,0,0,.36.78C44.88,17.47,45.12,17.29,45.22,16.92Z"/><path d="M44.16,13.27a1.15,1.15,0,0,0,.11.2c.2.21.13.36-.1.49s-.69.44-1.06.68l.12.23.9-.59c.44-.29.44-.29.71.15h0C45,14.24,44.51,13.43,44.16,13.27Z"/><path d="M35.81,8.12a2.34,2.34,0,0,0-1.08-.23s-.1.06-.14.09a.26.26,0,0,0,.19.08c.25,0,.38,0,.31.34S35,9.16,35,9.55h.26l0-.48c0-.15,0-.31,0-.46C35.33,8.11,35.34,8.11,35.81,8.12Z"/><path d="M44,15.67c-.16.07-.25.15-.09.33l1.55-.71-.11-.21Z"/><path d="M36.58,8.18l-.39,1.57.25,0,.39-1.54Z"/><path d="M45.25,14.45c.23-.06.27-.17.17-.35l-.28-.49c-.26,0-.31.15-.17.36S45.16,14.29,45.25,14.45Z"/><path d="M36.3,7.83c.06,0,.16-.07.17-.12a.22.22,0,0,0-.12-.18,3.41,3.41,0,0,0-.49-.1l-.18.17c.07.06.14.15.22.18A1.11,1.11,0,0,0,36.3,7.83Z"/><path d="M34.63,7.67c.07,0,.14,0,.18,0A1.15,1.15,0,0,0,35,7.51a1.17,1.17,0,0,0-.18-.16.24.24,0,0,0-.17,0c-.14,0-.4-.14-.42.13S34.51,7.6,34.63,7.67Z"/><path d="M46,15.82c.06,0,.11-.08.17-.12a5.31,5.31,0,0,0-.21-.51c0-.05-.12-.07-.19-.11s-.12.16-.1.22a1.9,1.9,0,0,0,.17.45A.18.18,0,0,0,46,15.82Z"/><path d="M43.78,11.73l-.47-.5c-.16.1-.29.17-.13.35C43.52,12,43.53,12,43.78,11.73Z"/><path d="M46.32,17.33c.12-.07.27-.13.26-.16a2.62,2.62,0,0,0-.15-.58s-.16,0-.28,0Z"/><path d="M44.57,13s.06-.16,0-.21a5.07,5.07,0,0,0-.33-.44l-.25.19a4,4,0,0,0,.33.43A.27.27,0,0,0,44.57,13Z"/><path d="M39.3,8.57V8.46a3.12,3.12,0,0,0-.48-.2c-.05,0-.14.1-.21.16a4.34,4.34,0,0,0,.48.29S39.24,8.62,39.3,8.57Z"/><path d="M32.7,7.42l0,.29.67-.06C33.44,7.32,33.31,7.27,32.7,7.42Z"/><path d="M32,7.79c-.05-.29-.05-.29-.28-.26a1.09,1.09,0,0,0-.3.07c-.06,0-.09.11-.13.18s.14.14.2.13A3.91,3.91,0,0,0,32,7.79Z"/><path d="M37.7,8.18a.22.22,0,0,0,.18-.12.21.21,0,0,0-.09-.18,2.64,2.64,0,0,0-.42-.12s-.15.08-.16.13a.23.23,0,0,0,.11.18A1.12,1.12,0,0,0,37.7,8.18Z"/><path d="M43.6,16c-.12.15-.24.24-.22.27a3.85,3.85,0,0,0,.26.48c.06,0,.19-.11.18-.14A6.45,6.45,0,0,0,43.6,16Z"/><path d="M30.4,7.87c-.64.13-.69.16-.53.43C30.55,8.13,30.55,8.13,30.4,7.87Z"/><path d="M46.39,23.26c.32.1.41,0,.38-.58C46.5,22.6,46.44,22.68,46.39,23.26Z"/><path d="M43.17,29.21a5.22,5.22,0,0,0-.36.41c.1.05.23.15.25.12a2.27,2.27,0,0,0,.36-.39s0-.15-.07-.16A.22.22,0,0,0,43.17,29.21Z"/><path d="M43.86,28.46a.23.23,0,0,0,0,.21.21.21,0,0,0,.21,0,5.1,5.1,0,0,0,.33-.44C44.18,28,44,28.11,43.86,28.46Z"/><path d="M46.69,19.73a2.36,2.36,0,0,0,0,.34c0,.2.08.26.3.19,0-.19,0-.37,0-.55s-.1-.13-.14-.12A.24.24,0,0,0,46.69,19.73Z"/><path d="M41.43,27.41c-.1.16-.2.31-.29.47s.14.14.15.13a1.4,1.4,0,0,0,.34-.32s-.06-.18-.09-.27Z"/><path d="M42.73,15a2.11,2.11,0,0,0,.26.46c.05,0,.2,0,.3,0a2.12,2.12,0,0,0-.21-.45S42.89,15,42.73,15Z"/><path d="M45,26.84a5.46,5.46,0,0,0-.33.55s.1.09.2.19c.11-.24.21-.43.3-.63A.93.93,0,0,0,45,26.84Z"/><path d="M46.84,21.14c-.29,0-.14.25-.18.38a.92.92,0,0,0,0,.24c.22.09.31,0,.3-.2S47.15,21.17,46.84,21.14Z"/><path d="M33.33,9.81c-.14,0-.37-.07-.37.19,0,.07.14.14.25.24.14-.11.29-.16.32-.26S33.47,9.77,33.33,9.81Z"/><path d="M35.32,10.19a2.4,2.4,0,0,0,.51.07c.06,0,.1-.15.16-.22a3,3,0,0,0-.51-.13S35.39,10.07,35.32,10.19Z"/><path d="M46.11,24.26c0,.09-.08.18-.09.27s0,.14.07.2.19-.05.22-.11a3.53,3.53,0,0,0,.16-.49C46.28,24,46.16,24,46.11,24.26Z"/><path d="M31.07,10.18c-.16.09-.32.18-.48.28s.06.18.09.18a1.34,1.34,0,0,0,.46-.11s0-.19,0-.29Z"/><path d="M46.64,18.74c.29-.05.31-.17.11-.7C46.48,18.06,46.45,18.22,46.64,18.74Z"/><path d="M42.62,10.78c.16-.27-.2-.31-.33-.49-.16.13-.29.24-.08.38S42.48,11,42.62,10.78Z"/><path d="M45.43,26c.26.19.27.18.49-.43C45.65,25.41,45.58,25.48,45.43,26Z"/><path d="M44.24,17.82l-.16-.57-.29.11.13.56Z"/><path d="M34.32,9.8c-.05,0-.12.1-.13.17s.08.13.13.14a3.23,3.23,0,0,0,.43,0l0-.32A2.8,2.8,0,0,0,34.32,9.8Z"/><path d="M43.14,25.69l-.28-.16-.31.49.29.15Z"/><path d="M31.75,10.16c.05.06.13.18.16.17a3.45,3.45,0,0,0,.46-.2l-.15-.25Z"/><path d="M38.14,10.63c-.12,0-.3-.19-.36,0s.26.23.4.37C38.33,10.84,38.38,10.69,38.14,10.63Z"/><path d="M36.76,10.17c-.05,0-.12.12-.18.18a2.45,2.45,0,0,0,.39.2s.12-.08.19-.13V10.3A1.71,1.71,0,0,0,36.76,10.17Z"/><path d="M43.47,25.06l.24-.51-.28-.12C43.15,24.9,43.15,24.94,43.47,25.06Z"/><path d="M42.16,26.62a1.14,1.14,0,0,0-.24.37s.14.14.15.14.27-.24.4-.36l0-.1C42.34,26.65,42.2,26.58,42.16,26.62Z"/><path d="M44,22.42c0,.18-.07.36.26.33,0-.2.26-.41,0-.55S44,22.3,44,22.42Z"/><path d="M41.38,13.18c.08.14.18.27.29.42l.29-.25a4.74,4.74,0,0,0-.42-.3S41.38,13.17,41.38,13.18Z"/><path d="M44.24,21l-.08.62c.16-.06.3-.08.32-.13a.92.92,0,0,0,0-.42S44.34,21,44.24,21Z"/><path d="M44.06,23.55c0-.06-.07-.14-.13-.17s-.13,0-.16.1a2.51,2.51,0,0,0-.13.36l.29.13A2.31,2.31,0,0,0,44.06,23.55Z"/><path d="M42.11,14.09l.33.47c.09-.11.21-.21.19-.26a.82.82,0,0,0-.24-.34S42.22,14,42.11,14.09Z"/><path d="M40.48,12.41c.32.36.36.36.56.07l-.34-.3Z"/><path d="M44.43,19l0-.54-.28,0C44.09,19,44.11,19,44.43,19Z"/><path d="M44.21,19.77c.11.18-.13.43.17.53a.51.51,0,0,0,.16-.26C44.57,19.86,44.55,19.68,44.21,19.77Z"/><path d="M23.05,14.46l1.47.77.09-.2L24,14.67a.36.36,0,0,1,.52-.28,1.48,1.48,0,0,0,.36.1,1,1,0,0,0,.3-.08l0-.09-1-.16v-.06c0-.21,0-.41-.29-.47a.46.46,0,0,0-.55.27C23.22,14.07,23.14,14.27,23.05,14.46Zm.63-.58c.08,0,.24.17.41.3-.15.17-.28.39-.34.37a1.81,1.81,0,0,1-.46-.3C23.42,14.11,23.53,13.93,23.68,13.88Z"/><path d="M24,15.95c.19,0,.29,0,.27-.26l-1.91.1,0,.08,1.41,1.22.08-.05-.15-.23c-.08-.11-.23-.22-.24-.33C23.45,16.09,23.63,15.93,24,15.95Zm-.74.49L22.8,16h.65Z"/><path d="M25.93,13a.52.52,0,0,0-.65-.38,5.06,5.06,0,0,1-.53.11.32.32,0,0,1-.26-.11.41.41,0,0,1,0-.31,1.59,1.59,0,0,1,.25-.31.54.54,0,0,0-.46.57.44.44,0,0,0,.48.43,3.81,3.81,0,0,0,.45-.08c.21,0,.44-.11.55.15s-.11.37-.41.47l-.05,0v.07c.07,0,.16.05.22,0A.67.67,0,0,0,25.93,13Z"/><path d="M21.69,23.48c0-.24-.15-.26-.38-.16a5.91,5.91,0,0,0,.15.59.23.23,0,0,0,.2.09s.1-.12.1-.18S21.7,23.6,21.69,23.48Z"/><path d="M21.9,24.74c-.05,0-.1.08-.15.12.08.2.14.38.22.54a.19.19,0,0,0,.18.06.2.2,0,0,0,.1-.17,2.38,2.38,0,0,0-.17-.48A.21.21,0,0,0,21.9,24.74Z"/><path d="M22.35,26.25l.23.47c0,.06.07.11.1.16.31-.12.29-.31-.09-.76Z"/><path d="M21.32,20.42c-.23-.07-.35,0-.32.24s-.1.48.32.42Z"/><path d="M23.23,27.47c0,.08-.06.17,0,.24a1.42,1.42,0,0,0,.17.29c.11.17.22.2.37,0a4.72,4.72,0,0,0-.29-.47S23.3,27.48,23.23,27.47Z"/><path d="M23.18,13.79c.06-.05.09-.15.14-.21s.08-.29-.14-.37a3.5,3.5,0,0,0-.28.44c0,.07,0,.17,0,.26A1,1,0,0,0,23.18,13.79Z"/><path d="M24.1,12.49c.1-.14.28-.31,0-.47l-.42.54C23.88,12.84,24,12.64,24.1,12.49Z"/><path d="M25.34,11.1l-.25-.27a5.15,5.15,0,0,0-.35.44c0,.06,0,.16,0,.24s.2,0,.27,0A3.51,3.51,0,0,0,25.34,11.1Z"/><path d="M21.36,19.43a3.34,3.34,0,0,0,0-.52c-.2-.07-.3,0-.31.15a2.1,2.1,0,0,0,0,.34c0,.07.08.14.12.21S21.35,19.5,21.36,19.43Z"/><path d="M22,16.48a1.42,1.42,0,0,0,.1-.27c.09-.21,0-.28-.24-.29a3.25,3.25,0,0,0-.16.47c0,.07.05.16.08.25A.9.9,0,0,0,22,16.48Z"/><path d="M21.41,18.06s.14-.06.15-.11.09-.35.13-.52l-.07-.1c-.09,0-.23.07-.27.14a.94.94,0,0,0-.07.42A.25.25,0,0,0,21.41,18.06Z"/><path d="M24.09,28.89a1,1,0,0,0,.27.33s.16,0,.19,0a.24.24,0,0,0,0-.21,5.29,5.29,0,0,0-.4-.48C24.14,28.7,24.06,28.82,24.09,28.89Z"/><path d="M22.65,14.75s-.1-.13-.15-.19a4.42,4.42,0,0,0-.3.48s.07.14.11.21h.1A4.34,4.34,0,0,0,22.65,14.75Z"/><path d="M26.69,12.78a2.34,2.34,0,0,0-.28.34c.12.24.24.25.39.06s.12-.11.14-.17a.79.79,0,0,0,0-.25C26.85,12.76,26.74,12.73,26.69,12.78Z"/><path d="M26.46,10.18c-.19-.29-.37-.24-.72.21l.21.19Z"/><path d="M21.36,21.84c-.29,0-.33.31-.12.74C21.51,22.55,21.52,22.49,21.36,21.84Z"/><path d="M25.88,13.69a5.17,5.17,0,0,0-.32.42c.15,0,.3.11.33.07a.79.79,0,0,0,.26-.42C26.16,13.6,26,13.57,25.88,13.69Z"/><path d="M24.14,23.94a.88.88,0,0,0,.12.48s.18,0,.33,0c-.07-.22-.12-.36-.18-.5S24.15,23.84,24.14,23.94Z"/><path d="M24.94,15.05l.26.18.32-.5-.28-.17Z"/><path d="M24,17.15a.21.21,0,0,0,.1.18.22.22,0,0,0,.19-.09,2.94,2.94,0,0,0,.15-.41l-.3-.12A3.08,3.08,0,0,0,24,17.15Z"/><path d="M25.07,25.45a4.92,4.92,0,0,0-.28-.51c-.1.15-.19.25-.18.28a3.25,3.25,0,0,0,.3.39C25,25.56,25.08,25.48,25.07,25.45Z"/><path d="M25.72,26.56l0-.12c-.14-.12-.27-.25-.41-.37s-.13.11-.12.12a1.94,1.94,0,0,0,.26.42S25.64,26.58,25.72,26.56Z"/><path d="M23.64,19.74c.28,0,.14-.22.24-.4s-.11-.17-.18-.18c-.23,0-.17.19-.18.31S23.59,19.73,23.64,19.74Z"/><path d="M23.91,22.73s-.15.16-.14.23,0,.44.42.27C24.06,23.07,24.23,22.78,23.91,22.73Z"/><path d="M24.08,18c-.09,0-.24-.05-.25,0a4.81,4.81,0,0,0-.16.53C24,18.51,24,18.5,24.08,18Z"/><path d="M24.38,16.09l.28.16.25-.5-.28-.13Z"/><path d="M27.61,12a3.52,3.52,0,0,0-.35.28l.26.23a1.48,1.48,0,0,0,.32-.27c0-.06,0-.18,0-.28A.62.62,0,0,0,27.61,12Z"/><path d="M23.89,21.89c0-.13.06-.35-.19-.34-.06,0-.12.13-.22.24.1.14.16.29.26.32S23.92,22,23.89,21.89Z"/><path d="M23.65,20.93c.07,0,.13-.13.24-.24-.11-.12-.17-.26-.26-.28s-.17.13-.17.25S23.43,21,23.65,20.93Z"/><path d="M26.13,27.48c0,.05.18,0,.28,0L26.2,27C25.79,27.2,26,27.36,26.13,27.48Z"/><path d="M14.11,29a1.36,1.36,0,0,0-.28,0,.19.19,0,0,0-.11.13c0,.05.06.16.09.15.2,0,.39,0,.59-.07A.75.75,0,0,0,14.3,29S14.17,29,14.11,29Z"/><path d="M11.91,27c.13-.09.27-.18.39-.28a.21.21,0,0,0,0-.17s-.09-.12-.11-.11a2,2,0,0,0-.42.27s0,.17,0,.26Z"/><path d="M21.84,31.46c-.17,0-.27.17-.08.37a.71.71,0,0,0,.22-.09c.11-.1.41-.11.29-.34S22,31.42,21.84,31.46Z"/><path d="M20.44,32.22s0,.17,0,.17a1,1,0,0,0,.35,0,2,2,0,0,0,.34-.23C21.06,32,21,31.95,21,32A4.34,4.34,0,0,0,20.44,32.22Z"/><path d="M11.28,27.11c-.44.19-.55.36-.39.6C11.36,27.46,11.41,27.38,11.28,27.11Z"/><path d="M15,31.46a3,3,0,0,0-.5.05c0,.08.09.23.14.24a3,3,0,0,0,.53,0l0-.07C15.15,31.57,15.08,31.46,15,31.46Z"/><path d="M17,24.66c-.06-.27-.18-.31-.51-.17-.06,0-.09.1-.14.15s.15.13.22.12A2.49,2.49,0,0,0,17,24.66Z"/><path d="M17.38,26.94a3.87,3.87,0,0,0,.41-.17c-.09-.1-.14-.19-.17-.18a3.1,3.1,0,0,0-.5.17s0,.12,0,.18A1,1,0,0,0,17.38,26.94Z"/><path d="M16.62,27.18,16.47,27l-.46.36c.06,0,.14.15.17.14A4.15,4.15,0,0,0,16.62,27.18Z"/><path d="M14.6,25.5c-.11-.25-.29-.26-.56,0,0,0-.05.12-.08.18s.15.08.21.07A3.35,3.35,0,0,0,14.6,25.5Z"/><path d="M15.26,25.19c.18-.07.34-.17.51-.25l-.15-.23-.5.35S15.24,25.2,15.26,25.19Z"/><path d="M13.3,26.13c.21-.08.15-.19,0-.34L13,26s-.1,0-.12.08a.33.33,0,0,0,0,.19s.11,0,.16,0S13.19,26.17,13.3,26.13Z"/><path d="M16.36,29c-.07,0-.13.07-.2.11s.1.16.16.17a2.76,2.76,0,0,0,.44,0C16.81,29.09,16.67,29,16.36,29Z"/><path d="M10.93,33c0,.05.09.14.12.13a1.28,1.28,0,0,0,.42-.17s0-.18,0-.31c-.18.08-.32.14-.45.21A.16.16,0,0,0,10.93,33Z"/><path d="M21.1,29.29c.05,0,0-.16.06-.24l-.08,0a3.85,3.85,0,0,0-.44.29s0,.15,0,.23A3.49,3.49,0,0,0,21.1,29.29Z"/><path d="M19.92,29.77a1.88,1.88,0,0,0-.32.23.23.23,0,0,0,0,.17s.06.06.11.11c.16-.12.32-.22.46-.35s0-.13-.06-.17A.16.16,0,0,0,19.92,29.77Z"/><path d="M15,29c.06.29.16.31.66.2C15.55,28.91,15.51,28.89,15,29Z"/><path d="M16.26,31.45a4.2,4.2,0,0,0-.5,0c.07.36.31.27.5.25s.1-.06.15-.1S16.31,31.46,16.26,31.45Z"/><path d="M11.82,35.15a4.65,4.65,0,0,0,.48-.27c-.13-.09-.2-.16-.22-.14s-.27.17-.41.26C11.72,35.05,11.8,35.16,11.82,35.15Z"/><path d="M52.87,29.09c-.06,0-.1.15-.15.23a3.55,3.55,0,0,0,.55.06c.05,0,.1-.14.15-.21l-.06-.09A2.47,2.47,0,0,0,52.87,29.09Z"/><path d="M53.92,29.39l.07.08a2.83,2.83,0,0,0,.48.07c.05,0,.11-.12.16-.18a2.81,2.81,0,0,0-.51-.15C54.06,29.2,54,29.33,53.92,29.39Z"/><path d="M55.35,29.47a.2.2,0,0,0-.15.11.2.2,0,0,0,.09.17,3.91,3.91,0,0,0,.45.13C55.83,29.59,55.69,29.45,55.35,29.47Z"/><path d="M58.13,28.39c-.15.24-.07.4.33.66C58.56,28.78,58.46,28.6,58.13,28.39Z"/><path d="M51.63,29.14c-.06,0-.11.13-.16.2l.07.07a3.4,3.4,0,0,0,.4,0,.23.23,0,0,0,.15-.11.24.24,0,0,0,0-.16A1.65,1.65,0,0,0,51.63,29.14Z"/><path d="M46,31.62c.14.1.27.21.42.3s.11-.07.22-.15c-.2-.12-.35-.22-.51-.29S46.08,31.57,46,31.62Z"/><path d="M47.27,29.37l.48.35a2.19,2.19,0,0,0,.12-.2,4,4,0,0,0-.46-.31S47.32,29.31,47.27,29.37Z"/><path d="M48.31,29.94a3.09,3.09,0,0,0,.44.31s.14-.08.21-.13a2.52,2.52,0,0,0-.35-.27S48.46,29.9,48.31,29.94Z"/><path d="M47.32,32.11s-.12.09-.18.14a2.26,2.26,0,0,0,.38.24c.06,0,.16,0,.25-.06v-.1A3.26,3.26,0,0,0,47.32,32.11Z"/><path d="M52.2,31.6c.53.1.62.07.62-.21C52.62,31.44,52.34,31.22,52.2,31.6Z"/><path d="M54.49,26.06l.09-.06c0-.09,0-.22-.11-.25A2.19,2.19,0,0,0,54,25.6c0,.07,0,.18,0,.21A4.66,4.66,0,0,0,54.49,26.06Z"/><path d="M55.7,26.69c.06-.26-.13-.44-.47-.47C55.17,26.48,55.28,26.59,55.7,26.69Z"/><path d="M53.31,25.46c.1-.27.09-.27-.44-.44C52.76,25.27,52.84,25.35,53.31,25.46Z"/><path d="M51.73,27.22s-.09.05-.11.09,0,.11,0,.12l.53.18s.05-.06.08-.1l-.41-.27Z"/><path d="M52.1,25c.17-.31-.09-.32-.25-.37s-.17,0-.26.06a.85.85,0,0,0,.18.21A1.37,1.37,0,0,0,52.1,25Z"/><path d="M50.72,27.1c.13,0,.35.19.39-.15l-.52-.2C50.49,27,50.53,27.09,50.72,27.1Z"/><path d="M56.64,27.32c.12-.35-.18-.39-.38-.55C56.16,27.1,56.25,27.21,56.64,27.32Z"/><path d="M50.95,24.51a2.76,2.76,0,0,0-.37-.22s-.11.08-.17.12l.34.26Z"/><path d="M49.44,26.58l.32.26.2-.17a2.77,2.77,0,0,0-.37-.19S49.5,26.54,49.44,26.58Z"/><path d="M3,29.91A.67.67,0,0,0,3,29l-.26.1a1.22,1.22,0,0,0-.08-.25c-.05-.09-.12-.2-.2-.24s-.2.1-.22.17a3.37,3.37,0,0,0-.06.68c0,.42,0,.42-.37.49A1,1,0,0,0,3,29.91Z"/><path d="M5.7,31.06c-.48,0-.61.09-.54.36C5.76,31.33,5.76,31.33,5.7,31.06Z"/><path d="M5.57,33.59l.08.08a3.37,3.37,0,0,0,.49-.13s0-.15.07-.22a3.26,3.26,0,0,0-.49.08C5.66,33.42,5.62,33.52,5.57,33.59Z"/><path d="M4.4,33.61c-.09,0-.17.09-.26.14l.29.19c.13-.08.34-.16.33-.23C4.75,33.46,4.53,33.6,4.4,33.61Z"/><path d="M4.41,31.58s.07-.14.13-.28a3.82,3.82,0,0,0-.54.08s0,.13-.06.21A2.61,2.61,0,0,0,4.41,31.58Z"/><path d="M6.87,30.73c-.45.06-.49.09-.45.36C6.89,31,6.93,31,6.87,30.73Z"/><path d="M.41,30.66l.28.5.15-.08-.3-.5Z"/><path d="M62,33.36c-.14.38-.06.43.54.43C62.56,33.33,62.14,33.55,62,33.36Z"/><path d="M62.5,31.14c-.11.3,0,.36.5.38C63.07,31.24,63,31.17,62.5,31.14Z"/><path d="M63.86,31.4s-.13.08-.2.13l.28.29c.14-.11.3-.17.3-.23C64.23,31.35,64,31.45,63.86,31.4Z"/><path d="M61.16,30.93c.23.1.39.18.56.24s.08-.09.13-.15a4.76,4.76,0,0,0-.45-.28S61.29,30.83,61.16,30.93Z"/><path d="M63.33,33.79c0,.23.2.16.33.19s.34.09.32-.22a1,1,0,0,0-.26-.05C63.57,33.72,63.33,33.75,63.33,33.79Z"/><path d="M65.77,28.77c-.05.28,0,.33.46.3C66.26,28.78,66.18,28.73,65.77,28.77Z"/><path d="M39.26,29.27a.72.72,0,0,0,.15.2,2.49,2.49,0,0,0,.4-.29,2.86,2.86,0,0,0-.18-.25A4,4,0,0,0,39.26,29.27Z"/><path d="M26.76,30.92c-.19-.12-.3-.42-.59-.21l.37.54Z"/><path d="M18.68,28.33a3,3,0,0,0-.34.22l.12.17.36-.26S18.7,28.32,18.68,28.33Z"/><path d="M49.55,28.53c0-.07,0-.16-.09-.2a2.51,2.51,0,0,0-.38-.18c-.15.26-.1.35.26.44C49.4,28.61,49.48,28.55,49.55,28.53Z"/><path d="M35.54,34.58a.84.84,0,0,0-1,0,.55.55,0,0,1-.72,0c-.15-.09-.32-.16-.54-.26a2.35,2.35,0,0,0-.55.35.52.52,0,0,0,0,.67,3.34,3.34,0,0,0,.32.44c.28.29.58.56.86.85s.28.16.41,0c.38-.41.77-.83,1.13-1.27A.6.6,0,0,0,35.54,34.58Z"/><path d="M35,34c-.44-.2-.75.21-1.14.17.11.1.24.22.33.19A7.19,7.19,0,0,0,35,34Z"/><path d="M36.31,32l-1.2.17A.76.76,0,0,0,36.31,32Z"/><path d="M33,32.12l-1.06-.19C32.23,32.41,32.58,32.48,33,32.12Z"/><path d="M16.67,35c-.11-.2-.48-.26-.89-.13,0,.34,0,.7,0,1.05,0,.06.1.13.15.19a1.16,1.16,0,0,0,.15-.18.67.67,0,0,0,0-.19c.26.09.29.52.71.35l-.33-.56C16.7,35.35,16.79,35.17,16.67,35Z"/></g></g></svg>