<svg xmlns="http://www.w3.org/2000/svg" viewBox="0 0 41.51 15.25"><title>NEA</title><g id="Layer_2" data-name="Layer 2"><g id="Layer_1-2" data-name="Layer 1"><path d="M20.92,14.58V8a8.81,8.81,0,0,1,3.33,2.89V4.29a7.24,7.24,0,0,1-3.32,2.77V.61A6.9,6.9,0,0,1,27.26,4l1.69-4H13.27A5.16,5.16,0,0,1,15.7,4.84c0,3.47,0,6.94,0,10.41H28.95L27.2,11.5A7.13,7.13,0,0,1,20.92,14.58Z"/><path d="M8.22.61A7.39,7.39,0,0,1,7.77,0H.49A2,2,0,0,0,0,.14,3.32,3.32,0,0,1,2.1,2.25a7.17,7.17,0,0,1,.44,2.26c.06,1.9,0,3.81,0,5.71a5.52,5.52,0,0,1-2.42,5H5.65c-.14-.15-.28-.31-.43-.44a4.83,4.83,0,0,1-1.82-3.68c-.06-2.56,0-5.13,0-7.69a1.26,1.26,0,0,1,.09-.27l3.64,4L14,14.69a5.86,5.86,0,0,1,.4.56h.14c0-2.44,0-4.88,0-7.32a1.33,1.33,0,0,0-.36-.78C12.21,5,10.21,2.79,8.22.61Z"/><path d="M37.75,9.17C36.39,6.41,35.11,3.62,33.8.84c-.13-.27-.22-.56-.33-.84h-2.4a10.66,10.66,0,0,1-.73,1.74A3.65,3.65,0,0,0,30.4,6,35,35,0,0,1,32,9.29c-1.18,0-2.23,0-3.27,0-.66,0-.94.21-1,.88,1.38,0,2.74,0,4.1,0a.88.88,0,0,1,.67.31c.77,1.58,1.49,3.18,2.22,4.77h6.78C39.5,13.69,38.8,11.32,37.75,9.17Z"/><path d="M35.8,1c.17.09.64,0,.65-.08a3.16,3.16,0,0,0,0-.89h-.71C35.59.34,35.33.72,35.8,1Z"/></g></g></svg>