<?xml version="1.0" encoding="UTF-8"?>
<svg width="187px" height="46px" viewBox="0 0 187 46" version="1.1" xmlns="http://www.w3.org/2000/svg" xmlns:xlink="http://www.w3.org/1999/xlink">
    <!-- Generator: Sketch 54.1 (76490) - https://sketchapp.com -->
    <title>Walmart_logo</title>
    <desc>Created with Sketch.</desc>
    <g id="Page-1" stroke="none" stroke-width="1" fill="#fff" fill-rule="evenodd">
        <g id="Walmart_logo" transform="translate(-0.500000, 0.000000)" fill="#fff" fill-rule="nonzero">
            <path d="M0.9425,10.271625 C0.9425,10.271625 5.58075,29.277875 6.321,32.362875 C7.185,35.963625 8.741775,37.288875 13.23025,36.395125 L16.1265,24.611375 C16.86055,21.684375 17.3529,19.597625 17.82475,16.620125 L17.9077575,16.620125 C18.2393075,19.626875 18.7114075,21.693125 19.3154825,24.621625 C19.3154825,24.621625 20.4944575,29.971125 21.0982075,32.780875 C21.7035575,35.589625 23.3882325,37.359875 27.7847075,36.396125 L34.6857075,10.273625 L29.1139575,10.273625 L26.7580075,21.567625 C26.1245825,24.855125 25.5497825,27.423875 25.1066325,30.431375 L25.02802,30.431375 C24.62527,27.453875 24.11302,24.986875 23.46902,21.783875 L21.015895,10.273625 L15.210645,10.273625 L12.586645,21.493875 C11.843245,24.903375 11.147945,27.656625 10.705795,30.562125 L10.6257175,30.562125 C10.1729175,27.825875 9.5698175,24.365625 8.9167425,21.065125 C8.9167425,21.065125 7.3577675,13.039875 6.8107925,10.273625 L0.9430425,10.274375 L0.9425,10.271625 Z M54.0575,10.271625 L54.0575,36.394125 L59.36225,36.394125 L59.36225,30.847125 L59.36225,10.270375 L54.0575,10.270375 L54.0575,10.271625 Z M128.77,10.271625 L128.77,29.542625 C128.77,32.199625 129.27005,34.061125 130.339825,35.198375 C131.27445,36.193 132.813925,36.83705 134.658575,36.83705 C136.22695,36.83705 137.770075,36.5396 138.497325,36.2687 L138.428967,32.1232 C137.887817,32.2563875 137.265267,32.3629475 136.413817,32.3629475 C134.606792,32.3629475 134.000742,31.2055975 134.000742,28.8199475 L134.000742,21.4469475 L138.620742,21.4469475 L138.620742,16.4489475 L134.000742,16.4489475 L134.000742,10.2716975 L128.769742,10.271625 L128.77,10.271625 Z M42.2025,16.327375 C38.90575,16.327375 36.28875,17.253025 34.86225,18.077375 L35.9062,21.652125 C37.211725,20.829075 39.29045,20.147725 41.2587,20.147725 C44.51745,20.13935 45.0502,21.99035 45.0502,23.177475 L45.0502,23.458225 C37.94945,23.4475675 33.4642,25.904675 33.4642,30.913225 C33.4642,33.971225 35.74745,36.836975 39.7177,36.836975 C42.1617,36.836975 44.2057,35.86225 45.4307,34.300475 L45.5508175,34.300475 C45.5508175,34.300475 46.3620175,37.692225 50.8310675,36.3952 C50.5962875,34.98355 50.5200425,33.47845 50.5200425,31.6657 L50.5200425,24.6872 C50.5200425,20.23945 48.6209675,16.32745 42.2025425,16.32745 L42.2025,16.327375 Z M73.935,16.327375 C70.6155,16.327375 69.12375,18.009625 68.21925,19.436875 L68.1406375,19.436875 L68.1406375,16.770375 L63.0781375,16.770375 L63.0781375,36.395375 L68.4111375,36.395375 L68.4111375,24.886125 C68.4111375,24.346575 68.472795,23.776025 68.6611375,23.279675 C69.1029875,22.1209 70.1810875,20.765425 71.9023875,20.765425 C74.0541875,20.765425 75.0611375,22.584675 75.0611375,25.210175 L75.0611375,36.395175 L80.3883875,36.395175 L80.3883875,24.746675 C80.3883875,24.231625 80.458995,23.61125 80.6105575,23.15585 C81.0485325,21.83775 82.2107825,20.765225 83.8108075,20.765225 C85.9923075,20.765225 87.0393075,22.552825 87.0393075,25.642225 L87.0393075,36.395225 L92.3703075,36.395375 L92.3703075,24.836725 C92.3703075,18.740975 89.2750575,16.327475 85.7810575,16.327475 C84.2336575,16.327475 83.0123075,16.715475 81.9080575,17.3934 C80.9798575,17.96295 80.1490075,18.772175 79.4227075,19.837725 L79.344095,19.837725 C78.499095,17.722725 76.516595,16.327475 73.934095,16.327475 L73.935,16.327375 Z M103.22,16.327375 C99.924,16.327375 97.3075,17.253025 95.87975,18.077375 L96.92515,21.652125 C98.2294,20.829075 100.3094,20.147725 102.27665,20.147725 C105.53315,20.13935 106.06715,21.99035 106.06715,23.177475 L106.06715,23.458225 C98.9674,23.4475675 94.48165,25.904675 94.48165,30.913225 C94.48165,33.971225 96.766075,36.836975 100.7384,36.836975 C103.18045,36.836975 105.22515,35.86225 106.4479,34.300475 L106.568507,34.300475 C106.568507,34.300475 107.379557,37.692225 111.849257,36.3952 C111.614132,34.98355 111.538707,33.47845 111.538707,31.6657 L111.538707,24.6872 C111.538707,20.23945 109.639132,16.32745 103.219957,16.32745 L103.22,16.327375 Z M125.3665,16.327375 C123.32435,16.327375 121.001,17.645575 120.02575,20.471375 L119.876825,20.471375 L119.876825,16.770125 L115.076075,16.770125 L115.076075,36.395125 L120.548825,36.395125 L120.548825,26.345875 C120.548825,25.80375 120.581695,25.331075 120.667477,24.897625 C121.072227,22.792575 122.682352,21.446875 124.993227,21.446875 C125.627602,21.446875 126.081627,21.515585 126.572827,21.5865225 L126.572827,16.4487725 C126.160952,16.3655525 125.879252,16.32719 125.366777,16.32719 L125.3665,16.327375 Z M45.2215,26.935875 L45.2215,29.384125 C45.2215,29.746275 45.1899775,30.119925 45.089665,30.446625 C44.679115,31.80635 43.270515,32.955375 41.509665,32.955375 C40.041615,32.955375 38.875415,32.1222 38.875415,30.359625 C38.875415,27.663625 41.843165,26.918375 45.221665,26.935875 L45.2215,26.935875 Z M106.239,26.935875 L106.239,29.384125 C106.239,29.746275 106.20682,30.119925 106.107165,30.446625 C105.696615,31.80635 104.288515,32.955375 102.527665,32.955375 C101.05929,32.955375 99.892915,32.1222 99.892915,30.359625 C99.892915,27.663625 102.860665,26.918375 106.239165,26.935875 L106.239,26.935875 Z" id="Shape" transform="translate(69.781621, 23.553713) rotate(-360.000000) translate(-69.781621, -23.553713) "></path>
            <path d="M167.3025,0.824375 C165.58995,0.824375 164.22875,1.780725 164.22875,2.944975 L165.2688,14.721725 C165.383613,15.43125 166.25275,15.97855 167.303475,15.97855 C168.356275,15.977175 169.222375,15.43035 169.3396,14.721725 L170.3846,2.944975 C170.3846,1.780825 169.0196,0.824475 167.3046,0.824475 L167.3025,0.824375 Z M150.35375,10.271125 C149.464675,10.29222 148.4547,10.96535 147.81225,12.079225 C146.95305,13.56245 147.1053,15.219975 148.1106,15.801475 L158.82835,20.792725 C159.4979,21.041755 160.40725,20.56627 160.933825,19.65845 C160.9339,19.6583243 160.933753,19.658075 160.933825,19.65795 C161.46285,18.74565 161.4219,17.719875 160.864978,17.264875 L151.184978,10.475375 C150.933578,10.329765 150.650778,10.2642425 150.354402,10.2712725 L150.35375,10.271125 Z M184.25125,10.271125 C183.95495,10.2640925 183.672575,10.3296175 183.42165,10.4752275 L173.7404,17.2647275 C173.186775,17.7197025 173.145725,18.7455275 173.672043,19.6578025 L173.672543,19.6583025 C174.201068,20.5661275 175.107468,21.0416025 175.777043,20.7925775 L186.499543,15.8015775 C187.509018,15.2200775 187.653693,13.5626275 186.800318,12.0793275 C186.154967,10.9654275 185.143317,10.2923275 184.254318,10.2712275 L184.25125,10.271125 Z M159.22875,25.808875 C159.090098,25.807 158.955675,25.82842 158.829825,25.87577 L148.112075,30.86102 C147.1068,31.44507 146.95455,33.10322 147.813725,34.58802 C148.670325,36.06832 150.1802,36.77207 151.185725,36.191545 L160.866475,29.407295 C161.423475,28.946745 161.464575,27.921245 160.935323,27.009845 L160.939723,27.011845 C160.511823,26.26947 159.829623,25.816895 159.228773,25.80872 L159.22875,25.808875 Z M175.381,25.808875 C174.78085,25.81705 174.1,26.269625 173.67105,27.012 L173.67495,27.01 C173.1483,27.9214 173.189075,28.9469 173.74282,29.40745 L183.42407,36.1917 C184.42772,36.772225 185.93907,36.0684975 186.79957,34.588175 C187.652945,33.103325 187.50827,31.445175 186.498795,30.861175 L175.779545,25.875925 C175.653703,25.828575 175.519595,25.8071425 175.381095,25.80903 L175.381,25.808875 Z M167.301,30.689625 C166.25205,30.690875 165.3849,31.23585 165.27025,31.943525 L164.2302,43.719775 C164.2302,44.885975 165.591375,45.840375 167.30395,45.840375 C169.0197,45.840375 170.38345,44.88595 170.38345,43.719775 L169.340975,31.943525 C169.223747,31.23585 168.35765,30.690975 167.30485,30.689625 L167.30095,30.689625 L167.301,30.689625 Z" id="Shape" transform="translate(167.305260, 23.332375) rotate(-360.000000) translate(-167.305260, -23.332375) "></path>
        </g>
    </g>
</svg>