<svg xmlns="http://www.w3.org/2000/svg" viewBox="0 0 79.54 68.68"><defs><style>.cls-1{fill:#fff;}</style></defs><g id="Layer_2" data-name="Layer 2"><g id="Layer_1-2" data-name="Layer 1"><path class="cls-1" d="M76.92,44.27H2.61V2.61H76.92ZM77.35,0H2.18A2.19,2.19,0,0,0,0,2.18V55.59a2.18,2.18,0,0,0,2.18,2.17H33.9l-.48,5.16c0,.32-.37,3.15-5.72,3.15a1.31,1.31,0,1,0,0,2.61H51.84a1.31,1.31,0,1,0,0-2.61c-5.35,0-5.7-2.83-5.73-3.21l-.47-5.1H76.49c.78,0,3.05-.53,3.05-2.18V2.18A2.18,2.18,0,0,0,77.35,0ZM39.76,11,51,14.36c0,6.62-.27,12.4-2.28,16.31-1.91,3.7-5,4.85-8.27,6.07-.21.09-.43.16-.64.24l-.63-.24c-3.27-1.21-6.36-2.37-8.27-6.07-2-3.91-2.26-9.68-2.28-16.31ZM38.22,39.19l1.07.41a1.31,1.31,0,0,0,.47.09,1.27,1.27,0,0,0,.47-.09l1.08-.4c3.43-1.28,7.31-2.73,9.68-7.33s2.58-11.1,2.58-18.47a1.32,1.32,0,0,0-.93-1.26L40.14,8.36a1.37,1.37,0,0,0-.75,0l-12.5,3.78A1.32,1.32,0,0,0,26,13.4c0,7.37.2,13.85,2.58,18.47s6.25,6,9.67,7.32Z"/></g></g></svg>