<?xml version="1.0" ?><svg style="enable-background:new 0 0 64 64;" version="1.1" viewBox="0 0 64 64" xml:space="preserve" xmlns="http://www.w3.org/2000/svg" xmlns:xlink="http://www.w3.org/1999/xlink"><style type="text/css">
	.st0{display:none;}
	.st1{display:inline;}
	.st2{fill:none;stroke:#B3B3B3;stroke-width:0.1;stroke-miterlimit:10;}
	.st3{fill:none;stroke:#000000;stroke-width:2;stroke-miterlimit:10;}
	.st4{fill:#FFFFFF;}
	path{fill: #fff}
</style><g class="st0" id="Layer_1"><g class="st1"><rect class="st2" height="60" width="60" x="2" y="2"/><line class="st2" x1="32" x2="32" y1="2" y2="62"/><line class="st2" x1="62" x2="2" y1="32" y2="32"/><line class="st2" x1="2" x2="62" y1="2" y2="62"/><rect class="st2" height="44" width="44" x="10" y="10"/><line class="st2" x1="62" x2="2" y1="2" y2="62"/><line class="st2" x1="2" x2="32" y1="32" y2="2"/><line class="st2" x1="32" x2="62" y1="2" y2="32"/><line class="st2" x1="62" x2="32" y1="32" y2="62"/><line class="st2" x1="32" x2="2" y1="62" y2="32"/><circle class="st2" cx="32" cy="32" r="21"/></g></g><g id="Layer_2"><path d="M56,6H4C2.9,6,2,6.9,2,8v36c0,1.1,0.9,2,2,2h24v10h-6c-1.1,0-2,0.9-2,2h20c0-1.1-0.9-2-2-2h-6V46h24c1.1,0,2-0.9,2-2V8   C58,6.9,57.1,6,56,6z M56,42H4V8h52V42z"/><rect height="8" width="44" x="8" y="10"/><rect height="8" width="8" x="8" y="20"/><rect height="2" width="34" x="18" y="20"/><rect height="2" width="16" x="18" y="24"/><rect height="8" width="8" x="8" y="30"/><rect height="2" width="34" x="18" y="30"/><rect height="2" width="14" x="18" y="34"/><path d="M39.6,35C39.6,35,39.6,35,39.6,35l2.9-2.2c1.4-1,2.7-2.2,3.9-3.5l15.2-16.5c0.4-0.4,0.4-1,0-1.4l-0.1-0.1   c-0.4-0.4-1-0.4-1.4,0L43.7,26.6c-1.3,1.2-2.5,2.5-3.5,3.9L38,33.4c0,0,0,0,0,0.1c-1.1-0.5-2.4-0.3-3.3,0.6   c-1.4,1.4-3.4,5.3-6.4,6.4c0,0,7.1,1.4,10.6-2.1C39.8,37.4,40,36.1,39.6,35z"/></g></svg>