<svg xmlns="http://www.w3.org/2000/svg" viewBox="0 0 70.23 70.23"><defs><style>.cls-1{fill:#fff;}</style></defs><title>db_cogs</title><g id="Layer_2" data-name="Layer 2"><g id="Layer_1-2" data-name="Layer 1"><path class="cls-1" d="M61.75,39.79V46h2.42V39.79a4.82,4.82,0,0,0,0-9.35V24.22H61.75v6.22a4.85,4.85,0,0,0-3.46,3.46H48.43v2.42h9.86A4.86,4.86,0,0,0,61.75,39.79Z"/><path class="cls-1" d="M15.74,46a8.48,8.48,0,1,0,8.48,8.48A8.49,8.49,0,0,0,15.74,46Zm0,14.53a6.06,6.06,0,1,1,6-6A6.05,6.05,0,0,1,15.74,60.54Z"/><path class="cls-1" d="M27.85,17c-11.8,0-18.16,2.58-18.16,3.63s6.36,3.64,18.16,3.64S46,21.64,46,20.58,39.65,17,27.85,17ZM17,21.79H14.53V19.37H17Zm4.84,0H19.37V19.37h2.42Zm4.85,0H24.22V19.37h2.42Zm4.84,0H29.06V19.37h2.42Zm4.84,0H33.9V19.37h2.42Zm4.85,0H38.75V19.37h2.42Z"/><path class="cls-1" d="M28.43,50.43a13.66,13.66,0,0,0-.86-2l-.3-.6,1.51-2.53L25,41.45,22.43,43l-.6-.31a13.48,13.48,0,0,0-2-.85l-.64-.2-.73-2.85H13.05l-.73,2.85-.63.2a13.17,13.17,0,0,0-2,.85l-.6.31L6.51,41.45l-3.8,3.81L4.22,47.8l-.31.59a13,13,0,0,0-.85,2l-.21.64L0,51.8v5.38l2.85.72.2.64a13.66,13.66,0,0,0,.86,2l.3.6-1.5,2.53,3.8,3.81L9.05,66l.6.31a12.52,12.52,0,0,0,2,.85l.64.21.73,2.85h5.38l.73-2.85.64-.21a12.52,12.52,0,0,0,2-.85l.6-.31L25,67.52l3.8-3.81-1.5-2.53.3-.6a13.66,13.66,0,0,0,.86-2l.2-.64,2.85-.72V51.8l-2.85-.73ZM15.74,65.38a10.9,10.9,0,1,1,10.9-10.89A10.9,10.9,0,0,1,15.74,65.38Z"/><path class="cls-1" d="M9.69,23.66v6.61c0,1.06,6.36,3.63,18.16,3.63S46,31.33,46,30.27V23.66c-4.2,2.29-12.91,3-18.16,3S13.89,26,9.69,23.66Zm33.57,3.7.66,2.32c-.77.22-1.58.43-2.43.6L41,27.91C41.78,27.75,42.54,27.56,43.26,27.36Zm-4.59,1L39,30.72c-.81.13-1.64.23-2.45.32l-.27-2.4C37.11,28.55,37.89,28.45,38.67,28.33ZM34,28.85l.17,2.42c-.83.06-1.65.1-2.46.13L31.57,29C32.35,29,33.15,28.91,34,28.85Z"/><circle class="cls-1" cx="15.74" cy="54.49" r="3.63"/><path class="cls-1" d="M9.69,33.35V40c.2-.09.41-.19.61-.26l.87-3.4h9.15l.86,3.4c.38.14.77.3,1.16.48l3-1.79,5.43,5.43C40.82,43.47,46,41,46,40V33.35c-4.2,2.28-12.91,3-18.16,3S13.89,35.63,9.69,33.35Z"/><path class="cls-1" d="M30,47.89c.17.39.34.78.48,1.16l3.39.86V53C42.38,52.31,46,50.35,46,49.64V43.13C42.78,45,36.8,46,31,46.25ZM43.26,46.8l.66,2.33c-.75.21-1.57.42-2.43.6L41,47.36C41.79,47.19,42.55,47,43.26,46.8Zm-4.59,1L39,50.17c-.81.12-1.63.23-2.45.32l-.27-2.41C37.11,48,37.9,47.9,38.67,47.78Z"/><path class="cls-1" d="M55.7,70.23H70.23V48.43H55.7Zm2.42-19.38h9.69v2.43H58.12Zm0,4.85h9.69v2.42H58.12Zm0,4.84h9.69v7.27H58.12Z"/><rect class="cls-1" x="60.54" y="62.96" width="4.84" height="2.42"/><path class="cls-1" d="M55.7,0V21.79H70.23V0ZM67.81,19.37H58.12V17h9.69Zm0-4.84H58.12V12.11h9.69Zm0-4.84H58.12V7.26h9.69Zm0-4.85H58.12V2.42h9.69Z"/></g></g></svg>