<?xml version="1.0" encoding="utf-8"?>
<svg fill="#fff" xmlns="http://www.w3.org/2000/svg" viewBox="0 0 28 28">
    <path d="M27.5131109,25.1630805 C28.1622964,25.8122659 28.1622964,26.863967 27.5131109,27.5131109 C26.8639255,28.1622547 25.8122244,28.1622964 25.1630805,27.5131109 L14,16.3500303 L2.83691943,27.5131109 C2.18773402,28.1622964 1.13603291,28.1622964 0.486889045,27.5131109 C-0.162254815,26.8639255 -0.162296348,25.8122244 0.486889045,25.1630805 L11.6499697,14 L0.486889045,2.83691943 C-0.162296348,2.18773402 -0.162296348,1.13603291 0.486889045,0.486889045 C1.13607444,-0.162254815 2.18777557,-0.162296348 2.83691943,0.486889045 L14,11.6499697 L25.1630805,0.486889045 C25.8122659,-0.162296348 26.863967,-0.162296348 27.5131109,0.486889045 C28.1622547,1.13607444 28.1622964,2.18777557 27.5131109,2.83691943 L16.3500303,14 L27.5131109,25.1630805 Z"/>
</svg>