<?xml version="1.0" encoding="utf-8"?>
<svg fill="#fff" xmlns="http://www.w3.org/2000/svg" viewBox="0 0 30 30">
    <path d="M1.499881,26.999986 L28.499986,26.999986 C29.328418,26.999986 29.999968,27.671566 29.999968,28.49998 C29.999968,29.328394 29.328418,29.999968 28.499986,29.999968 L1.499881,29.999968 C0.671482,29.999968 -0.000101,29.328394 -0.000101,28.49998 C-0.000101,27.671566 0.671482,26.999986 1.499881,26.999986 Z M1.499881,13.99995 L28.499986,13.99995 C29.328418,13.99995 29.999968,14.67153 29.999968,15.499998 C29.999968,16.328412 29.328418,16.999992 28.499986,16.999992 L1.499881,16.999992 C0.671482,16.999992 -0.000101,16.328412 -0.000101,15.499998 C-0.000101,14.67153 0.671482,13.99995 1.499881,13.99995 Z M1.499881,-2e-05 L28.499986,-2e-05 C29.328418,-2e-05 29.999968,0.67156 29.999968,1.499968 C29.999968,2.328382 29.328418,2.999962 28.499986,2.999962 L1.499881,2.999962 C0.671482,2.999962 -0.000101,2.328382 -0.000101,1.499968 C-0.000101,0.67156 0.671482,-2e-05 1.499881,-2e-05 Z"/>
</svg>