<svg xmlns="http://www.w3.org/2000/svg" viewBox="0 0 70.78 67.45"><defs><style>.cls-1{fill:#fff;}</style></defs><title>devices</title><g id="Layer_2" data-name="Layer 2"><g id="Layer_1-2" data-name="Layer 1"><path class="cls-1" d="M33.34,18.29H4.11A4.1,4.1,0,0,0,0,22.38v41a4.11,4.11,0,0,0,4.11,4.1H33.34a4.11,4.11,0,0,0,4.1-4.1v-41A4.1,4.1,0,0,0,33.34,18.29ZM19.59,21.36a2.05,2.05,0,1,1-2,2.05A2,2,0,0,1,19.59,21.36Zm-6.26,0a2.05,2.05,0,1,1-2.06,2.05A2.05,2.05,0,0,1,13.33,21.36Zm-6.16,0a2.05,2.05,0,1,1-2,2.05A2.05,2.05,0,0,1,7.17,21.36Zm26.17,42H4.11V28.58H33.34V63.35Z"/><path class="cls-1" d="M66.68,0H17.53a4.09,4.09,0,0,0-4.1,4.1V16h4.1V10.29H66.68V45.07H39.76v4.09H66.68a4.1,4.1,0,0,0,4.1-4.09V4.1A4.1,4.1,0,0,0,66.68,0ZM20.6,7.17a2,2,0,1,1,2-2A2,2,0,0,1,20.6,7.17Zm6.15,0a2,2,0,1,1,2.05-2A2,2,0,0,1,26.75,7.17Zm6.27,0a2,2,0,1,1,0-4.09,2,2,0,0,1,0,4.09Z"/></g></g></svg>