<svg width="64" height="64" xmlns="http://www.w3.org/2000/svg">

 <g>
  <title>background</title>
  <rect fill="none" id="canvas_background" height="402" width="582" y="-1" x="-1"/>
 </g>
 <g>
  <title>Layer 1</title>
  <path fill="#ffffff" id="svg_13" d="m20,44l0,2l2,0l0,2l-2,0l0,2l2,0l0,2l-2,0l0,2l2,0l0,2l-2,0l0,2l2.6,0l3.1,2.5c1.2,1 2.8,1.5 4.4,1.5l3.8,0c1.6,0 3.1,-0.5 4.4,-1.5l3.1,-2.5l2.6,0l0,-2l-2,0l0,-2l2,0l0,-2l-2,0l0,-2l2,0l0,-2l-2,0l0,-2l2,0l0,-2l-24,0z"/>
  <path fill="#ffffff" id="svg_14" d="m22,38.7l0,3.3l20,0l0,-3.3c0,-1 0.5,-1.9 1.3,-2.5c4.9,-3.6 7.7,-9.1 7.7,-15.2c0,-5.4 -2.3,-10.6 -6.3,-14.2c-4.1,-3.7 -9.3,-5.3 -14.8,-4.7c-9,1 -16.1,8.3 -16.8,17.4c-0.5,6.6 2.3,12.9 7.7,16.8c0.7,0.6 1.2,1.5 1.2,2.4zm12,-10.7l2,0c0.6,0 1,-0.4 1,-1l0,-3.8c0,-0.9 0.4,-1.7 1,-2.2c-0.6,-0.6 -1,-1.4 -1,-2.2l0,-3.8c0,-0.6 -0.4,-1 -1,-1l-2,0l0,-2l2,0c1.7,0 3,1.3 3,3l0,3c0,1.1 0.9,2 2,2l0,2c-1.1,0 -2,0.9 -2,2l0,3c0,1.7 -1.3,3 -3,3l-2,0l0,-2zm-11,-8c1.1,0 2,-0.9 2,-2l0,-3c0,-1.7 1.3,-3 3,-3l2,0l0,2l-2,0c-0.6,0 -1,0.4 -1,1l0,3.8c0,0.9 -0.4,1.7 -1,2.2c0.6,0.6 1,1.4 1,2.2l0,3.8c0,0.6 0.4,1 1,1l2,0l0,2l-2,0c-1.7,0 -3,-1.3 -3,-3l0,-3c0,-1.1 -0.9,-2 -2,-2l0,-2z"/>
 </g>
</svg>