<svg xmlns="http://www.w3.org/2000/svg" viewBox="0 0 69.5 56.48"><defs><style>.cls-1{fill:#fff;}</style></defs><g id="Layer_2" data-name="Layer 2"><g id="Layer_1-2" data-name="Layer 1"><path class="cls-1" d="M34.24,33.94a2,2,0,0,0,0-3.95h-4.1V27.07a1.89,1.89,0,0,0-1.9-1.9h-1.9a10.38,10.38,0,0,0-10.25,8.55H11.56a2,2,0,1,0,0,4h4.53a10.52,10.52,0,0,0,10.25,8.49h1.82a1.89,1.89,0,0,0,1.91-1.9V41.33h4.09a2,2,0,1,0,0-3.95H30.07V33.94Zm-8,8.34a6.58,6.58,0,0,1,0-13.16Z"/><path class="cls-1" d="M58.09,33.72H53.48a10.51,10.51,0,0,0-10.25-8.55h-1.9a1.89,1.89,0,0,0-1.9,1.9v17a1.89,1.89,0,0,0,1.9,1.9h1.9a10.37,10.37,0,0,0,10.25-8.55h4.61A1.89,1.89,0,0,0,60,35.55,1.93,1.93,0,0,0,58.09,33.72ZM43.23,42.28V29.12a6.58,6.58,0,1,1,0,13.16Z"/><path class="cls-1" d="M62.47,0H7A7,7,0,0,0,0,7V49.45a7,7,0,0,0,7,7H62.47a7,7,0,0,0,7-7V7A7,7,0,0,0,62.47,0ZM7,4.32H62.47A2.62,2.62,0,0,1,65.11,7v7.83H4.39V7A2.68,2.68,0,0,1,7,4.32ZM62.47,52.16H7a2.62,2.62,0,0,1-2.63-2.63V19.17H65.18V49.45A2.79,2.79,0,0,1,62.47,52.16Z"/><circle class="cls-1" cx="10.39" cy="9.58" r="2.49"/><circle class="cls-1" cx="17.7" cy="9.58" r="2.49"/><circle class="cls-1" cx="25.09" cy="9.58" r="2.49"/><path class="cls-1" d="M47.11,11.41H58a1.83,1.83,0,1,0,0-3.66H47.11a1.83,1.83,0,1,0,0,3.66Z"/></g></g></svg>