<svg xmlns="http://www.w3.org/2000/svg" viewBox="0 0 84.44 68.76"><defs><style>.cls-1{fill:#fff;}</style></defs><g id="Layer_2" data-name="Layer 2"><g id="Layer_1-2" data-name="Layer 1"><path class="cls-1" d="M5,4A1.07,1.07,0,0,1,6.1,2.92H31.84A1.07,1.07,0,0,1,32.91,4v14.9H5ZM31.84,23.52H6.1a3.18,3.18,0,0,1-2.83-1.71H34.65a3.16,3.16,0,0,1-2.81,1.71ZM6.1,26.44H31.84a6.13,6.13,0,0,0,6.1-6.09,1.47,1.47,0,0,0-1.46-1.46h-.65V4a4,4,0,0,0-4-4H6.1a4,4,0,0,0-4,4v14.9H1.46A1.47,1.47,0,0,0,0,20.35a6.13,6.13,0,0,0,6.1,6.09Z"/><path class="cls-1" d="M31.84,65.84H6.1a3.15,3.15,0,0,1-2.82-1.71H34.65a3.16,3.16,0,0,1-2.81,1.71ZM5,46.31A1.07,1.07,0,0,1,6.1,45.24H31.84a1.07,1.07,0,0,1,1.07,1.07v14.9H5Zm31.45,14.9h-.65V46.31a4,4,0,0,0-4-4H6.1a4,4,0,0,0-4,4v14.9H1.46A1.47,1.47,0,0,0,0,62.67a6.13,6.13,0,0,0,6.1,6.09H31.84a6.12,6.12,0,0,0,6.1-6.09,1.47,1.47,0,0,0-1.46-1.46Z"/><path class="cls-1" d="M15.32,39.4a1.47,1.47,0,0,0,1.46-1.46V30.65a1.46,1.46,0,0,0-1.46-1.46,1.44,1.44,0,0,0-.87.29l-2.92,2.19A1.46,1.46,0,0,0,13.28,34l.58-.44v4.38a1.47,1.47,0,0,0,1.46,1.46Z"/><path class="cls-1" d="M22.62,29.19a1.46,1.46,0,0,0-1.46,1.46v7.29a1.51,1.51,0,0,0,2.15,1.31l2.91-1.46a1.46,1.46,0,0,0-1.3-2.61l-.84.4V30.65a1.46,1.46,0,0,0-1.46-1.46Z"/><path class="cls-1" d="M12.11,50.78l-1.46,1.46a1.42,1.42,0,0,0-.51,1.1,1.46,1.46,0,0,0,1.45,1.46,1.43,1.43,0,0,0,1.11-.51l1.46-1.46a1.43,1.43,0,0,0,.35-.95,1.45,1.45,0,0,0-1.46-1.45,1.42,1.42,0,0,0-.94.35Z"/><path class="cls-1" d="M22.32,50.78l-5.11,5.1a1.46,1.46,0,1,0,2.06,2.06l5.11-5.11a1.48,1.48,0,0,0,.35-.95,1.46,1.46,0,0,0-2.41-1.1Z"/><path class="cls-1" d="M15,8.46l-2.19,2.19a1.45,1.45,0,0,0,.95,2.56,1.43,1.43,0,0,0,1.11-.51l2.19-2.19a1.42,1.42,0,0,0,.35-.94A1.46,1.46,0,0,0,15,8.46Z"/><path class="cls-1" d="M24.87,8.82,19.4,14.29a1.49,1.49,0,0,0-.51,1.11,1.46,1.46,0,0,0,2.57,1l5.47-5.47a1.45,1.45,0,0,0,.35-1,1.47,1.47,0,0,0-1.46-1.46,1.52,1.52,0,0,0-.95.35Z"/><path class="cls-1" d="M51.53,4A1.07,1.07,0,0,1,52.6,2.92H78.34A1.07,1.07,0,0,1,79.41,4v14.9H51.53ZM78.34,23.52H52.6a3.18,3.18,0,0,1-2.83-1.71H81.15a3.16,3.16,0,0,1-2.81,1.71ZM52.6,26.44H78.34a6.13,6.13,0,0,0,6.1-6.09A1.47,1.47,0,0,0,83,18.89h-.65V4a4,4,0,0,0-4-4H52.6a4,4,0,0,0-4,4v14.9H48a1.47,1.47,0,0,0-1.46,1.46,6.13,6.13,0,0,0,6.1,6.09Z"/><path class="cls-1" d="M78.34,65.84H52.6a3.15,3.15,0,0,1-2.82-1.71H81.15a3.16,3.16,0,0,1-2.81,1.71ZM51.53,46.31a1.07,1.07,0,0,1,1.07-1.07H78.34a1.07,1.07,0,0,1,1.07,1.07v14.9H51.53ZM83,61.21h-.65V46.31a4,4,0,0,0-4-4H52.6a4,4,0,0,0-4,4v14.9H48a1.47,1.47,0,0,0-1.46,1.46,6.13,6.13,0,0,0,6.1,6.09H78.34a6.12,6.12,0,0,0,6.1-6.09A1.47,1.47,0,0,0,83,61.21Z"/><path class="cls-1" d="M61.82,39.4a1.47,1.47,0,0,0,1.46-1.46V30.65a1.46,1.46,0,0,0-1.46-1.46,1.44,1.44,0,0,0-.87.29L58,31.67A1.46,1.46,0,0,0,59.78,34l.58-.44v4.38a1.47,1.47,0,0,0,1.46,1.46Z"/><path class="cls-1" d="M69.12,29.19a1.46,1.46,0,0,0-1.46,1.46v7.29a1.51,1.51,0,0,0,2.15,1.31l2.91-1.46a1.46,1.46,0,0,0-1.3-2.61l-.84.4V30.65a1.46,1.46,0,0,0-1.46-1.46Z"/><path class="cls-1" d="M58.6,50.78l-1.45,1.46a1.42,1.42,0,0,0-.51,1.1,1.46,1.46,0,0,0,1.45,1.46,1.43,1.43,0,0,0,1.11-.51l1.46-1.46a1.43,1.43,0,0,0,.35-.95,1.46,1.46,0,0,0-2.41-1.1Z"/><path class="cls-1" d="M68.82,50.78l-5.11,5.1a1.46,1.46,0,1,0,2.06,2.06l5.11-5.11a1.48,1.48,0,0,0,.35-.95,1.46,1.46,0,0,0-1.46-1.45,1.43,1.43,0,0,0-1,.35Z"/><path class="cls-1" d="M61.52,8.46l-2.19,2.19a1.45,1.45,0,0,0,1,2.56,1.43,1.43,0,0,0,1.11-.51l2.19-2.19a1.42,1.42,0,0,0,.35-.94,1.46,1.46,0,0,0-2.41-1.11Z"/><path class="cls-1" d="M71.37,8.82,65.9,14.29a1.49,1.49,0,0,0-.51,1.11,1.46,1.46,0,0,0,2.57,1l5.47-5.47a1.45,1.45,0,0,0,.35-1,1.47,1.47,0,0,0-1.46-1.46,1.5,1.5,0,0,0-.95.35Z"/></g></g></svg>