<?xml version="1.0" ?><svg style="enable-background:new 0 0 64 64;" version="1.1" viewBox="0 0 64 64" xml:space="preserve" xmlns="http://www.w3.org/2000/svg" xmlns:xlink="http://www.w3.org/1999/xlink"><style type="text/css">
	.st0{display:none;}
	.st1{display:inline;}
	.st2{fill:none;stroke:#B3B3B3;stroke-width:0.1;stroke-miterlimit:10;}
	.st3{fill:none;stroke:#000000;stroke-width:2;stroke-miterlimit:10;}
	.st4{fill:#FFFFFF;}
	 path{fill: #fff}
</style><g class="st0" id="Layer_1"><g class="st1"><rect class="st2" height="60" width="60" x="2" y="2"/><line class="st2" x1="32" x2="32" y1="2" y2="62"/><line class="st2" x1="62" x2="2" y1="32" y2="32"/><line class="st2" x1="2" x2="62" y1="2" y2="62"/><rect class="st2" height="44" width="44" x="10" y="10"/><line class="st2" x1="62" x2="2" y1="2" y2="62"/><line class="st2" x1="2" x2="32" y1="32" y2="2"/><line class="st2" x1="32" x2="62" y1="2" y2="32"/><line class="st2" x1="62" x2="32" y1="32" y2="62"/><line class="st2" x1="32" x2="2" y1="62" y2="32"/><circle class="st2" cx="32" cy="32" r="21"/></g></g><g id="Layer_2"><g><path d="M15.7,46h-1.5c-0.7,0-1.4-0.2-1.9-0.6L12,45.1c-1.4-1-2.4-2.7-2.8-4.7C9.1,39.5,9,38.7,9,37.9V35c0-3.4,2.6-6,6-6    s6,2.6,6,6v2.9c0,0.8-0.1,1.7-0.2,2.5c-0.4,2.1-1.4,3.7-2.8,4.8l-0.3,0.2C17.1,45.8,16.4,46,15.7,46z M15,31c-2.3,0-4,1.7-4,4v2.9    c0,0.7,0.1,1.4,0.2,2.1c0.3,1.6,1,2.8,2,3.6l0.3,0.2c0.2,0.2,0.5,0.2,0.7,0.2h1.5c0.3,0,0.5-0.1,0.7-0.2l0.3-0.2    c1-0.7,1.7-2,2-3.5c0.1-0.7,0.2-1.5,0.2-2.2V35C19,32.7,17.3,31,15,31z"/></g><g><path d="M49.7,46h-1.5c-0.7,0-1.4-0.2-1.9-0.6L46,45.1c-1.4-1-2.4-2.7-2.8-4.7c-0.2-0.9-0.3-1.7-0.3-2.5V35c0-3.4,2.6-6,6-6    s6,2.6,6,6v2.9c0,0.8-0.1,1.7-0.2,2.5c-0.4,2.1-1.4,3.7-2.8,4.8l-0.3,0.2C51.1,45.8,50.4,46,49.7,46z M49,31c-2.3,0-4,1.7-4,4v2.9    c0,0.7,0.1,1.4,0.2,2.1c0.3,1.6,1,2.8,2,3.6l0.3,0.2c0.2,0.2,0.5,0.2,0.7,0.2h1.5c0.3,0,0.5-0.1,0.7-0.2l0.3-0.2    c1-0.7,1.7-2,2-3.5c0.1-0.7,0.2-1.5,0.2-2.2V35C53,32.7,51.3,31,49,31z"/></g><g><path d="M32.7,44h-1.5c-0.7,0-1.4-0.2-1.9-0.6L29,43.1c-1.4-1-2.4-2.7-2.8-4.7c-0.2-0.9-0.3-1.7-0.3-2.5V33c0-3.4,2.6-6,6-6    s6,2.6,6,6v2.9c0,0.8-0.1,1.7-0.2,2.5c-0.4,2.1-1.4,3.7-2.8,4.8l-0.3,0.2C34.1,43.8,33.4,44,32.7,44z M32,29c-2.3,0-4,1.7-4,4v2.9    c0,0.7,0.1,1.4,0.2,2.1c0.3,1.6,1,2.8,2,3.6l0.3,0.2c0.2,0.2,0.5,0.2,0.7,0.2h1.5c0.3,0,0.5-0.1,0.7-0.2l0.3-0.2    c1-0.7,1.7-2,2-3.5c0.1-0.7,0.2-1.5,0.2-2.2V33C36,30.7,34.3,29,32,29z"/></g><g><path d="M28.8,47.6l-1.5-1.3c0.9-1,1.1-2.3,0.8-4.2l2-0.3C30.4,44.3,30,46.2,28.8,47.6z"/></g><g><path d="M35.4,47.8c-1.2-1-1.7-2.9-1.4-5.9l2,0.2c-0.2,2.2,0,3.6,0.6,4.1L35.4,47.8z"/></g><g><path d="M45.8,49.6l-1.5-1.3c0.9-1,1.1-2.3,0.8-4.2l2-0.3C47.4,46.3,47,48.2,45.8,49.6z"/></g><g><path d="M52.4,49.8c-1.2-1-1.7-2.9-1.4-5.9l2,0.2c-0.2,2.2,0,3.6,0.6,4.1L52.4,49.8z"/></g><g><path d="M11.8,49.6l-1.5-1.3c0.9-1,1.1-2.3,0.8-4.2l2-0.3C13.4,46.3,13,48.2,11.8,49.6z"/></g><g><path d="M18.4,49.8c-1.2-1-1.7-2.9-1.4-5.9l2,0.2c-0.2,2.2,0,3.6,0.6,4.1L18.4,49.8z"/></g><path d="M62.3,57.6l-0.8-5c-0.3-1.6-1.4-2.8-3-3.2L53,48c-2.7,4-5.3,4-8,0l-2.2,0.5L36,46c-2.7,4-5.3,4-8,0l-6.8,2.5L19,48   c-2.7,4-5.3,4-8,0l-5.5,1.4c-1.5,0.4-2.7,1.7-3,3.2l-0.8,5c4.4,1.5,9.7,2.7,15.5,3.5l0,0c0.1,0,0.3,0,0.5,0.1   c0.6,0.1,1.3,0.2,1.9,0.2c0.6,0.1,1.2,0.1,1.8,0.2c0.6,0.1,1.2,0.1,1.8,0.1c0.7,0.1,1.4,0.1,2.1,0.1c0.5,0,1.1,0.1,1.6,0.1   c0.8,0,1.6,0.1,2.3,0.1c0.3,0,0.5,0,0.8,0l0,0c0.7,0,1.3,0,2,0c0.3,0,0.7,0,1,0l0,0c0.8,0,1.6,0,2.4,0c0.4,0,0.8,0,1.1,0   c1,0,1.9-0.1,2.9-0.1c0.3,0,0.5,0,0.8-0.1c1.1-0.1,2.1-0.2,3.1-0.3c0.1,0,0.1,0,0.2,0c1.1-0.1,2.2-0.2,3.3-0.4c0,0,0.1,0,0.1,0l0,0   C52.6,60.3,57.8,59.1,62.3,57.6z M29.6,58.2l-1.2,1.6L23.3,56l5.1-3.8l1.2,1.6L26.7,56L29.6,58.2z M32,60.2L30,59.8l2-8l1.9,0.5   L32,60.2z M35.6,59.8l-1.2-1.6l2.9-2.2l-2.9-2.2l1.2-1.6l5.1,3.8L35.6,59.8z"/><path d="M22,33L22,33L22,33c0-3.3-3.7-7-7-6c-4-1-7,2.7-7,6c0,0-0.7,13.1-3,17l5,1c0,0,2.2-1.5,2-7c0,0-1.6-1.7-1.9-7.1   c1.9-1.3,3.9-3.3,4.9-4.9c1.1,1.5,3.1,3.5,5,4.9C19.6,42.3,18,44,18,44c-0.2,5.5,2,7,2,7l5-1C22.7,46.1,22,33,22,33z"/><path d="M35,32.2c-2.8,2.1-6.3,2.8-10,3l0.5-3.8c0.3-2.5,2.2-4.6,4.7-5.1l0.7-0.1c2.5-0.6,5.1,0.6,6.4,2.8l0.8,1.3l0,0.1   c1.2,1.8,1.1,4.1-0.2,5.8L37,37.2L35,32.2z"/><path d="M49,35l-5-1c0,0,0.5-4,5-4s5,4,5,4L49,35z"/></g></svg>