<?xml version="1.0" ?><svg style="enable-background:new 0 0 64 64;" version="1.1" viewBox="0 0 64 64" xml:space="preserve" xmlns="http://www.w3.org/2000/svg" xmlns:xlink="http://www.w3.org/1999/xlink"><style type="text/css">
	.st0{display:none;}
	.st1{display:inline;}
	.st2{fill:none;stroke:#B3B3B3;stroke-width:0.1;stroke-miterlimit:10;}
	.st3{fill:none;stroke:#000000;stroke-width:2;stroke-miterlimit:10;}
	.st4{fill:#FFFFFF;}
	path{fill: #fff}
</style><g class="st0" id="Layer_1"><g class="st1"><rect class="st2" height="60" width="60" x="2" y="2"/><line class="st2" x1="32" x2="32" y1="2" y2="62"/><line class="st2" x1="62" x2="2" y1="32" y2="32"/><line class="st2" x1="2" x2="62" y1="2" y2="62"/><rect class="st2" height="44" width="44" x="10" y="10"/><line class="st2" x1="62" x2="2" y1="2" y2="62"/><line class="st2" x1="2" x2="32" y1="32" y2="2"/><line class="st2" x1="32" x2="62" y1="2" y2="32"/><line class="st2" x1="62" x2="32" y1="32" y2="62"/><line class="st2" x1="32" x2="2" y1="62" y2="32"/><circle class="st2" cx="32" cy="32" r="21"/></g></g><g id="Layer_2"><path d="M6,4v56c0,1.1,0.9,2,2,2h48c1.1,0,2-0.9,2-2V4c0-1.1-0.9-2-2-2H8C6.9,2,6,2.9,6,4z M15,4c0.6,0,1,0.4,1,1c0,0.6-0.4,1-1,1   s-1-0.4-1-1C14,4.4,14.4,4,15,4z M12,4c0.6,0,1,0.4,1,1c0,0.6-0.4,1-1,1s-1-0.4-1-1C11,4.4,11.4,4,12,4z M9,4c0.6,0,1,0.4,1,1   c0,0.6-0.4,1-1,1S8,5.6,8,5C8,4.4,8.4,4,9,4z M8,8h42v4H8V8z M56,60H8V14h48V60z M54,12c-1.1,0-2-0.9-2-2c0-1.1,0.9-2,2-2   s2,0.9,2,2C56,11.1,55.1,12,54,12z"/><path d="M32,41.2l0.7,0.7l0.7-0.7c0.4-0.4,0.4-1,0-1.4L32,38.4l14.8-14.8l0.7-2.1l-2.1,0.7L30.6,37l-1.4-1.4c-0.4-0.4-1-0.4-1.4,0   l-0.7,0.7l0.7,0.7c0.4,0.4,0.4,1,0,1.4l-0.4,0.4C27.2,39,26.9,39,26.6,39h-1.6c-0.5,0-1,0.3-1.4,0.6L15,48.3   c-0.8,0.8-0.8,2.1,0,2.8l2.8,2.8c0.8,0.8,2,0.8,2.8,0l8.7-8.6c0.4-0.4,0.6-0.9,0.6-1.4v-1.6c0-0.3,0-0.5,0.2-0.7l0.4-0.4   C31,40.9,31.6,40.9,32,41.2z"/><path d="M44.3,45.6l-20-20c0.3-1.4-0.1-3-1.2-4.1c-1.1-1.1-2.6-1.5-4.1-1.2l2.3,2.3c0.4,0.4,0.4,1,0,1.4l-2.1,2.1   c-0.4,0.4-1,0.4-1.4,0l-2.3-2.3c-0.3,1.7,0.3,3.5,1.8,4.6c1,0.7,2.3,1,3.5,0.7l20,20c-0.2,1.2,0,2.5,0.7,3.5   c1.1,1.5,2.9,2.1,4.6,1.8l-2.3-2.3c-0.4-0.4-0.2-0.9,0.2-1.2l2.1-2.1c0.4-0.4,0.9-0.6,1.2-0.2l2.3,2.3c0.3-1.4-0.1-3-1.2-4.1   C47.2,45.7,45.7,45.3,44.3,45.6z"/></g></svg>