<svg xmlns="http://www.w3.org/2000/svg" viewBox="0 0 73.65 11.23">
    <style>
        path{
        fill: white;
        }
    </style>
    <title>Marker</title>
    <g id="Layer_2" data-name="Layer 2">
        <g id="Layer_1-2" data-name="Layer 1">
            <path d="M28.27,6.69a3.26,3.26,0,0,0,2-3.57A3.19,3.19,0,0,0,27.66.17,3.38,3.38,0,0,1,27.25,0H22.09q0,4.73-.07,9.45a1.93,1.93,0,0,1-.19,1L17.49,0h-2L11.23,10.61l-.19,0V0H8.65L5.5,7.44,2.39,0H0V11.23H2V4.47l.17-.05L5,11.23h1.1L8.82,4.41l.2,0v6.78h4.24c.23-.63.42-1.27.7-1.87a.92.92,0,0,1,.67-.43c1.28,0,2.56,0,3.84,0a1,1,0,0,1,.7.52,18.42,18.42,0,0,1,.73,1.77h4.05v-4c1.41-.38,1.63-.31,2.32.8s1.28,2.12,1.92,3.18h2.39L27.83,6.92Zm-13.49.37,1.75-4.43,1.76,4.43ZM24,5.22V1.89c1,0,1.93-.07,2.86,0a1.56,1.56,0,0,1,1.4,1.65A1.58,1.58,0,0,1,26.84,5.2C25.91,5.28,25,5.22,24,5.22Z"/>
            <path d="M40,11l-4.88-5.6L39.77,0H37.19l-4,4.76L33,4.69V0H31.11c0,3-.06,5.91-.07,8.86,0,.79,0,1.58.07,2.37H33c0-1,0-2,0-2.92a9.26,9.26,0,0,1,.61-1.83l3.95,4.75H47.5V9.44H42v-3h5.39V4.64H42V1.88H47.5V0H40Z"/>
            <path d="M56.52,2.76C56.23,1.11,55,.42,53.58,0H48.42c0,3-.06,5.91-.07,8.86,0,.79,0,1.58.07,2.37h1.84v-4c1.4-.38,1.59-.33,2.31.81s1.29,2.12,1.93,3.18h2.39L54.16,6.92C56.19,5.92,56.87,4.72,56.52,2.76Zm-6.2,2.46V1.89c1,0,1.92-.07,2.85,0a1.6,1.6,0,0,1,1.41,1.67,1.58,1.58,0,0,1-1.45,1.63C52.24,5.29,51.32,5.23,50.33,5.23Z"/>
            <path d="M72.49,8.34c-.45.84-.88,1.6-1.88,1.5S69.15,8.91,68.87,8a8.11,8.11,0,0,1,0-4.71c.25-.88.64-1.69,1.66-1.89S71.9,2,72.36,2.62c0,0,.05,0,.12.07l1-.63A3.35,3.35,0,0,0,71.26,0h-1.1a3.86,3.86,0,0,0-2.69,3.2,19.13,19.13,0,0,0-.08,4.37,4,4,0,0,0,2.77,3.66h1.29l2.21-2V9Z"/>
            <path d="M64.7,9.84c0-.91,0-1.67,0-2.43q0-3.7-.07-7.41H63.34V11.23h4.42l-.11-1.4Z"/>
            <path d="M59.91,9.84c0-.91,0-1.67,0-2.43q0-3.7-.07-7.41H58.55V11.23H63l-.11-1.4Z"/>
        </g>
    </g>
</svg>