<svg xmlns="http://www.w3.org/2000/svg" viewBox="0 0 58.51 19.28"><title>Samsung</title><g id="Layer_2" data-name="Layer 2"><g id="Layer_1-2" data-name="Layer 1"><path d="M58.4,4.29a3.35,3.35,0,0,0-1.26-1.62,9.41,9.41,0,0,0-2.8-1.35A24.27,24.27,0,0,0,50.07.41,46.74,46.74,0,0,0,44.83,0l-.16,0H42l-.19,0c-1.48.07-3,.12-4.45.22-1.25.09-2.49.23-3.74.36q-3,.33-6,.89Q24.92,2,22.31,2.56C20.15,3,18,3.62,15.91,4.27S11.81,5.62,9.82,6.46l-.12.05c.28,0,.55,0,.81,0a2.86,2.86,0,0,1,1.11.2,1.28,1.28,0,0,1,.83,1.22c0,.16,0,.33,0,.5H11c0-.12,0-.24,0-.36a.5.5,0,0,0-.36-.51.61.61,0,0,0-.68.17.56.56,0,0,0,0,.68,3.66,3.66,0,0,0,.65.48c.38.23.77.44,1.15.66a2.53,2.53,0,0,1,.37.29,1.38,1.38,0,0,1,.5,1.12,4.15,4.15,0,0,1-.07.83,1.41,1.41,0,0,1-1.08,1,3.5,3.5,0,0,1-2.14,0,1.51,1.51,0,0,1-1.07-1.44c0-.19,0-.39,0-.59H9.86c0,.17,0,.34,0,.51a.52.52,0,0,0,.28.54.73.73,0,0,0,.73,0,.66.66,0,0,0,.09-.92,2.16,2.16,0,0,0-.48-.4c-.37-.23-.76-.44-1.14-.66l-.28-.19A1.71,1.71,0,0,1,8.8,6.91l-.07,0A33,33,0,0,0,3.82,9.57,13,13,0,0,0,1.18,11.8a4.7,4.7,0,0,0-1.1,2c0,.12-.05.24-.08.35v.53c0,.11,0,.23.07.34a3.08,3.08,0,0,0,1.08,1.6,7.91,7.91,0,0,0,2.44,1.33,20.34,20.34,0,0,0,4.29,1c1,.13,1.92.22,2.87.33l.1,0H20l1-.09c.93-.08,1.85-.16,2.78-.26s2-.23,3-.36,1.82-.26,2.73-.41q3-.48,5.89-1.13c2.59-.58,5.15-1.25,7.68-2.06,2-.62,3.89-1.32,5.78-2.12l.14-.06c-.38,0-.77,0-1.15,0a2,2,0,0,1-1-.35,1.38,1.38,0,0,1-.62-1.16c0-1.06,0-2.12,0-3.17a1.51,1.51,0,0,1,1.2-1.49,3.65,3.65,0,0,1,1.89,0,1.52,1.52,0,0,1,1.17,1.54c0,.14,0,.27,0,.42H49.06c0-.14,0-.27,0-.4a.63.63,0,0,0-1.25,0c0,1,0,2,0,3a.52.52,0,0,0,.41.52.67.67,0,0,0,.78-.26.32.32,0,0,0,.05-.13c0-.37,0-.74,0-1.12h-.6V9.32h2.12s0,.07,0,.11c0,.52,0,1,0,1.57a1.77,1.77,0,0,1-.49,1.36l.33-.15A30.39,30.39,0,0,0,55,9.67a12.35,12.35,0,0,0,2.39-2.07,4.5,4.5,0,0,0,1.12-2.13l0,0V4.65C58.47,4.53,58.44,4.41,58.4,4.29Zm-41.5,8.4-.8-5.46h0l-.83,5.46H13.61l1.12-6h2.53c.12,0,.17,0,.19.16.31,1.72.63,3.43,1,5.15l.13.72Zm8,0V7.29h-.06l-1,5.42H22.4s-.07-.06-.08-.09Q22,10.79,21.65,9l-.3-1.62a.42.42,0,0,0,0-.07h-.05v5.4H19.74l.13-6h2.47l.74,4.59h0l.75-4.6h2.46l.13,6Zm7.29-1.08a1.33,1.33,0,0,1-.88,1.08,3.24,3.24,0,0,1-2.54-.05A1.39,1.39,0,0,1,28,11.39c0-.22,0-.45,0-.68h1.59c0,.17,0,.34,0,.51a.52.52,0,0,0,.28.54.72.72,0,0,0,.71,0,.65.65,0,0,0,.09-.91,2,2,0,0,0-.44-.37c-.38-.24-.78-.44-1.16-.68a4.1,4.1,0,0,1-.56-.42A1.52,1.52,0,0,1,28,8,1.46,1.46,0,0,1,29.24,6.6a3.47,3.47,0,0,1,2,.07,1.26,1.26,0,0,1,.92,1.27c0,.16,0,.31,0,.48H30.64c0-.1,0-.21,0-.31,0-.49-.32-.65-.74-.57a.54.54,0,0,0-.25.89,2.93,2.93,0,0,0,.6.44c.37.22.76.42,1.13.64a2.69,2.69,0,0,1,.39.3,1.38,1.38,0,0,1,.5,1.11A5,5,0,0,1,32.23,11.61Zm5.71-4.79c0,1.37,0,2.75,0,4.12a3.55,3.55,0,0,1-.06.73,1.34,1.34,0,0,1-.94,1,3.34,3.34,0,0,1-2.33,0,1.34,1.34,0,0,1-.9-1.3c0-1.54,0-3.09,0-4.64a.43.43,0,0,1,0-.07h1.51v.17q0,2.1,0,4.2a1.7,1.7,0,0,0,0,.35.55.55,0,0,0,.61.41.53.53,0,0,0,.55-.46,2,2,0,0,0,0-.29q0-2.1,0-4.2V6.66h1.52Zm6.76,5.82H42.64s-.09-.07-.11-.12c-.24-.76-.47-1.51-.7-2.27l-.73-2.4A.19.19,0,0,0,41,7.74l.08,4.89H39.64v-6H41.7a.19.19,0,0,1,.22.17q.64,2.21,1.29,4.42a.25.25,0,0,0,.09.14l-.08-4.71H44.7Z"/></g></g></svg>