<svg fill="#fff" xmlns="http://www.w3.org/2000/svg" viewBox="0 0 24.52 24.52"><title>Sequoia</title><g id="Layer_2" data-name="Layer 2"><g id="Layer_1-2" data-name="Layer 1"><path d="M3.06,18.9q0-9.45,0-18.9H0V22.37c.93-.91,1.86-1.81,2.77-2.75A1.15,1.15,0,0,0,3.06,18.9Z"/><path d="M4.95,21.7c-.95.92-1.87,1.88-2.8,2.82H24.52V21.45H5.62A1,1,0,0,0,4.95,21.7Z"/><path d="M8.63,13.8a1.71,1.71,0,0,0,.57-1.47c0-4.11,0-8.22,0-12.33H6.13V16.27C7.06,15.34,7.8,14.52,8.63,13.8Z"/><path d="M11.23,15.43c-1,.89-1.94,1.83-2.91,2.75l.14.2H24.52V15.32H12C11.76,15.33,11.39,15.28,11.23,15.43Z"/><path d="M18.39,0V6.13h6.13V0Z"/><path d="M15,7.43a1.4,1.4,0,0,0,.36-.85c0-2.19,0-4.38,0-6.58H12.26V10.15C13.28,9.13,14.14,8.3,15,7.43Z"/><path d="M17.36,9.29c-1,.9-1.94,1.83-2.91,2.75l.15.22h9.92V9.19H17.87A.82.82,0,0,0,17.36,9.29Z"/></g></g></svg>