<svg fill="#fff" xmlns="http://www.w3.org/2000/svg" viewBox="0 0 71.01 12"><title>Sony</title><g id="Layer_2" data-name="Layer 2"><g id="Layer_1-2" data-name="Layer 1"><path d="M12.55,5.31a10.15,10.15,0,0,0-3-.7C7.9,4.4,6.2,4.2,4.5,4a3.22,3.22,0,0,1-1-.34.73.73,0,0,1-.18-1.25,2.59,2.59,0,0,1,.91-.52A7.42,7.42,0,0,1,7,1.59a10.22,10.22,0,0,1,3.5.66A3.23,3.23,0,0,1,12.41,4a.31.31,0,0,0,.23.15c.38,0,.75,0,1.16,0V.57H12.49l-.05.21c-.09.38-.23.48-.6.36C11.16.93,10.5.66,9.81.5S8.17.2,7.34.06L7,0H5.11C4.57.1,4,.15,3.48.3A9.38,9.38,0,0,0,1.86.91,3.35,3.35,0,0,0,0,3.27v.92A3.3,3.3,0,0,0,2.74,6.66c1.37.33,2.78.51,4.18.72,1.05.16,2.11.28,3.16.44a2.59,2.59,0,0,1,.77.26A.9.9,0,0,1,11,9.72a5.15,5.15,0,0,1-1.61.59,9.7,9.7,0,0,1-5.24-.38A3.54,3.54,0,0,1,1.56,7.54H.24v4H1.53a.18.18,0,0,0,0-.05c.1-.71.24-.8.94-.59,1,.28,1.92.59,2.89.84A17.19,17.19,0,0,0,7.17,12h2c.51-.09,1-.17,1.53-.28a6.55,6.55,0,0,0,2.37-1,3,3,0,0,0,1.35-3A2.93,2.93,0,0,0,12.55,5.31Z"/><path d="M31.57,1.94A7.86,7.86,0,0,0,28.28.36c-.66-.15-1.34-.24-2-.36h-2c-.68.12-1.38.21-2.05.36a8.05,8.05,0,0,0-3,1.32,5.16,5.16,0,0,0,0,8.66,9.42,9.42,0,0,0,4.56,1.59l.41.07h2l.38-.07a9.43,9.43,0,0,0,4.56-1.59A5.14,5.14,0,0,0,31.57,1.94Zm-1.65,5a4.09,4.09,0,0,1-3.22,3.32,12.89,12.89,0,0,1-1.43.22,5.06,5.06,0,0,1-3.35-1.19,4.2,4.2,0,0,1-1.26-4.49,4.08,4.08,0,0,1,3.44-3,5.1,5.1,0,0,1,4.25.86A4.13,4.13,0,0,1,29.93,6.9Z"/><path d="M70.58.66h-6V2a4,4,0,0,1,.65,0c.17,0,.41.09.46.21s-.06.35-.17.47c-.72.8-1.47,1.57-2.2,2.36a2.23,2.23,0,0,0-.22.35c-.94-1-1.79-1.9-2.63-2.82a.43.43,0,0,1-.08-.38.46.46,0,0,1,.33-.2,6.55,6.55,0,0,1,.76,0V.68H53.62V2c.38,0,.73,0,1.09,0a2,2,0,0,1,1.66.73C57.57,4.07,58.78,5.39,60,6.67a1.74,1.74,0,0,1,.61,1.55,6.86,6.86,0,0,0,0,1c0,.68-.11.79-.81.8H58.49v1.35h7.73V10h-1.5c-.49,0-.64-.15-.64-.64,0-.64,0-1.28,0-1.92A.61.61,0,0,1,64.22,7c1.38-1.48,2.75-3,4.16-4.42a1.88,1.88,0,0,1,1-.53,10.4,10.4,0,0,1,1.66,0V.64Z"/><path d="M45.95,2h1.4c.61,0,.73.12.73.72q0,2,0,4.08c0,.09,0,.18,0,.31l-.31-.25q-3.54-3-7.08-6a1,1,0,0,0-.56-.21c-1.6,0-3.19,0-4.79,0L35,.67V2h1.4c.62,0,.76.13.76.75q0,3.23,0,6.46c0,.6-.14.73-.73.74H35v1.35h6.52V10H40.09c-.63,0-.75-.13-.75-.75q0-2.5,0-5V3.85l.26.21,8.28,7.08a.69.69,0,0,0,.36.2c.67,0,1.34,0,2.07,0v-.48q0-4,0-8c0-.73.09-.81.83-.81h1.32V.68H45.95Z"/></g></g></svg>