<svg xmlns="http://www.w3.org/2000/svg" viewBox="0 0 29.75 27.63">
    <title>Warner</title>
    <style>
        path{
        fill: white;
        }
    </style>
    <g id="Layer_2" data-name="Layer 2">
        <g id="Layer_1-2" data-name="Layer 1">
            <path d="M29.75,12.94v1.9c0,.11,0,.22,0,.33a23.6,23.6,0,0,1-.64,4.46,9.36,9.36,0,0,1-6.38,7,20.75,20.75,0,0,1-5.85,1l-.55.05H13.58a2.65,2.65,0,0,0-.29,0,25.5,25.5,0,0,1-4.09-.44,12.51,12.51,0,0,1-4.28-1.57A9.2,9.2,0,0,1,.8,19.92a23.52,23.52,0,0,1,0-12.24A9.2,9.2,0,0,1,7,1.08,20.74,20.74,0,0,1,13,.05L13.74,0H16l.2,0c.86.06,1.72.09,2.58.18a15.72,15.72,0,0,1,4.75,1.15,9.1,9.1,0,0,1,4.9,4.82,16.9,16.9,0,0,1,1.14,5C29.65,11.77,29.69,12.36,29.75,12.94Zm-22-5.4a2.67,2.67,0,0,0-2.44,1.6,2.92,2.92,0,0,0,0,2.4c1.16,2.78,2.3,5.56,3.45,8.34a2.73,2.73,0,1,0,5-2.08c-.18-.46-.38-.91-.56-1.36l-3-7.13A2.69,2.69,0,0,0,7.78,7.54Zm7.17,0a4.36,4.36,0,0,0-.49.06,2.72,2.72,0,0,0-2,3.73c.34.85.69,1.69,1,2.53.84,2,1.67,4.06,2.52,6.08a2.58,2.58,0,0,0,2.41,1.68,2.68,2.68,0,0,0,2.6-3.7c-1.16-2.89-2.34-5.77-3.53-8.65A2.69,2.69,0,0,0,15,7.53Zm10.67,4.67a3.7,3.7,0,0,0-.13-.75c-.34-.86-.67-1.74-1.08-2.57a2.64,2.64,0,0,0-2.87-1.3,2.7,2.7,0,0,0-2,3.54c.25.75.53,1.49.81,2.23A2.77,2.77,0,0,0,23.4,15,2.91,2.91,0,0,0,25.62,12.19Z"/>
        </g>
    </g>
</svg>