<svg xmlns="http://www.w3.org/2000/svg" viewBox="0 0 32.67 10.88">
    <title>Wpp</title>
    <style>
        path{
        fill: white;
        }
    </style>
    <g id="Layer_2" data-name="Layer 2">
        <g id="Layer_1-2" data-name="Layer 1">
            <path d="M23.69,1a3.48,3.48,0,0,0-2.07-1L21.13,0H20.6l-.34,0c-.53,0-1.06.08-1.59.09s-1.2,0-1.8,0a1.13,1.13,0,0,0-.34.06.18.18,0,0,0-.12.2.2.2,0,0,0,.14.19l.15,0H17c.32,0,.47.12.52.43a4.65,4.65,0,0,1,.07.74q0,3.74,0,7.48a2.61,2.61,0,0,1,0,.3.52.52,0,0,1-.52.53l-.24,0a1.38,1.38,0,0,0-.23,0,.25.25,0,0,0-.2.26.24.24,0,0,0,.21.24,1,1,0,0,0,.25,0l1-.06a12.78,12.78,0,0,1,1.57.06,4,4,0,0,0,.66,0,.22.22,0,0,0,.21-.25c0-.13-.08-.2-.22-.22l-.35,0a.58.58,0,0,1-.6-.54,2.25,2.25,0,0,1,0-.3c0-.32,0-.65,0-1,0-.76,0-1.53,0-2.29a1.5,1.5,0,0,1,0-.25.12.12,0,0,1,.13-.11h.12l.64.2A3.73,3.73,0,0,0,21.1,6a3.49,3.49,0,0,0,1.59-.34,3,3,0,0,0,1.77-3A2.73,2.73,0,0,0,23.69,1Zm-.86,3a2.42,2.42,0,0,1-2.33,1.44,2.83,2.83,0,0,1-.82-.11,1.68,1.68,0,0,1-.39-.18.64.64,0,0,1-.3-.57c0-.72,0-1.43,0-2.15,0-.4,0-.8,0-1.19a.62.62,0,0,1,.56-.7,3.38,3.38,0,0,1,2.3.29A2.15,2.15,0,0,1,23,2.45,2.67,2.67,0,0,1,22.82,4Z"/>
            <path d="M32.6,2.44A2.71,2.71,0,0,0,31.28.55,3.86,3.86,0,0,0,29.64,0l-.32,0h-.63l-1,.06a18.87,18.87,0,0,1-2.65,0,.65.65,0,0,0-.36.06.21.21,0,0,0-.06.33.42.42,0,0,0,.21.09,3,3,0,0,0,.34,0,.45.45,0,0,1,.5.41,4.4,4.4,0,0,1,.08,1q0,3.61,0,7.23a2.54,2.54,0,0,1-.06.51.4.4,0,0,1-.32.32c-.12,0-.25,0-.38.05a1.6,1.6,0,0,0-.29,0,.22.22,0,0,0-.15.24.21.21,0,0,0,.16.21,1,1,0,0,0,.28,0l1-.06a12.78,12.78,0,0,1,1.57.06,4,4,0,0,0,.65,0,.22.22,0,0,0,.21-.25c0-.13-.08-.2-.23-.22l-.35,0a.58.58,0,0,1-.59-.53,2.15,2.15,0,0,1,0-.36q0-1.54-.07-3.07a2.3,2.3,0,0,1,0-.3c0-.19.09-.24.27-.19s.45.13.67.2A3.58,3.58,0,0,0,29.3,6a3.38,3.38,0,0,0,2.35-.86,2.88,2.88,0,0,0,.95-1.63c0-.15,0-.3.06-.46V2.93C32.65,2.77,32.63,2.6,32.6,2.44ZM30.89,4.21a2.35,2.35,0,0,1-2.15,1.22,2.7,2.7,0,0,1-1-.16,1.27,1.27,0,0,1-.29-.17.59.59,0,0,1-.24-.48c0-.57,0-1.14,0-1.71h0V1.3s0-.05,0-.08a.62.62,0,0,1,.55-.69A3.41,3.41,0,0,1,30,.79a2.16,2.16,0,0,1,1.18,1.71A2.53,2.53,0,0,1,30.89,4.21Z"/>
            <path d="M15.79.12a2,2,0,0,0-.39,0,7.7,7.7,0,0,1-1.2,0l-1-.05A.54.54,0,0,0,13,.14a.22.22,0,0,0-.12.25c0,.09.06.14.17.17l.12,0,.43,0c.34,0,.47.18.38.51a8.1,8.1,0,0,1-.3.91c-.85,2.1-1.72,4.19-2.65,6.26l-.12.26,0-.08L9.08,4.69a.14.14,0,0,1,0-.13l1.14-2.38a7.42,7.42,0,0,1,.62-1.1,1,1,0,0,1,.88-.49,1.53,1.53,0,0,0,.34,0A.17.17,0,0,0,12.2.36.22.22,0,0,0,12,.1h-.34a9.76,9.76,0,0,1-1.32,0L9.51.1a.83.83,0,0,0-.27,0c-.1,0-.14.12-.13.25s.05.14.16.17l.09,0c.15,0,.3,0,.45.06A.27.27,0,0,1,10,1a3.22,3.22,0,0,1-.18.53c-.37.79-.75,1.57-1.13,2.36l0,0,0,0c-.34-.72-.68-1.43-1-2.15a4.93,4.93,0,0,1-.25-.66A.3.3,0,0,1,7.71.66c.15,0,.31,0,.47,0A.57.57,0,0,0,8.39.55.22.22,0,0,0,8.48.3.19.19,0,0,0,8.31.13L8,.11l-.86,0-2,0a2,2,0,0,0-.36,0,.22.22,0,0,0-.2.22.22.22,0,0,0,.2.23,2.7,2.7,0,0,0,.37,0,.71.71,0,0,1,.56.3,5.13,5.13,0,0,1,.4.68C6.71,2.9,7.32,4.19,7.92,5.48a.16.16,0,0,1,0,.12l-1.44,3,0,.09-.06-.11L3.57,2.75Q3.22,2,2.88,1.26A1,1,0,0,1,2.8.94.24.24,0,0,1,3,.68l.21,0c.17,0,.33,0,.5-.06s.16-.09.16-.21A.19.19,0,0,0,3.7.15a1,1,0,0,0-.27,0c-.32,0-.63,0-.95,0L.37.12a.79.79,0,0,0-.22,0A.2.2,0,0,0,0,.35.19.19,0,0,0,.15.56,1.29,1.29,0,0,0,.47.6.72.72,0,0,1,1.13,1c.2.33.39.67.56,1q1.51,3.21,3,6.43l1,2.23a.43.43,0,0,0,.08.14.31.31,0,0,0,.16.08c.12,0,.17,0,.23-.19.59-1.52,1.3-3,2-4.44l0-.06,0,0,1.88,4.24a1.1,1.1,0,0,0,.12.21.21.21,0,0,0,.3,0,.43.43,0,0,0,.13-.16c.05-.11.09-.23.13-.34.42-1,.83-2.07,1.26-3.09q1.13-2.67,2.27-5.34A7,7,0,0,1,14.82,1a.78.78,0,0,1,.63-.37,2.14,2.14,0,0,0,.36-.06A.2.2,0,0,0,16,.33.2.2,0,0,0,15.79.12Z"/>
        </g>
    </g>
</svg>